<svg width="390" height="263" viewBox="0 0 390 263" fill="none" xmlns="http://www.w3.org/2000/svg">
<path d="M289.738 146.432C289.738 146.432 283.839 143.17 283.402 150.558C282.965 157.945 281.871 206 281.871 206" stroke="#263238" stroke-width="2" stroke-linecap="round" stroke-linejoin="round"/>
<path d="M280.32 151.212C280.32 151.212 285.12 161.866 282.945 205.346" stroke="#263238" stroke-width="2" stroke-linecap="round" stroke-linejoin="round"/>
<path d="M285.067 147.917C285.067 147.917 282.807 149.35 281.525 147.712C280.243 146.074 282.394 143.046 280.498 141.757C278.602 140.468 275.323 142.435 275.323 142.435C275.323 142.435 277.843 143.17 277.762 144.541C277.68 145.911 276.466 146.451 276.322 145.83C276.178 145.209 274.954 142.215 272.904 143.471C272.315 143.819 271.802 144.281 271.397 144.831C270.992 145.381 270.703 146.007 270.547 146.671C270.547 146.671 275.314 146.165 275.602 147.951C275.89 149.737 273.648 147.64 271.68 147.526C269.712 147.411 267.917 147.697 268.047 148.882C268.09 149.93 268.027 150.979 267.859 152.014C268.936 151.122 270.298 150.644 271.699 150.668C273.864 150.792 273.783 152.162 271.815 152.048C269.847 151.933 268.157 153.796 268.157 153.796C268.157 153.796 269.952 156.847 272.232 158.356C274.512 159.865 275.333 159.311 275.592 158.16C275.851 157.009 275.247 154.015 276.624 154.096C278.002 154.178 274.344 159.268 276.101 159.569C277.858 159.87 279.274 159.359 279.735 158.208L280.215 157.057C280.215 157.057 279.6 154.077 279.869 152.912C280.138 151.747 280.459 152.946 280.771 154.345C281.083 155.744 281.28 159.091 281.88 158.929C282.48 158.767 284.405 156.327 284.856 155.371C285.307 154.416 282.322 151.489 282.355 150.902C282.389 150.314 284.693 151.432 285.053 152.043C285.314 152.508 285.549 152.986 285.759 153.476C285.759 153.476 287.199 152.578 287.16 149.827C287.122 147.077 285.067 147.917 285.067 147.917Z" fill="white"/>
<path opacity="0.3" d="M285.067 147.917C285.067 147.917 282.807 149.35 281.525 147.712C280.243 146.074 282.394 143.046 280.498 141.757C278.602 140.468 275.323 142.435 275.323 142.435C275.323 142.435 277.843 143.17 277.762 144.541C277.68 145.911 276.466 146.451 276.322 145.83C276.178 145.209 274.954 142.215 272.904 143.471C272.315 143.819 271.802 144.281 271.397 144.831C270.992 145.381 270.703 146.007 270.547 146.671C270.547 146.671 275.314 146.165 275.602 147.951C275.89 149.737 273.648 147.64 271.68 147.526C269.712 147.411 267.917 147.697 268.047 148.882C268.09 149.93 268.027 150.979 267.859 152.014C268.936 151.122 270.298 150.644 271.699 150.668C273.864 150.792 273.783 152.162 271.815 152.048C269.847 151.933 268.157 153.796 268.157 153.796C268.157 153.796 269.952 156.847 272.232 158.356C274.512 159.865 275.333 159.311 275.592 158.16C275.851 157.009 275.247 154.015 276.624 154.096C278.002 154.178 274.344 159.268 276.101 159.569C277.858 159.87 279.274 159.359 279.735 158.208L280.215 157.057C280.215 157.057 279.6 154.077 279.869 152.912C280.138 151.747 280.459 152.946 280.771 154.345C281.083 155.744 281.28 159.091 281.88 158.929C282.48 158.767 284.405 156.327 284.856 155.371C285.307 154.416 282.322 151.489 282.355 150.902C282.389 150.314 284.693 151.432 285.053 152.043C285.314 152.508 285.549 152.986 285.759 153.476C285.759 153.476 287.199 152.578 287.16 149.827C287.122 147.077 285.067 147.917 285.067 147.917Z" fill="#263238"/>
<path d="M273.624 154.369C275.098 152.559 277.262 150.109 279.082 148.939" stroke="#263238" stroke-linecap="round" stroke-linejoin="round"/>
<path d="M271.915 156.575C271.915 156.575 272.294 156.05 272.909 155.266" stroke="#263238" stroke-linecap="round" stroke-linejoin="round"/>
<path d="M280.042 149.388C280.042 149.388 282.23 152.463 282.634 155.629" stroke="#263238" stroke-linecap="round" stroke-linejoin="round"/>
<path d="M277.565 151.207C277.565 151.207 278.179 150.854 277.949 154.765" stroke="#263238" stroke-linecap="round" stroke-linejoin="round"/>
<path d="M279.163 147.559C279.163 147.559 280.411 146.451 279.753 144.254" stroke="#263238" stroke-linecap="round" stroke-linejoin="round"/>
<path d="M277.474 149.436L276.581 147.812" stroke="#263238" stroke-linecap="round" stroke-linejoin="round"/>
<path d="M275.597 151.093C275.597 151.093 272.765 148.963 270.994 148.858" stroke="#263238" stroke-linecap="round" stroke-linejoin="round"/>
<path d="M293.112 142.115C293.112 142.115 293.021 145.343 290.486 145.501C287.952 145.658 286.387 141.461 283.795 142.468C281.203 143.476 280.953 148.084 280.953 148.084C280.953 148.084 283.411 146.074 284.736 147.091C286.061 148.108 285.753 149.67 285.038 149.421C284.323 149.173 280.469 148.318 280.339 151.212C280.285 152.036 280.4 152.863 280.677 153.642C280.953 154.421 281.385 155.136 281.947 155.744C281.947 155.744 284.688 150.653 286.685 151.58C288.681 152.506 285.038 153.313 283.579 155.195C282.12 157.076 281.179 159.058 282.47 159.741C283.554 160.412 284.567 161.189 285.494 162.062C285.494 162.062 285.149 159.397 286.752 157.329C288.355 155.262 289.675 156.274 288.221 158.156C286.766 160.037 287.486 162.988 287.486 162.988C287.486 162.988 291.777 163.284 294.849 162.033C297.921 160.782 297.941 159.602 296.952 158.542C295.963 157.482 292.545 156.064 293.563 154.746C294.581 153.428 297.211 160.543 298.713 158.996C300.216 157.449 300.662 155.696 299.822 154.45L298.977 153.203C298.977 153.203 295.56 151.771 294.571 150.725C293.582 149.679 295.008 150.157 296.625 150.797C298.243 151.437 301.742 153.523 301.992 152.817C302.241 152.11 301.094 148.519 300.441 147.43C299.789 146.341 294.806 147.306 294.24 146.871C293.673 146.437 296.366 144.904 297.225 144.961C298.085 145.018 299.145 145.224 299.145 145.224C299.145 145.224 299.222 143.185 296.429 141.341C293.635 139.498 293.112 142.115 293.112 142.115Z" fill="white"/>
<path opacity="0.2" d="M293.112 142.115C293.112 142.115 293.021 145.343 290.486 145.501C287.952 145.658 286.387 141.461 283.795 142.468C281.203 143.476 280.953 148.084 280.953 148.084C280.953 148.084 283.411 146.074 284.736 147.091C286.061 148.108 285.753 149.67 285.038 149.421C284.323 149.173 280.469 148.318 280.339 151.212C280.285 152.036 280.4 152.863 280.677 153.642C280.953 154.421 281.385 155.136 281.947 155.744C281.947 155.744 284.688 150.653 286.685 151.58C288.681 152.506 285.038 153.313 283.579 155.195C282.12 157.076 281.179 159.058 282.47 159.741C283.554 160.412 284.567 161.189 285.494 162.062C285.494 162.062 285.149 159.397 286.752 157.329C288.355 155.262 289.675 156.274 288.221 158.156C286.766 160.037 287.486 162.988 287.486 162.988C287.486 162.988 291.777 163.284 294.849 162.033C297.921 160.782 297.941 159.602 296.952 158.542C295.963 157.482 292.545 156.064 293.563 154.746C294.581 153.428 297.211 160.543 298.713 158.996C300.216 157.449 300.662 155.696 299.822 154.45L298.977 153.203C298.977 153.203 295.56 151.771 294.571 150.725C293.582 149.679 295.008 150.157 296.625 150.797C298.243 151.437 301.742 153.523 301.992 152.817C302.241 152.11 301.094 148.519 300.441 147.43C299.789 146.341 294.806 147.306 294.24 146.871C293.673 146.437 296.366 144.904 297.225 144.961C298.085 145.018 299.145 145.224 299.145 145.224C299.145 145.224 299.222 143.185 296.429 141.341C293.635 139.498 293.112 142.115 293.112 142.115Z" fill="#263238"/>
<path d="M291.801 157.912C290.985 155.209 289.997 151.379 290.064 148.772" stroke="#263238" stroke-linecap="round" stroke-linejoin="round"/>
<path d="M292.858 161.111C292.858 161.111 292.589 160.381 292.219 159.235" stroke="#263238" stroke-linecap="round" stroke-linejoin="round"/>
<path d="M291.168 148.123C291.168 148.123 295.752 148.041 299.213 149.794" stroke="#263238" stroke-linecap="round" stroke-linejoin="round"/>
<path d="M291.312 151.828C291.312 151.828 291.37 150.978 295.152 153.877" stroke="#263238" stroke-linecap="round" stroke-linejoin="round"/>
<path d="M288.739 147.76C288.739 147.76 288.48 145.759 285.816 144.918" stroke="#263238" stroke-linecap="round" stroke-linejoin="round"/>
<path d="M289.464 150.716L287.223 150.496" stroke="#263238" stroke-linecap="round" stroke-linejoin="round"/>
<path d="M289.853 153.71C289.853 153.71 285.778 155.085 284.467 156.776" stroke="#263238" stroke-linecap="round" stroke-linejoin="round"/>
<path d="M265.92 163.604C265.92 163.604 278.813 172.085 278.592 204.911" stroke="#263238" stroke-width="2" stroke-linecap="round" stroke-linejoin="round"/>
<path d="M281.818 161.365C281.818 161.365 281.405 165.08 278.458 165.027C275.511 164.975 274.109 159.975 271.027 160.897C267.946 161.818 267.211 167.105 267.211 167.105C267.211 167.105 270.24 165.018 271.675 166.312C273.111 167.606 272.602 169.382 271.8 169.029C270.999 168.676 266.635 167.329 266.208 170.657C266.069 171.605 266.125 172.57 266.373 173.495C266.62 174.421 267.054 175.286 267.648 176.039C267.648 176.039 271.296 170.419 273.509 171.675C275.722 172.93 271.445 173.523 269.583 175.557C267.72 177.591 266.458 179.793 267.869 180.7C269.059 181.573 270.156 182.565 271.143 183.661C271.143 183.661 270.994 180.552 273.063 178.317C275.131 176.082 276.538 177.362 274.68 179.406C272.823 181.45 273.375 184.917 273.375 184.917C273.375 184.917 278.304 185.662 281.967 184.516C285.629 183.369 285.759 182.004 284.717 180.695C283.675 179.387 279.869 177.419 281.17 175.996C282.471 174.573 284.827 183.026 286.709 181.383C288.591 179.74 289.272 177.758 288.418 176.24L287.52 174.721C287.52 174.721 283.714 172.759 282.672 171.445C281.631 170.132 283.229 170.834 285.034 171.722C286.839 172.611 290.683 175.352 291.034 174.554C291.384 173.757 290.4 169.526 289.771 168.193C289.143 166.861 283.282 167.525 282.667 166.971C282.053 166.417 285.312 164.898 286.296 165.061C287.029 165.182 287.755 165.341 288.471 165.538C288.471 165.538 288.749 163.189 285.701 160.801C282.653 158.413 281.818 161.365 281.818 161.365Z" fill="white"/>
<path opacity="0.3" d="M281.818 161.365C281.818 161.365 281.405 165.08 278.458 165.027C275.511 164.975 274.109 159.975 271.027 160.897C267.946 161.818 267.211 167.105 267.211 167.105C267.211 167.105 270.24 165.018 271.675 166.312C273.111 167.606 272.602 169.382 271.8 169.029C270.999 168.676 266.635 167.329 266.208 170.657C266.069 171.605 266.125 172.57 266.373 173.495C266.62 174.421 267.054 175.286 267.648 176.039C267.648 176.039 271.296 170.419 273.509 171.675C275.722 172.93 271.445 173.523 269.583 175.557C267.72 177.591 266.458 179.793 267.869 180.7C269.059 181.573 270.156 182.565 271.143 183.661C271.143 183.661 270.994 180.552 273.063 178.317C275.131 176.082 276.538 177.362 274.68 179.406C272.823 181.45 273.375 184.917 273.375 184.917C273.375 184.917 278.304 185.662 281.967 184.516C285.629 183.369 285.759 182.004 284.717 180.695C283.675 179.387 279.869 177.419 281.17 175.996C282.471 174.573 284.827 183.026 286.709 181.383C288.591 179.74 289.272 177.758 288.418 176.24L287.52 174.721C287.52 174.721 283.714 172.759 282.672 171.445C281.631 170.132 283.229 170.834 285.034 171.722C286.839 172.611 290.683 175.352 291.034 174.554C291.384 173.757 290.4 169.526 289.771 168.193C289.143 166.861 283.282 167.525 282.667 166.971C282.053 166.417 285.312 164.898 286.296 165.061C287.029 165.182 287.755 165.341 288.471 165.538C288.471 165.538 288.749 163.189 285.701 160.801C282.653 158.413 281.818 161.365 281.818 161.365Z" fill="#263238"/>
<path d="M278.813 179.468C278.121 176.278 277.349 171.765 277.665 168.762" stroke="#263238" stroke-linecap="round" stroke-linejoin="round"/>
<path d="M279.725 183.26C279.725 183.26 279.485 182.391 279.163 181.034" stroke="#263238" stroke-linecap="round" stroke-linejoin="round"/>
<path d="M279.005 168.093C279.005 168.093 284.285 168.432 288.125 170.782" stroke="#263238" stroke-linecap="round" stroke-linejoin="round"/>
<path d="M278.818 172.391C278.818 172.391 278.967 171.436 283.056 175.113" stroke="#263238" stroke-linecap="round" stroke-linejoin="round"/>
<path d="M276.235 167.467C276.235 167.467 276.125 165.137 273.134 163.915" stroke="#263238" stroke-linecap="round" stroke-linejoin="round"/>
<path d="M276.792 170.944L274.229 170.481" stroke="#263238" stroke-linecap="round" stroke-linejoin="round"/>
<path d="M276.96 174.44C276.96 174.44 272.126 175.638 270.451 177.467" stroke="#263238" stroke-linecap="round" stroke-linejoin="round"/>
<path d="M270.946 189.477C270.946 189.477 279.25 195.781 280.123 205.131L278.4 173.824" stroke="#263238" stroke-width="2" stroke-linecap="round" stroke-linejoin="round"/>
<path d="M291.048 184.912C280.123 182.954 280.123 205.131 280.123 205.131" stroke="#263238" stroke-width="2" stroke-linecap="round" stroke-linejoin="round"/>
<path d="M281.434 204.911C281.434 204.911 275.098 159.039 293.434 159.039" stroke="#263238" stroke-width="2" stroke-linecap="round" stroke-linejoin="round"/>
<path d="M286.887 183.589C285.394 181.923 282.221 181.923 280.359 186.192C278.496 190.461 280.172 189.716 280.172 189.716C280.172 189.716 283.714 188.603 285.931 187.858C288.149 187.113 291.154 185.261 291.341 186.378C291.528 187.495 289.848 188.603 287.794 188.976C285.74 189.348 280.335 190.829 280.892 191.946C281.448 193.064 282.759 196.397 282.759 196.397C284.353 195.051 286.036 193.812 287.794 192.686C290.223 191.201 291.716 191.76 290.41 193.426C289.104 195.093 285.37 196.955 286.119 199.181C286.868 201.406 291.36 204.195 291.36 204.195C291.36 204.195 291.917 199.553 293.227 198.068C294.538 196.583 294.533 198.254 294.159 200.852C293.971 201.959 293.846 203.075 293.784 204.195L299.007 206.048C299.861 204.754 300.795 203.515 301.805 202.337L302.765 201.411C302.765 201.411 298.661 197.882 298.474 195.68C298.287 193.479 301.272 195.68 302.203 196.053C303.135 196.425 304.627 199.018 304.627 199.018C304.627 199.018 305.563 194.754 305.751 193.288L305.938 191.803C305.938 191.803 302.016 190.318 300.523 190.318C299.031 190.318 298.287 191.43 298.287 189.945C298.287 188.46 299.779 187.534 301.459 187.72C302.98 187.97 304.478 188.342 305.938 188.833C305.938 188.833 307.056 187.901 306.682 185.117C306.307 182.333 305.376 182.333 303.139 183.078C300.903 183.823 299.405 185.466 297.725 185.466C296.045 185.466 296.981 183.427 298.099 182.868C299.218 182.309 302.016 181.197 302.578 181.01C303.139 180.824 299.592 178.226 297.725 177.859C295.858 177.491 293.444 178.814 293.621 180.643C293.976 184.52 288.379 185.284 286.887 183.589Z" fill="white"/>
<path d="M298.896 202.7C298.954 203.259 298.992 203.822 299.012 204.381" stroke="#263238" stroke-linecap="round" stroke-linejoin="round"/>
<path d="M295.147 189.377C296.787 193.054 297.967 196.918 298.661 200.881" stroke="#263238" stroke-linecap="round" stroke-linejoin="round"/>
<path d="M294.475 187.887C293.553 185.91 292.857 184.707 292.857 184.707C293.866 184.223 294.703 183.445 295.257 182.476C295.695 181.598 296.334 180.836 297.125 180.251" stroke="#263238" stroke-linecap="round" stroke-linejoin="round"/>
<path d="M286.325 191.015C286.325 191.015 293.045 188.231 293.045 188.79" stroke="#263238" stroke-linecap="round" stroke-linejoin="round"/>
<path d="M296.774 187.491C296.774 187.491 299.76 186.005 302.371 186.005" stroke="#263238" stroke-linecap="round" stroke-linejoin="round"/>
<path d="M295.68 191.97C294.386 193.028 293.198 194.208 292.133 195.494C291.043 196.773 290.162 198.213 289.521 199.763" stroke="#263238" stroke-linecap="round" stroke-linejoin="round"/>
<path d="M297.706 192.686C297.706 192.686 301.627 191.574 303.677 193.426" stroke="#263238" stroke-linecap="round" stroke-linejoin="round"/>
<path d="M304.8 167.615C302.77 166.422 300.523 166.393 299.419 165.132C298.315 163.872 300.48 163.222 301.637 163.7C302.794 164.177 305.477 165.548 305.981 165.849C306.485 166.149 306.139 161.78 305.199 160.118C304.258 158.456 301.68 157.516 300.399 158.857C297.687 161.694 293.453 157.974 293.741 155.758C294.029 153.542 291.951 151.16 287.501 152.559C283.051 153.958 284.703 154.727 284.703 154.727C284.703 154.727 287.871 156.661 289.906 157.859C291.941 159.058 295.301 160.08 294.576 160.949C293.851 161.818 291.907 161.288 290.28 159.994C288.653 158.7 283.983 155.605 283.503 156.756C283.023 157.907 281.343 161.054 281.343 161.054C283.41 161.369 285.455 161.821 287.463 162.406C290.179 163.251 290.736 164.736 288.615 164.851C286.493 164.965 282.634 163.38 281.415 165.4C280.195 167.42 281.035 172.611 281.035 172.611C281.035 172.611 284.923 169.989 286.906 169.998C288.888 170.008 287.621 171.102 285.403 172.525C284.443 173.111 283.515 173.748 282.624 174.435L284.64 179.578C286.182 179.37 287.736 179.26 289.291 179.248L290.607 179.339C290.607 179.339 290.607 173.943 292.162 172.343C293.717 170.743 293.995 174.444 294.327 175.39C294.658 176.335 293.664 179.158 293.664 179.158C293.664 179.158 297.504 177.061 298.762 176.23L300.015 175.395C300.015 175.395 298.575 171.479 297.615 170.357C296.655 169.234 295.306 169.401 296.429 168.446C297.552 167.491 299.242 167.969 300.202 169.368C301.006 170.675 301.704 172.044 302.29 173.461C302.29 173.461 303.73 173.695 305.597 171.589C307.464 169.483 306.835 168.805 304.8 167.615ZM287.146 173.556C285.653 172.816 289.195 171.331 289.195 171.331C290.506 171.135 288.639 174.301 287.151 173.547L287.146 173.556ZM289.656 166.627C289.023 166.312 290.928 165.672 290.928 165.672C293.693 166.183 290.299 166.937 289.661 166.617L289.656 166.627Z" fill="white"/>
<path d="M287.107 177.329C286.72 177.739 286.322 178.136 285.912 178.518" stroke="#263238" stroke-linecap="round" stroke-linejoin="round"/>
<path d="M294.763 165.777C293.049 169.42 290.89 172.84 288.336 175.958" stroke="#263238" stroke-linecap="round" stroke-linejoin="round"/>
<path d="M295.455 164.297C296.352 162.305 296.808 160.992 296.808 160.992C297.839 161.445 298.985 161.572 300.091 161.355C301.044 161.107 302.043 161.088 303.005 161.298" stroke="#263238" stroke-linecap="round" stroke-linejoin="round"/>
<path d="M293.832 163.795C294.254 163.432 287.741 160.209 287.741 160.209" stroke="#263238" stroke-linecap="round" stroke-linejoin="round"/>
<path d="M297.264 165.763C297.264 165.763 300.351 167.033 302.064 168.996" stroke="#263238" stroke-linecap="round" stroke-linejoin="round"/>
<path d="M293.151 167.84C291.498 167.564 289.824 167.448 288.149 167.491C286.466 167.51 284.796 167.792 283.2 168.327" stroke="#263238" stroke-linecap="round" stroke-linejoin="round"/>
<path d="M293.933 169.87C293.933 169.87 297.345 172.085 297.293 174.841" stroke="#263238" stroke-linecap="round" stroke-linejoin="round"/>
<path d="M275.813 193.326C274.181 192.371 272.371 192.342 271.493 191.325C270.615 190.308 272.343 189.797 273.274 190.184C274.205 190.571 276.36 191.669 276.773 191.908C277.186 192.147 276.898 188.637 276.139 187.314C275.381 185.991 273.307 185.218 272.299 186.302C270.115 188.579 266.707 185.59 266.943 183.804C267.178 182.018 265.503 180.103 261.907 181.23C258.312 182.357 259.656 182.978 259.656 182.978C259.656 182.978 262.205 184.535 263.842 185.495C265.479 186.454 268.162 187.281 267.6 187.983C267.039 188.685 265.455 188.255 264.144 187.209C262.834 186.163 259.075 183.675 258.687 184.602C258.298 185.528 256.954 188.083 256.954 188.083C258.618 188.335 260.263 188.698 261.879 189.167C264.063 189.85 264.509 191.048 262.8 191.139C261.091 191.23 258 189.955 257.04 191.578C256.08 193.202 256.738 197.38 256.738 197.38C256.738 197.38 259.867 195.275 261.461 195.279C263.055 195.284 262.037 196.168 260.256 197.314C259.481 197.783 258.733 198.295 258.015 198.847L259.637 202.987C260.878 202.819 262.129 202.729 263.381 202.719L264.442 202.796C264.442 202.796 264.442 198.45 265.695 197.166C266.947 195.881 267.168 198.856 267.432 199.615C267.696 200.375 266.899 202.648 266.899 202.648C266.899 202.648 270 200.962 271.003 200.289L272.011 199.62C272.011 199.62 270.85 196.468 270.063 195.566C269.275 194.663 268.2 194.797 269.103 194.014C270.005 193.231 271.363 193.646 272.136 194.759C272.784 195.811 273.348 196.913 273.821 198.054C273.821 198.054 274.978 198.24 276.48 196.545C277.983 194.85 277.44 194.286 275.813 193.326ZM261.605 198.102C260.405 197.505 263.256 196.311 263.256 196.311C264.307 196.163 262.805 198.703 261.6 198.106L261.605 198.102ZM263.631 192.524C263.117 192.271 264.653 191.76 264.653 191.76C266.88 192.19 264.139 192.787 263.631 192.529V192.524Z" fill="white"/>
<path d="M261.6 201.148C261.288 201.478 260.967 201.798 260.64 202.103" stroke="#263238" stroke-linecap="round" stroke-linejoin="round"/>
<path d="M267.734 191.855C266.352 194.785 264.614 197.536 262.56 200.045" stroke="#263238" stroke-linecap="round" stroke-linejoin="round"/>
<path d="M268.291 190.661C269.011 189.062 269.381 188.002 269.381 188.002C270.21 188.366 271.131 188.467 272.021 188.293C272.787 188.094 273.589 188.078 274.363 188.245" stroke="#263238" stroke-linecap="round" stroke-linejoin="round"/>
<path d="M262.08 187.386C262.08 187.386 267.326 189.979 266.986 190.251" stroke="#263238" stroke-linecap="round" stroke-linejoin="round"/>
<path d="M269.76 191.841C269.76 191.841 272.242 192.863 273.6 194.439" stroke="#263238" stroke-linecap="round" stroke-linejoin="round"/>
<path d="M266.434 193.512C265.105 193.289 263.758 193.194 262.411 193.231C261.056 193.246 259.712 193.474 258.427 193.904" stroke="#263238" stroke-linecap="round" stroke-linejoin="round"/>
<path d="M267.062 195.146C267.062 195.146 269.813 196.927 269.76 199.147" stroke="#263238" stroke-linecap="round" stroke-linejoin="round"/>
<path d="M269.15 162.678C269.15 162.678 267.096 164.163 265.79 162.678C264.485 161.193 266.352 158.222 264.48 157.11C262.608 155.997 259.632 158.036 259.632 158.036C259.632 158.036 262.056 158.595 262.056 159.894C262.056 161.193 260.938 161.747 260.75 161.193C260.563 160.639 259.258 157.85 257.39 159.149C256.852 159.51 256.393 159.976 256.04 160.518C255.688 161.061 255.45 161.669 255.341 162.305C255.341 162.305 259.814 161.56 260.189 163.232C260.563 164.903 258.322 163.046 256.459 163.046C254.597 163.046 252.912 163.418 253.099 164.531C253.201 165.518 253.201 166.513 253.099 167.501C254.066 166.601 255.324 166.074 256.646 166.016C258.696 166.016 258.696 167.315 256.834 167.315C254.971 167.315 253.474 169.172 253.474 169.172C253.474 169.172 255.341 171.956 257.578 173.255C259.814 174.554 260.563 174 260.75 172.883C260.938 171.765 260.189 168.986 261.494 168.986C262.8 168.986 259.632 174 261.307 174.182C262.982 174.363 264.293 173.814 264.667 172.697L265.042 171.584C265.042 171.584 264.293 168.8 264.48 167.687C264.667 166.575 265.042 167.687 265.411 168.986C265.781 170.285 266.16 173.442 266.717 173.255C267.274 173.069 268.958 170.657 269.333 169.731C269.707 168.805 266.717 166.202 266.717 165.648C266.717 165.094 268.958 166.016 269.333 166.575C269.603 166.995 269.851 167.428 270.077 167.873C270.077 167.873 271.382 166.947 271.195 164.344C271.008 161.742 269.15 162.678 269.15 162.678Z" fill="white"/>
<path d="M258.72 169.406C260.011 167.616 261.922 165.18 263.578 163.977" stroke="#263238" stroke-linecap="round" stroke-linejoin="round"/>
<path d="M257.208 171.584C257.208 171.584 257.539 171.068 258.072 170.295" stroke="#263238" stroke-linecap="round" stroke-linejoin="round"/>
<path d="M264.48 164.344C264.48 164.344 266.717 167.129 267.278 170.099" stroke="#263238" stroke-linecap="round" stroke-linejoin="round"/>
<path d="M262.248 166.183C262.248 166.183 262.805 165.811 262.805 169.526" stroke="#263238" stroke-linecap="round" stroke-linejoin="round"/>
<path d="M263.554 162.678C263.554 162.678 264.672 161.56 263.923 159.521" stroke="#263238" stroke-linecap="round" stroke-linejoin="round"/>
<path d="M262.061 164.531L261.125 163.045" stroke="#263238" stroke-linecap="round" stroke-linejoin="round"/>
<path d="M260.381 166.183C260.381 166.183 257.582 164.325 255.902 164.325" stroke="#263238" stroke-linecap="round" stroke-linejoin="round"/>
<path d="M287.99 204.257H273.566V224.91H287.99V204.257Z" fill="#263238" stroke="#263238" stroke-width="2" stroke-linecap="round" stroke-linejoin="round"/>
<path d="M158.074 45.5476C158.074 45.5476 158.247 39.4447 158.031 34.1966C157.814 28.9484 158.252 17.6976 158.252 17.6976" stroke="#263238" stroke-miterlimit="10"/>
<path d="M158.151 24.3163L155.755 22.4396" stroke="#263238" stroke-miterlimit="10"/>
<path d="M158.122 25.6055L158.976 24.235" stroke="#263238" stroke-miterlimit="10"/>
<path d="M157.93 31.0352L160.056 29.2826" stroke="#263238" stroke-miterlimit="10"/>
<path d="M158.251 20.0041L157.128 18.9869" stroke="#263238" stroke-miterlimit="10"/>
<path d="M157.91 31.9855L156.504 30.4861" stroke="#263238" stroke-miterlimit="10"/>
<path d="M158.031 37.8784L155.107 35.2233" stroke="#263238" stroke-miterlimit="10"/>
<path d="M158.107 41.1495C158.852 40.8621 159.577 40.5254 160.277 40.1418" stroke="#263238" stroke-miterlimit="10"/>
<path d="M156.48 25.257C155.304 24.3545 151.359 24.512 150.6 26.3888C149.842 28.2655 152.256 31.3265 154.56 31.1116C155.467 31.0257 155.861 30.9636 156.216 30.4574L152.976 27.3056L156.485 30.1136C156.584 29.9308 156.664 29.7389 156.725 29.5405C156.763 29.402 156.802 29.2492 156.831 29.0916C157.075 27.9694 157.589 26.1022 156.48 25.257Z" fill="white"/>
<path d="M164.117 23.0793V23.1462C163.8 24.5454 162.197 25.3381 160.839 25.2187C160.65 25.2028 160.464 25.1692 160.282 25.1184C159.964 25.6184 159.768 26.1849 159.708 26.7732C159.648 27.3616 159.726 27.9557 159.936 28.5089C159.993 28.6671 160.069 28.8178 160.162 28.9578C160.56 28.6331 164.823 25.0134 164.823 25.0134L160.397 29.2539C161.732 30.6865 164.861 30.4812 165.951 27.8499C167.04 25.2187 165.653 23.4566 164.117 23.0793Z" fill="white"/>
<path d="M161.947 18.1847C159.653 17.7072 157.598 18.7196 157.627 21.1025C157.64 21.6278 157.761 22.145 157.982 22.6222C158.203 23.0993 158.52 23.5264 158.914 23.877L161.28 20.6679L159.293 24.1683C159.738 24.4704 160.254 24.6545 160.79 24.7031C162.144 24.8177 163.752 24.025 164.069 22.6258C164.4 21.0643 164.242 18.6862 161.947 18.1847Z" fill="white"/>
<path d="M159.269 9.89941C159.269 9.89941 159.034 9.97105 157.565 10.6826C156.705 11.1543 156.068 11.9455 155.792 12.8833C155.517 13.8211 155.626 14.8292 156.096 15.6872C156.503 16.4887 157.207 17.1017 158.059 17.3967L158.65 11.7188L158.4 17.4732C158.512 17.4846 158.624 17.4846 158.736 17.4732C159.696 17.3776 161.198 16.2411 161.342 13.9155C161.486 11.5899 159.269 9.89941 159.269 9.89941Z" fill="white"/>
<path d="M152.563 15.0616L156.994 18.5859C157.038 18.4307 157.052 18.2688 157.037 18.1083C156.831 16.0931 154.81 14.9232 153.475 14.5029C152.141 14.0827 151.215 14.8324 152.074 16.7617C152.933 18.6909 155.184 19.6269 156.187 19.3356C156.426 19.2772 156.64 19.1471 156.802 18.9631L152.563 15.0616Z" fill="white"/>
<path d="M155.611 19.5791C154.932 19.5304 154.273 19.3288 153.683 18.9897C153.094 18.6505 152.589 18.1826 152.208 17.6212C151.737 17.5768 151.268 17.7173 150.9 18.0127C150.532 18.3081 150.295 18.7349 150.24 19.2019C149.789 21.303 151.315 23.4997 153.518 23.2323C154.21 23.1964 154.867 22.9171 155.371 22.4443L151.435 18.8676L155.649 22.0623C155.732 21.9149 155.784 21.7525 155.803 21.5848C155.939 20.912 155.872 20.2142 155.611 19.5791V19.5791Z" fill="white"/>
<path d="M155.587 31.2644C155.229 31.4169 154.848 31.5074 154.459 31.5318C153.019 31.6656 151.551 30.5433 150.821 29.2253C150.392 29.2542 149.986 29.4251 149.667 29.7108C149.347 29.9964 149.134 30.3804 149.059 30.8012C148.623 33.2605 150.912 36.503 153.226 35.9873C153.827 35.8708 154.384 35.5896 154.834 35.1755L149.784 30.3428L155.127 34.8603C155.432 34.4706 155.629 34.0078 155.698 33.5184C155.951 32.7805 155.911 31.9743 155.587 31.2644Z" fill="white"/>
<path d="M165.749 36.2929C164.05 34.335 162.029 36.0876 162.029 36.0876C162.029 36.0876 160.791 36.4935 160.32 38.2412C160.176 38.7715 160.198 39.3329 160.383 39.8505L165.49 36.8898L160.507 40.1275C160.987 41.0062 161.986 41.5601 163.387 41.1542C165.624 40.543 167.443 38.2651 165.749 36.2929Z" fill="white"/>
<path d="M161.515 43.7042H154.445V54.1193H161.515V43.7042Z" fill="#263238"/>
<path d="M239.554 54.0333H146.299V225.579H239.554V54.0333Z" fill="white" stroke="#263238" stroke-miterlimit="10"/>
<path d="M226.401 56.2061H148.238V222.967H226.401V56.2061Z" fill="#263238" stroke="#263238" stroke-linecap="round" stroke-linejoin="round"/>
<path d="M226.401 82.0695H148.238V84.5288H226.401V82.0695Z" fill="white" stroke="#263238" stroke-miterlimit="10"/>
<path d="M226.401 110.502H148.238V112.961H226.401V110.502Z" fill="white" stroke="#263238" stroke-miterlimit="10"/>
<path d="M201.211 56.2347H199.55V82.0647H201.211V56.2347Z" fill="white" stroke="#263238" stroke-miterlimit="10"/>
<path d="M174.638 56.2347H172.978V82.0647H174.638V56.2347Z" fill="white" stroke="#263238" stroke-miterlimit="10"/>
<path d="M201.211 112.99H199.55V138.82H201.211V112.99Z" fill="white" stroke="#263238" stroke-miterlimit="10"/>
<path d="M174.638 112.99H172.978V138.82H174.638V112.99Z" fill="white" stroke="#263238" stroke-miterlimit="10"/>
<path d="M187.795 84.6672H186.134V110.497H187.795V84.6672Z" fill="white" stroke="#263238" stroke-miterlimit="10"/>
<path d="M226.401 138.825H148.238V141.284H226.401V138.825Z" fill="white" stroke="#263238" stroke-miterlimit="10"/>
<path d="M226.401 167.162H148.238V223.836H226.401V167.162Z" fill="white" stroke="#263238" stroke-miterlimit="10"/>
<path d="M187.795 141.327H186.134V167.157H187.795V141.327Z" fill="white" stroke="#263238" stroke-miterlimit="10"/>
<path d="M228.317 54.0189V225.541L239.558 225.579V54.0189H228.317Z" fill="#263238" stroke="#263238" stroke-linecap="round" stroke-linejoin="round"/>
<path d="M206.376 58.2404H202.363V82.0074H206.376V58.2404Z" fill="white" stroke="#263238" stroke-miterlimit="10"/>
<path d="M206.376 76.9025H202.363V78.8508H206.376V76.9025Z" fill="white" stroke="#263238" stroke-miterlimit="10"/>
<path d="M206.376 60.6519H202.363V62.6002H206.376V60.6519Z" fill="white" stroke="#263238" stroke-miterlimit="10"/>
<path d="M210.48 58.2404H206.467V82.0074H210.48V58.2404Z" fill="white" stroke="#263238" stroke-miterlimit="10"/>
<path d="M210.48 76.9025H206.467V78.8508H210.48V76.9025Z" fill="white" stroke="#263238" stroke-miterlimit="10"/>
<path d="M210.48 60.6519H206.467V62.6002H210.48V60.6519Z" fill="white" stroke="#263238" stroke-miterlimit="10"/>
<path d="M214.589 58.2404H210.576V82.0074H214.589V58.2404Z" fill="white" stroke="#263238" stroke-miterlimit="10"/>
<path d="M214.589 76.9025H210.576V78.8508H214.589V76.9025Z" fill="white" stroke="#263238" stroke-miterlimit="10"/>
<path d="M214.589 60.6519H210.576V62.6002H214.589V60.6519Z" fill="white" stroke="#263238" stroke-miterlimit="10"/>
<path d="M218.693 58.2404H214.68V82.0074H218.693V58.2404Z" fill="white" stroke="#263238" stroke-miterlimit="10"/>
<path d="M225.379 58.2404H218.659V82.0074H225.379V58.2404Z" fill="white" stroke="#263238" stroke-miterlimit="10"/>
<path d="M218.693 76.9025H214.68V78.8508H218.693V76.9025Z" fill="white" stroke="#263238" stroke-miterlimit="10"/>
<path d="M218.693 60.6519H214.68V62.6002H218.693V60.6519Z" fill="white" stroke="#263238" stroke-miterlimit="10"/>
<path d="M179.53 58.2404H175.517V82.0074H179.53V58.2404Z" fill="white" stroke="#263238" stroke-miterlimit="10"/>
<path d="M179.53 76.9025H175.517V78.8508H179.53V76.9025Z" fill="white" stroke="#263238" stroke-miterlimit="10"/>
<path d="M179.53 60.6519H175.517V62.6002H179.53V60.6519Z" fill="white" stroke="#263238" stroke-miterlimit="10"/>
<path d="M183.634 58.2404H179.621V82.0074H183.634V58.2404Z" fill="white" stroke="#263238" stroke-miterlimit="10"/>
<path d="M183.634 76.9025H179.621V78.8508H183.634V76.9025Z" fill="white" stroke="#263238" stroke-miterlimit="10"/>
<path d="M183.634 60.6519H179.621V62.6002H183.634V60.6519Z" fill="white" stroke="#263238" stroke-miterlimit="10"/>
<path d="M187.742 58.2404H183.729V82.0074H187.742V58.2404Z" fill="white" stroke="#263238" stroke-miterlimit="10"/>
<path d="M187.742 76.9025H183.729V78.8508H187.742V76.9025Z" fill="white" stroke="#263238" stroke-miterlimit="10"/>
<path d="M187.742 60.6519H183.729V62.6002H187.742V60.6519Z" fill="white" stroke="#263238" stroke-miterlimit="10"/>
<path d="M191.846 58.2404H187.833V82.0074H191.846V58.2404Z" fill="white" stroke="#263238" stroke-miterlimit="10"/>
<path d="M198.533 58.2404H191.813V82.0074H198.533V58.2404Z" fill="white" stroke="#263238" stroke-miterlimit="10"/>
<path d="M191.846 76.9025H187.833V78.8508H191.846V76.9025Z" fill="white" stroke="#263238" stroke-miterlimit="10"/>
<path d="M191.846 60.6519H187.833V62.6002H191.846V60.6519Z" fill="white" stroke="#263238" stroke-miterlimit="10"/>
<path d="M179.53 115.082H175.517V138.849H179.53V115.082Z" fill="white" stroke="#263238" stroke-miterlimit="10"/>
<path d="M179.53 133.744H175.517V135.692H179.53V133.744Z" fill="white" stroke="#263238" stroke-miterlimit="10"/>
<path d="M179.53 117.498H175.517V119.446H179.53V117.498Z" fill="white" stroke="#263238" stroke-miterlimit="10"/>
<path d="M183.634 115.082H179.621V138.849H183.634V115.082Z" fill="white" stroke="#263238" stroke-miterlimit="10"/>
<path d="M183.634 133.744H179.621V135.692H183.634V133.744Z" fill="white" stroke="#263238" stroke-miterlimit="10"/>
<path d="M183.634 117.498H179.621V119.446H183.634V117.498Z" fill="white" stroke="#263238" stroke-miterlimit="10"/>
<path d="M187.742 115.082H183.729V138.849H187.742V115.082Z" fill="white" stroke="#263238" stroke-miterlimit="10"/>
<path d="M187.742 133.744H183.729V135.692H187.742V133.744Z" fill="white" stroke="#263238" stroke-miterlimit="10"/>
<path d="M187.742 117.498H183.729V119.446H187.742V117.498Z" fill="white" stroke="#263238" stroke-miterlimit="10"/>
<path d="M191.846 115.082H187.833V138.849H191.846V115.082Z" fill="white" stroke="#263238" stroke-miterlimit="10"/>
<path d="M198.533 115.082H191.813V138.849H198.533V115.082Z" fill="white" stroke="#263238" stroke-miterlimit="10"/>
<path d="M191.846 133.744H187.833V135.692H191.846V133.744Z" fill="white" stroke="#263238" stroke-miterlimit="10"/>
<path d="M191.846 117.498H187.833V119.446H191.846V117.498Z" fill="white" stroke="#263238" stroke-miterlimit="10"/>
<path d="M206.03 115.082H202.018V138.849H206.03V115.082Z" fill="white" stroke="#263238" stroke-miterlimit="10"/>
<path d="M206.03 133.744H202.018V135.692H206.03V133.744Z" fill="white" stroke="#263238" stroke-miterlimit="10"/>
<path d="M206.03 117.498H202.018V119.446H206.03V117.498Z" fill="white" stroke="#263238" stroke-miterlimit="10"/>
<path d="M210.139 115.082H206.126V138.849H210.139V115.082Z" fill="white" stroke="#263238" stroke-miterlimit="10"/>
<path d="M210.139 133.744H206.126V135.692H210.139V133.744Z" fill="white" stroke="#263238" stroke-miterlimit="10"/>
<path d="M210.139 117.498H206.126V119.446H210.139V117.498Z" fill="white" stroke="#263238" stroke-miterlimit="10"/>
<path d="M214.243 115.082H210.23V138.849H214.243V115.082Z" fill="white" stroke="#263238" stroke-miterlimit="10"/>
<path d="M214.243 133.744H210.23V135.692H214.243V133.744Z" fill="white" stroke="#263238" stroke-miterlimit="10"/>
<path d="M214.243 117.498H210.23V119.446H214.243V117.498Z" fill="white" stroke="#263238" stroke-miterlimit="10"/>
<path d="M218.352 115.082H214.339V138.849H218.352V115.082Z" fill="white" stroke="#263238" stroke-miterlimit="10"/>
<path d="M225.033 115.082H218.313V138.849H225.033V115.082Z" fill="white" stroke="#263238" stroke-miterlimit="10"/>
<path d="M218.352 133.744H214.339V135.692H218.352V133.744Z" fill="white" stroke="#263238" stroke-miterlimit="10"/>
<path d="M218.352 117.498H214.339V119.446H218.352V117.498Z" fill="white" stroke="#263238" stroke-miterlimit="10"/>
<path d="M153.197 115.082H149.184V138.849H153.197V115.082Z" fill="white" stroke="#263238" stroke-miterlimit="10"/>
<path d="M153.197 133.744H149.184V135.692H153.197V133.744Z" fill="white" stroke="#263238" stroke-miterlimit="10"/>
<path d="M153.197 117.498H149.184V119.446H153.197V117.498Z" fill="white" stroke="#263238" stroke-miterlimit="10"/>
<path d="M157.306 115.082H153.293V138.849H157.306V115.082Z" fill="white" stroke="#263238" stroke-miterlimit="10"/>
<path d="M157.306 133.744H153.293V135.692H157.306V133.744Z" fill="white" stroke="#263238" stroke-miterlimit="10"/>
<path d="M157.306 117.498H153.293V119.446H157.306V117.498Z" fill="white" stroke="#263238" stroke-miterlimit="10"/>
<path d="M161.41 115.082H157.397V138.849H161.41V115.082Z" fill="white" stroke="#263238" stroke-miterlimit="10"/>
<path d="M161.41 133.744H157.397V135.692H161.41V133.744Z" fill="white" stroke="#263238" stroke-miterlimit="10"/>
<path d="M161.41 117.498H157.397V119.446H161.41V117.498Z" fill="white" stroke="#263238" stroke-miterlimit="10"/>
<path d="M165.519 115.082H161.506V138.849H165.519V115.082Z" fill="white" stroke="#263238" stroke-miterlimit="10"/>
<path d="M172.2 115.082H165.48V138.849H172.2V115.082Z" fill="white" stroke="#263238" stroke-miterlimit="10"/>
<path d="M165.519 133.744H161.506V135.692H165.519V133.744Z" fill="white" stroke="#263238" stroke-miterlimit="10"/>
<path d="M165.519 117.498H161.506V119.446H165.519V117.498Z" fill="white" stroke="#263238" stroke-miterlimit="10"/>
<path d="M152.683 58.2404H148.67V82.0074H152.683V58.2404Z" fill="white" stroke="#263238" stroke-miterlimit="10"/>
<path d="M152.683 76.9025H148.67V78.8508H152.683V76.9025Z" fill="white" stroke="#263238" stroke-miterlimit="10"/>
<path d="M152.683 60.6519H148.67V62.6002H152.683V60.6519Z" fill="white" stroke="#263238" stroke-miterlimit="10"/>
<path d="M156.787 58.2404H152.774V82.0074H156.787V58.2404Z" fill="white" stroke="#263238" stroke-miterlimit="10"/>
<path d="M156.787 76.9025H152.774V78.8508H156.787V76.9025Z" fill="white" stroke="#263238" stroke-miterlimit="10"/>
<path d="M156.787 60.6519H152.774V62.6002H156.787V60.6519Z" fill="white" stroke="#263238" stroke-miterlimit="10"/>
<path d="M160.896 58.2404H156.883V82.0074H160.896V58.2404Z" fill="white" stroke="#263238" stroke-miterlimit="10"/>
<path d="M160.896 76.9025H156.883V78.8508H160.896V76.9025Z" fill="white" stroke="#263238" stroke-miterlimit="10"/>
<path d="M160.896 60.6519H156.883V62.6002H160.896V60.6519Z" fill="white" stroke="#263238" stroke-miterlimit="10"/>
<path d="M165 58.2404H160.987V82.0074H165V58.2404Z" fill="white" stroke="#263238" stroke-miterlimit="10"/>
<path d="M171.686 58.2404H164.966V82.0074H171.686V58.2404Z" fill="white" stroke="#263238" stroke-miterlimit="10"/>
<path d="M165 76.9025H160.987V78.8508H165V76.9025Z" fill="white" stroke="#263238" stroke-miterlimit="10"/>
<path d="M165 60.6519H160.987V62.6002H165V60.6519Z" fill="white" stroke="#263238" stroke-miterlimit="10"/>
<path d="M164.559 86.5631H160.546V110.33H164.559V86.5631Z" fill="white" stroke="#263238" stroke-miterlimit="10"/>
<path d="M164.559 105.225H160.546V107.174H164.559V105.225Z" fill="white" stroke="#263238" stroke-miterlimit="10"/>
<path d="M164.559 88.9794H160.546V90.9277H164.559V88.9794Z" fill="white" stroke="#263238" stroke-miterlimit="10"/>
<path d="M160.599 86.5631H156.586V110.33H160.599V86.5631Z" fill="white" stroke="#263238" stroke-miterlimit="10"/>
<path d="M160.599 105.225H156.586V107.174H160.599V105.225Z" fill="white" stroke="#263238" stroke-miterlimit="10"/>
<path d="M160.599 88.9794H156.586V90.9277H160.599V88.9794Z" fill="white" stroke="#263238" stroke-miterlimit="10"/>
<path d="M156.638 86.5631H152.625V110.33H156.638V86.5631Z" fill="white" stroke="#263238" stroke-miterlimit="10"/>
<path d="M156.638 105.225H152.625V107.174H156.638V105.225Z" fill="white" stroke="#263238" stroke-miterlimit="10"/>
<path d="M156.638 88.9794H152.625V90.9277H156.638V88.9794Z" fill="white" stroke="#263238" stroke-miterlimit="10"/>
<path d="M152.683 86.5631H148.67V110.33H152.683V86.5631Z" fill="white" stroke="#263238" stroke-miterlimit="10"/>
<path d="M152.683 105.225H148.67V107.174H152.683V105.225Z" fill="white" stroke="#263238" stroke-miterlimit="10"/>
<path d="M152.683 88.9795H148.67V90.9278H152.683V88.9795Z" fill="white" stroke="#263238" stroke-miterlimit="10"/>
<path d="M168.663 86.5631H164.65V110.33H168.663V86.5631Z" fill="white" stroke="#263238" stroke-miterlimit="10"/>
<path d="M168.663 105.225H164.65V107.174H168.663V105.225Z" fill="white" stroke="#263238" stroke-miterlimit="10"/>
<path d="M168.663 88.9794H164.65V90.9277H168.663V88.9794Z" fill="white" stroke="#263238" stroke-miterlimit="10"/>
<path d="M172.767 86.5631H168.754V110.33H172.767V86.5631Z" fill="white" stroke="#263238" stroke-miterlimit="10"/>
<path d="M172.767 105.225H168.754V107.174H172.767V105.225Z" fill="white" stroke="#263238" stroke-miterlimit="10"/>
<path d="M172.767 88.9794H168.754V90.9277H172.767V88.9794Z" fill="white" stroke="#263238" stroke-miterlimit="10"/>
<path d="M176.875 86.5631H172.862V110.33H176.875V86.5631Z" fill="white" stroke="#263238" stroke-miterlimit="10"/>
<path d="M183.562 86.5631H176.842V110.33H183.562V86.5631Z" fill="white" stroke="#263238" stroke-miterlimit="10"/>
<path d="M176.875 105.225H172.862V107.174H176.875V105.225Z" fill="white" stroke="#263238" stroke-miterlimit="10"/>
<path d="M176.875 88.9794H172.862V90.9277H176.875V88.9794Z" fill="white" stroke="#263238" stroke-miterlimit="10"/>
<path d="M193.089 86.5631H189.077V110.33H193.089V86.5631Z" fill="white" stroke="#263238" stroke-miterlimit="10"/>
<path d="M193.089 105.225H189.077V107.174H193.089V105.225Z" fill="white" stroke="#263238" stroke-miterlimit="10"/>
<path d="M193.089 88.9794H189.077V90.9277H193.089V88.9794Z" fill="white" stroke="#263238" stroke-miterlimit="10"/>
<path d="M197.198 86.5631H193.186V110.33H197.198V86.5631Z" fill="white" stroke="#263238" stroke-miterlimit="10"/>
<path d="M197.198 105.225H193.186V107.174H197.198V105.225Z" fill="white" stroke="#263238" stroke-miterlimit="10"/>
<path d="M197.198 88.9794H193.186V90.9277H197.198V88.9794Z" fill="white" stroke="#263238" stroke-miterlimit="10"/>
<path d="M205.414 86.5573L201.673 88.1287L211.081 110.297L214.822 108.725L205.414 86.5573Z" fill="white" stroke="#263238" stroke-miterlimit="10"/>
<path d="M212.802 103.962L209.061 105.533L209.832 107.35L213.573 105.779L212.802 103.962Z" fill="white" stroke="#263238" stroke-miterlimit="10"/>
<path d="M206.372 88.8102L202.631 90.3816L203.402 92.1985L207.143 90.6271L206.372 88.8102Z" fill="white" stroke="#263238" stroke-miterlimit="10"/>
<path d="M211.085 110.287H219.461L223.229 108.726L214.824 108.716L211.085 110.287Z" fill="white" stroke="#263238" stroke-miterlimit="10"/>
<path d="M205.416 86.5488H213.283L223.229 108.726L214.824 108.716L205.416 86.5488Z" fill="white" stroke="#263238" stroke-miterlimit="10"/>
<path d="M201.158 86.5631H197.146V110.33H201.158V86.5631Z" fill="white" stroke="#263238" stroke-miterlimit="10"/>
<path d="M201.158 105.225H197.146V107.174H201.158V105.225Z" fill="white" stroke="#263238" stroke-miterlimit="10"/>
<path d="M201.158 88.9794H197.146V90.9277H201.158V88.9794Z" fill="white" stroke="#263238" stroke-miterlimit="10"/>
<path d="M201.159 86.5631H205.416L201.672 88.1199L211.085 110.287H201.159V86.5631Z" fill="white" stroke="#263238" stroke-miterlimit="10"/>
<path d="M164.559 143.304H160.546V167.071H164.559V143.304Z" fill="white" stroke="#263238" stroke-miterlimit="10"/>
<path d="M164.559 161.966H160.546V163.915H164.559V161.966Z" fill="white" stroke="#263238" stroke-miterlimit="10"/>
<path d="M164.559 145.716H160.546V147.664H164.559V145.716Z" fill="white" stroke="#263238" stroke-miterlimit="10"/>
<path d="M160.599 143.304H156.586V167.071H160.599V143.304Z" fill="white" stroke="#263238" stroke-miterlimit="10"/>
<path d="M160.599 161.966H156.586V163.915H160.599V161.966Z" fill="white" stroke="#263238" stroke-miterlimit="10"/>
<path d="M160.599 145.716H156.586V147.664H160.599V145.716Z" fill="white" stroke="#263238" stroke-miterlimit="10"/>
<path d="M156.638 143.304H152.625V167.071H156.638V143.304Z" fill="white" stroke="#263238" stroke-miterlimit="10"/>
<path d="M156.638 161.966H152.625V163.915H156.638V161.966Z" fill="white" stroke="#263238" stroke-miterlimit="10"/>
<path d="M156.638 145.716H152.625V147.664H156.638V145.716Z" fill="white" stroke="#263238" stroke-miterlimit="10"/>
<path d="M152.683 143.304H148.67V167.071H152.683V143.304Z" fill="white" stroke="#263238" stroke-miterlimit="10"/>
<path d="M152.683 161.966H148.67V163.915H152.683V161.966Z" fill="white" stroke="#263238" stroke-miterlimit="10"/>
<path d="M152.683 145.716H148.67V147.664H152.683V145.716Z" fill="white" stroke="#263238" stroke-miterlimit="10"/>
<path d="M168.663 143.304H164.65V167.071H168.663V143.304Z" fill="white" stroke="#263238" stroke-miterlimit="10"/>
<path d="M168.663 161.966H164.65V163.915H168.663V161.966Z" fill="white" stroke="#263238" stroke-miterlimit="10"/>
<path d="M168.663 145.716H164.65V147.664H168.663V145.716Z" fill="white" stroke="#263238" stroke-miterlimit="10"/>
<path d="M172.767 143.304H168.754V167.071H172.767V143.304Z" fill="white" stroke="#263238" stroke-miterlimit="10"/>
<path d="M172.767 161.966H168.754V163.915H172.767V161.966Z" fill="white" stroke="#263238" stroke-miterlimit="10"/>
<path d="M172.767 145.716H168.754V147.664H172.767V145.716Z" fill="white" stroke="#263238" stroke-miterlimit="10"/>
<path d="M176.875 143.304H172.862V167.071H176.875V143.304Z" fill="white" stroke="#263238" stroke-miterlimit="10"/>
<path d="M183.562 143.304H176.842V167.071H183.562V143.304Z" fill="white" stroke="#263238" stroke-miterlimit="10"/>
<path d="M176.875 161.966H172.862V163.915H176.875V161.966Z" fill="white" stroke="#263238" stroke-miterlimit="10"/>
<path d="M176.875 145.716H172.862V147.664H176.875V145.716Z" fill="white" stroke="#263238" stroke-miterlimit="10"/>
<path d="M193.089 143.304H189.077V167.071H193.089V143.304Z" fill="white" stroke="#263238" stroke-miterlimit="10"/>
<path d="M193.089 161.966H189.077V163.915H193.089V161.966Z" fill="white" stroke="#263238" stroke-miterlimit="10"/>
<path d="M193.089 145.716H189.077V147.664H193.089V145.716Z" fill="white" stroke="#263238" stroke-miterlimit="10"/>
<path d="M197.198 143.304H193.186V167.071H197.198V143.304Z" fill="white" stroke="#263238" stroke-miterlimit="10"/>
<path d="M197.198 161.966H193.186V163.915H197.198V161.966Z" fill="white" stroke="#263238" stroke-miterlimit="10"/>
<path d="M197.198 145.716H193.186V147.664H197.198V145.716Z" fill="white" stroke="#263238" stroke-miterlimit="10"/>
<path d="M205.411 143.295L201.67 144.867L211.078 167.035L214.819 165.464L205.411 143.295Z" fill="white" stroke="#263238" stroke-miterlimit="10"/>
<path d="M212.704 160.278L208.968 161.853L209.741 163.668L213.477 162.092L212.704 160.278Z" fill="white" stroke="#263238" stroke-width="0.99925" stroke-miterlimit="10"/>
<path d="M206.368 145.548L202.627 147.12L203.399 148.937L207.14 147.365L206.368 145.548Z" fill="white" stroke="#263238" stroke-miterlimit="10"/>
<path d="M211.085 167.028H219.461L223.229 165.467L214.824 165.452L211.085 167.028Z" fill="white" stroke="#263238" stroke-miterlimit="10"/>
<path d="M205.416 143.285H213.283L223.229 165.467L214.824 165.452L205.416 143.285Z" fill="white" stroke="#263238" stroke-miterlimit="10"/>
<path d="M201.158 143.304H197.146V167.071H201.158V143.304Z" fill="white" stroke="#263238" stroke-miterlimit="10"/>
<path d="M201.158 161.966H197.146V163.915H201.158V161.966Z" fill="white" stroke="#263238" stroke-miterlimit="10"/>
<path d="M201.158 145.716H197.146V147.664H201.158V145.716Z" fill="white" stroke="#263238" stroke-miterlimit="10"/>
<path d="M201.159 143.304H205.416L201.672 144.856L211.085 167.028H201.159V143.304Z" fill="white" stroke="#263238" stroke-miterlimit="10"/>
<path d="M186.134 167.157V222.886" stroke="#263238" stroke-miterlimit="10"/>
<path d="M148.872 174.057H226.382" stroke="#263238" stroke-miterlimit="10"/>
<path d="M164.779 178.771V188.875" stroke="#263238" stroke-width="2" stroke-miterlimit="10"/>
<path d="M168.163 178.771V188.875" stroke="#263238" stroke-width="2" stroke-miterlimit="10"/>
<path d="M203.708 178.771V188.875" stroke="#263238" stroke-width="2" stroke-miterlimit="10"/>
<path d="M207.091 178.771V188.875" stroke="#263238" stroke-width="2" stroke-miterlimit="10"/>
<path d="M247.987 54.9215V37.7875H273.034" stroke="#263238" stroke-miterlimit="10"/>
<path d="M274.877 37.7875H285.427V80.2883H247.987V57.5193" stroke="#263238" stroke-miterlimit="10"/>
<path d="M271.805 74.5579H253.032V43.5179H280.378V74.5579H273.955" stroke="#263238" stroke-miterlimit="10"/>
<path d="M271.963 53.0687H261.446V65.0072H271.963V53.0687Z" stroke="#263238" stroke-miterlimit="10"/>
<path d="M288.754 74.7298V64.0425H304.378" stroke="#263238" stroke-miterlimit="10"/>
<path d="M305.525 64.0425H312.106V90.5506H288.754V76.3486" stroke="#263238" stroke-miterlimit="10"/>
<path d="M303.61 86.9786H291.902V67.6145H308.957V86.9786H304.949" stroke="#263238" stroke-miterlimit="10"/>
<path d="M303.71 73.5741H297.149V81.0189H303.71V73.5741Z" stroke="#263238" stroke-miterlimit="10"/>
<path d="M41.1841 225.579H311.904" stroke="#263238" stroke-linecap="round" stroke-linejoin="round"/>
<path d="M60.3837 158.724C60.3837 158.724 57.5037 120.521 58.9437 116.223C60.3837 111.925 69.2637 112.164 70.9437 112.164C72.6237 112.164 107.664 112.164 112.704 114.552C117.744 116.939 118.464 175.677 118.464 175.677H62.7837L60.3837 158.724Z" fill="#263238" stroke="#263238" stroke-miterlimit="10"/>
<path d="M120.379 155.62C120.379 155.62 114.619 155.62 113.467 161.35C112.315 167.081 116.851 190.719 117.187 197.404C117.523 204.09 118.704 213.402 118.704 213.402H139.104L143.664 155.62H120.379Z" fill="#263238" stroke="#263238" stroke-miterlimit="10"/>
<path d="M143.664 155.62C143.664 155.62 137.904 155.62 136.464 161.35C135.024 167.081 138.384 190.719 138.384 197.404C138.384 204.09 139.104 213.402 139.104 213.402H146.304C146.304 213.402 147.024 196.211 147.024 193.823C147.024 191.435 149.904 166.603 148.464 161.589C147.024 156.575 145.824 156.097 143.664 155.62Z" fill="#636363" stroke="#263238" stroke-miterlimit="10"/>
<path d="M82.8236 114.671C82.8236 114.671 63.7437 122.431 63.7437 123.267C63.7437 124.102 70.2236 146.547 72.6236 150.009C75.0236 153.471 76.7036 157.291 77.4236 158.724C78.1436 160.156 81.2636 163.738 83.7836 163.738C86.3036 163.738 89.3036 160.753 97.3436 159.56C105.384 158.366 112.584 158.485 114.024 157.411C115.464 156.336 113.664 153.471 113.424 152.874C113.184 152.277 112.224 150.128 112.224 150.128C112.224 150.128 120.024 156.575 123.144 156.814C126.264 157.052 128.544 155.5 129.024 153.471C129.504 151.441 127.704 146.547 126.504 143.92C125.304 141.294 119.664 137.115 117.144 133.892C114.624 130.669 111.384 126.848 109.104 124.222C107.117 121.91 104.664 120.039 101.904 118.73C99.7436 117.775 94.2236 115.387 90.7436 115.029C87.2636 114.671 82.8236 114.671 82.8236 114.671Z" fill="white" stroke="#263238" stroke-miterlimit="10"/>
<path d="M120.22 142.645C120.22 142.645 117.504 150.128 118.464 152.038C119.424 153.949 121.982 154.584 121.982 154.584" stroke="#263238" stroke-miterlimit="10"/>
<path d="M79.9438 117.178L95.7839 132.459L98.1839 120.998" stroke="#263238" stroke-miterlimit="10"/>
<path d="M120.984 143.562C120.984 143.562 124.824 146.308 126.144 145.353C127.464 144.398 127.104 142.607 126.264 140.697C125.424 138.787 122.664 137.712 121.584 138.548C120.504 139.384 120.144 142.726 120.984 143.562Z" fill="white" stroke="#263238" stroke-miterlimit="10"/>
<path d="M81.624 109.657L82.224 116.82L94.944 129.236L96.864 120.401L97.704 116.701C97.704 116.701 89.424 115.268 86.784 113.477C84.144 111.686 81.624 109.657 81.624 109.657Z" fill="white" stroke="#263238" stroke-miterlimit="10"/>
<path d="M97.704 116.701C97.704 116.701 89.424 115.268 86.784 113.477C84.144 111.686 81.624 109.657 81.624 109.657L82.224 116.82L85.44 119.957C87.9408 120.659 90.432 120.998 92.1264 120.349C94.0066 119.669 95.8035 118.78 97.4832 117.699L97.704 116.701Z" fill="#263238" stroke="#263238" stroke-miterlimit="10"/>
<path d="M77.8222 104.127C77.8222 104.127 75.5806 93.9364 75.5806 92.1886C75.5806 90.4408 81.6622 81.5204 89.9806 82.953C98.299 84.3856 102.941 89.161 103.262 90.5936C103.584 92.0262 102.302 94.8915 102.302 94.8915C102.555 95.7215 102.716 96.5766 102.782 97.4415C102.782 98.3966 101.342 102.532 101.342 102.532L100.862 98.2342C100.862 98.2342 96.8638 99.3517 94.6222 99.3517C92.3806 99.3517 88.5406 97.9191 88.5406 97.9191C88.5406 97.9191 89.3422 100.464 88.5406 101.739C87.739 103.014 85.3438 104.127 85.3438 104.127C85.3438 104.127 85.0222 106.672 84.0622 106.672C82.8779 106.613 81.7009 106.453 80.5438 106.195C79.9006 106.037 77.8222 104.127 77.8222 104.127Z" fill="#263238" stroke="#263238" stroke-miterlimit="10"/>
<path d="M81.5038 105.24C81.5038 105.24 81.1822 101.419 77.9806 102.374C74.779 103.33 76.8622 106.83 78.6238 108.582C80.3854 110.335 80.8606 109.06 80.8606 109.06C80.8606 109.06 81.3406 112.723 83.7406 114.79C86.1406 116.858 89.8222 120.678 93.6622 120.201C97.5022 119.723 100.224 114.948 100.704 111.448C101.184 107.947 101.501 99.6669 101.501 98.7118C101.385 97.6346 101.171 96.5701 100.862 95.5314C100.862 95.5314 97.5022 97.9191 94.4638 97.2792C91.4254 96.6393 88.2238 95.369 86.7838 95.369C85.3438 95.369 85.6606 97.4415 86.1406 98.0767C86.6206 98.7118 87.9022 99.9868 86.4622 100.784C85.0222 101.582 83.1022 102.374 83.1022 102.374V105.717L81.5038 105.24Z" fill="white" stroke="#263238" stroke-miterlimit="10"/>
<path d="M96.811 103.501L96.0238 112.131L92.083 110.994" stroke="#263238" stroke-miterlimit="10"/>
<path d="M93.4845 111.691C93.4845 111.691 91.5645 111.691 90.5085 111.782C89.8742 111.886 89.2297 111.915 88.5885 111.868C88.1517 111.782 87.6285 111.433 88.5021 112.303C89.3757 113.172 92.0061 114.213 93.4077 114.394C94.8093 114.576 95.7741 114.131 96.8205 113.439C97.8669 112.747 98.7405 112.045 98.2221 111.873C97.4998 111.745 96.7669 111.686 96.0333 111.696V112.135L93.4845 111.691Z" fill="#263238" stroke="#263238" stroke-miterlimit="10"/>
<path d="M90.7245 106.462C91.04 106.462 91.2957 105.936 91.2957 105.287C91.2957 104.639 91.04 104.113 90.7245 104.113C90.409 104.113 90.1533 104.639 90.1533 105.287C90.1533 105.936 90.409 106.462 90.7245 106.462Z" fill="#263238"/>
<path d="M99.2641 105.116C99.2641 105.765 99.0097 106.29 98.6977 106.29C98.3857 106.29 98.1265 105.765 98.1265 105.116C98.1265 104.466 98.3809 103.936 98.6977 103.936C99.0145 103.936 99.2641 104.466 99.2641 105.116Z" fill="#263238"/>
<path d="M88.5791 103.501C88.5791 103.501 90.9455 101.844 92.8703 102.546" stroke="#263238" stroke-miterlimit="10"/>
<path d="M97.2524 102.632C97.2524 102.632 99.7052 101.496 100.756 102.542" stroke="#263238" stroke-miterlimit="10"/>
<path d="M92.2605 107.446C92.2605 107.446 91.7325 108.057 89.9805 108.578" stroke="#263238" stroke-miterlimit="10"/>
<path d="M97.0752 107.073C97.5935 107.43 98.1527 107.723 98.7408 107.947" stroke="#263238" stroke-miterlimit="10"/>
<path d="M104.544 129.713L105.384 127.565C105.384 127.565 106.464 128.639 109.344 128.639C112.224 128.639 116.904 130.669 116.904 130.669L117.264 131.265C117.264 131.265 118.104 128.758 119.664 128.281C121.224 127.803 123.744 126.132 124.104 125.654L124.464 125.177L126.144 126.609L118.704 136.399L104.784 131.027L104.544 129.713Z" fill="white" stroke="#263238" stroke-miterlimit="10"/>
<path d="M104.664 128.878L101.064 147.86L113.544 150.725L118.104 132.34L104.664 128.878Z" fill="white" stroke="#263238" stroke-miterlimit="10"/>
<path d="M118.104 132.34L126.144 126.609L121.344 144.995L113.544 150.725L118.104 132.34Z" fill="white" stroke="#263238" stroke-miterlimit="10"/>
<path d="M89.1841 144.398L94.6225 142.168C94.6225 142.168 99.4225 137.077 99.9025 136.6C100.382 136.122 105.182 135.645 105.182 135.645L110.462 139.145C110.462 139.145 111.422 139.942 110.462 140.258C109.502 140.573 107.424 139.622 107.424 139.622L105.341 138.347L104.064 138.987L106.781 141.213C106.781 141.213 107.582 143.285 107.582 144.398C107.568 145.113 107.404 145.817 107.102 146.466L105.504 148.696L100.704 146.308C100.704 146.308 97.8241 148.376 97.1809 148.696C96.5377 149.016 90.4609 148.538 90.4609 148.538L89.1841 144.398Z" fill="white" stroke="#263238" stroke-miterlimit="10"/>
<path d="M100.661 138.82L102.36 138.5L103.819 138.901" stroke="#263238" stroke-miterlimit="10"/>
<path d="M99.043 141.962C99.043 141.962 102.845 140.912 103.089 140.912C103.334 140.912 106.166 143.81 106.166 143.81L106.488 146.953" stroke="#263238" stroke-miterlimit="10"/>
<path d="M99.2061 143.973L102.278 144.054L105.11 145.907C105.397 146.808 105.53 147.751 105.504 148.695" stroke="#263238" stroke-miterlimit="10"/>
<path d="M67.1038 120.998C67.1038 120.998 63.5806 121.476 63.1006 124.499C62.6206 127.522 59.4238 152.993 60.3838 155.859C61.3438 158.724 79.1038 153.791 79.7422 153.471C80.3806 153.151 90.4606 150.128 90.6238 149.493C90.787 148.858 91.1038 143.6 89.6638 143.285C88.2238 142.97 74.4622 143.443 74.4622 143.443L72.5422 126.886" fill="white"/>
<path d="M67.1038 120.998C67.1038 120.998 63.5806 121.476 63.1006 124.499C62.6206 127.522 59.4238 152.993 60.3838 155.859C61.3438 158.724 79.1038 153.791 79.7422 153.471C80.3806 153.151 90.4606 150.128 90.6238 149.493C90.787 148.858 91.1038 143.6 89.6638 143.285C88.2238 142.97 74.4622 143.443 74.4622 143.443L72.5422 126.886" stroke="#263238" stroke-miterlimit="10"/>
<path d="M74.4621 143.443L65.9805 144.875" stroke="#263238" stroke-miterlimit="10"/>
<path d="M64.3823 142.965L71.7407 143.92" stroke="#263238" stroke-miterlimit="10"/>
<path d="M123.984 134.489C123.984 134.489 120.744 137.832 120.864 138.667C120.984 139.503 122.664 138.19 123.024 137.832C123.384 137.473 125.064 136.518 125.064 135.563C125.064 134.608 124.704 133.534 123.984 134.489Z" fill="white" stroke="#263238" stroke-miterlimit="10"/>
<path d="M124.344 136.518C124.344 136.518 125.304 137.474 125.304 138.309C125.304 139.145 123.264 141.891 122.304 141.891C121.344 141.891 122.064 139.981 122.544 139.145C123.024 138.309 124.344 136.518 124.344 136.518Z" fill="white" stroke="#263238" stroke-miterlimit="10"/>
<path d="M125.304 138.309C125.304 138.309 126.504 138.667 126.504 139.742C126.504 140.816 124.224 142.607 123.624 142.726C123.024 142.846 123.144 141.771 123.624 140.936C124.104 140.1 125.304 138.309 125.304 138.309Z" fill="white" stroke="#263238" stroke-miterlimit="10"/>
<path d="M126.504 139.742C126.75 140.347 126.833 141.005 126.744 141.652C126.624 142.846 124.824 143.562 124.224 143.562C123.624 143.562 123.624 142.726 123.624 142.726C124.64 141.786 125.601 140.79 126.504 139.742V139.742Z" fill="white" stroke="#263238" stroke-miterlimit="10"/>
<path d="M88.7614 225.579H86.4814L85.3438 210.537H89.9038L88.7614 225.579Z" fill="white" stroke="#263238" stroke-miterlimit="10"/>
<path d="M67.8815 225.579H65.6015L64.4639 210.537H69.0239L67.8815 225.579Z" fill="white" stroke="#263238" stroke-miterlimit="10"/>
<path d="M143.241 225.579H140.961L139.824 210.537H144.384L143.241 225.579Z" fill="white" stroke="#263238" stroke-miterlimit="10"/>
<path d="M122.361 225.579H120.081L118.944 210.537H123.504L122.361 225.579Z" fill="white" stroke="#263238" stroke-miterlimit="10"/>
<path d="M140.064 181.755H85.584V213.273H140.064V181.755Z" fill="#263238" stroke="#263238" stroke-miterlimit="10"/>
<path d="M179.582 176.713C179.582 176.713 185.342 174.325 186.624 173.37C187.905 172.415 189.662 174.483 188.86 176.713C188.059 178.943 185.98 182.921 182.784 184.831C179.587 186.741 177.024 188.331 176.38 188.966C175.737 189.601 175.9 191.994 173.184 192.949C170.467 193.904 167.102 191.994 165.182 188.966C163.262 185.939 161.98 183.876 161.98 183.876C161.98 183.876 162.144 181.646 165.34 180.533C168.537 179.42 173.98 178.938 173.98 178.938L179.582 176.713Z" fill="white" stroke="#263238" stroke-miterlimit="10"/>
<path d="M114.024 157.411C114.024 157.411 117.821 156.494 118.781 156.971C119.741 157.449 122.942 160.476 122.942 160.476C122.942 160.476 142.301 160.792 143.741 161.432C145.181 162.071 160.061 173.37 163.262 174.96C166.464 176.55 169.181 177.983 169.181 177.983L166.781 188.489V189.444L166.944 191.039C166.944 191.039 158.621 188.489 156.542 188.011C154.464 187.534 145.824 183.078 145.022 183.078C144.221 183.078 137.664 181.168 137.664 181.168C137.664 181.168 136.704 180.533 126.302 179.578C115.901 178.623 104.222 177.505 100.061 177.348C95.8991 177.19 90.4607 176.87 88.3823 176.073C86.3039 175.275 82.6223 169.707 81.9839 166.364C81.3455 163.022 88.0607 160.156 90.9407 158.881C93.8207 157.606 104.544 156.016 106.464 156.016C108.384 156.016 114.024 157.411 114.024 157.411Z" fill="white" stroke="#263238" stroke-miterlimit="10"/>
<path d="M117.662 162.067L114.46 166.684L118.78 163.819" fill="white"/>
<path d="M117.662 162.067L114.46 166.684L118.78 163.819" stroke="#263238" stroke-miterlimit="10"/>
<path d="M166.781 175.915C166.781 175.915 171.422 172.252 172.382 171.14C173.342 170.027 176.544 163.977 177.182 162.067C177.821 160.156 179.424 159.201 180.542 160.634C181.661 162.067 182.462 164.932 183.101 166.207C183.739 167.482 182.784 173.685 180.864 175.758C178.944 177.83 176.289 182.849 175.742 183.876C174.302 186.579 172.061 186.899 170.621 187.056C169.181 187.214 165.662 183.398 165.662 183.398L166.781 175.915Z" fill="white" stroke="#263238" stroke-miterlimit="10"/>
<path d="M95.5822 165.252C95.5822 165.252 100.382 164.297 104.702 164.774C109.022 165.252 117.821 167.955 121.502 168.91C125.184 169.865 131.741 170.342 134.784 171.46C137.827 172.577 145.824 174.005 151.901 174.005C157.977 174.005 167.261 174.803 167.261 174.803C167.261 174.803 165.984 184.033 166.301 185.786C166.616 187.196 167.045 188.579 167.582 189.921C167.582 189.921 155.261 190.877 151.742 191.354C148.224 191.832 133.982 189.606 131.582 188.966C129.182 188.326 125.664 187.376 123.422 187.376C121.181 187.376 116.861 188.331 110.621 188.966C104.381 189.602 95.5822 186.899 94.4638 186.741C93.3454 186.583 89.3422 185.146 88.3822 184.511C87.4222 183.876 81.8206 174.005 83.7406 169.865C85.6606 165.725 88.0606 165.09 88.0606 165.09" fill="white"/>
<path d="M95.5822 165.252C95.5822 165.252 100.382 164.297 104.702 164.774C109.022 165.252 117.821 167.955 121.502 168.91C125.184 169.865 131.741 170.342 134.784 171.46C137.827 172.577 145.824 174.005 151.901 174.005C157.977 174.005 167.261 174.803 167.261 174.803C167.261 174.803 165.984 184.033 166.301 185.786C166.616 187.196 167.045 188.579 167.582 189.921C167.582 189.921 155.261 190.877 151.742 191.354C148.224 191.832 133.982 189.606 131.582 188.966C129.182 188.326 125.664 187.376 123.422 187.376C121.181 187.376 116.861 188.331 110.621 188.966C104.381 189.602 95.5822 186.899 94.4638 186.741C93.3454 186.583 89.3422 185.146 88.3822 184.511C87.4222 183.876 81.8206 174.005 83.7406 169.865C85.6606 165.725 88.0606 165.09 88.0606 165.09" stroke="#263238" stroke-miterlimit="10"/>
<path d="M125.016 181.311C128.102 181.923 131.371 183.785 135.792 185.509C141.691 187.806 153.499 187.596 155.02 187.806C156.542 188.016 160.406 187.806 160.406 187.806" fill="white"/>
<path d="M125.016 181.311C128.102 181.923 131.371 183.785 135.792 185.509C141.691 187.806 153.499 187.596 155.02 187.806C156.542 188.016 160.406 187.806 160.406 187.806" stroke="#263238" stroke-miterlimit="10"/>
<path d="M101.217 183.47L102.979 183.723C108.105 184.487 117.859 181.684 121.948 181.173" fill="white"/>
<path d="M101.217 183.47L102.979 183.723C108.105 184.487 117.859 181.684 121.948 181.173" stroke="#263238" stroke-miterlimit="10"/>
<path d="M96.0576 182.959C96.0576 182.959 96.9792 182.959 99.384 183.241Z" fill="white"/>
<path d="M96.0576 182.959C96.0576 182.959 96.9792 182.959 99.384 183.241" stroke="#263238" stroke-miterlimit="10"/>
<path d="M64.9391 155.62C64.9391 155.62 59.1791 155.62 58.0271 161.35C56.8751 167.081 61.3871 190.719 61.7471 197.404C62.1071 204.09 63.2639 213.402 63.2639 213.402H83.6639L88.2239 155.62H64.9391Z" fill="#263238" stroke="#263238" stroke-miterlimit="10"/>
<path d="M88.2238 155.62C88.2238 155.62 82.4638 155.62 81.0238 161.35C79.5838 167.081 82.9438 190.719 82.9438 197.404C82.9438 204.09 83.6638 213.402 83.6638 213.402H90.8638C90.8638 213.402 91.5838 196.211 91.5838 193.823C91.5838 191.435 94.4638 166.603 93.0238 161.589C91.5838 156.575 90.3838 156.097 88.2238 155.62Z" fill="#636363" stroke="#263238" stroke-miterlimit="10"/>
<path d="M135.082 225.579H132.802L131.664 210.537H136.224L135.082 225.579Z" fill="white" stroke="#263238" stroke-miterlimit="10"/>
<path d="M154.522 225.579H152.242L151.104 210.537H155.664L154.522 225.579Z" fill="white" stroke="#263238" stroke-miterlimit="10"/>
<path d="M163.641 225.579H161.361L160.224 210.537H164.784L163.641 225.579Z" fill="white" stroke="#263238" stroke-miterlimit="10"/>
<path d="M182.841 225.579H180.561L179.424 210.537H183.984L182.841 225.579Z" fill="white" stroke="#263238" stroke-miterlimit="10"/>
<path d="M132.264 190.958H182.4C183.323 190.958 184.208 191.322 184.861 191.972C185.513 192.621 185.88 193.502 185.88 194.42V218.894H128.76V194.42C128.76 193.963 128.851 193.511 129.027 193.089C129.203 192.668 129.462 192.285 129.788 191.963C130.113 191.641 130.5 191.387 130.925 191.214C131.35 191.042 131.805 190.954 132.264 190.958V190.958Z" fill="#263238" stroke="#263238" stroke-miterlimit="10"/>
<path d="M182.424 190.958H164.184C163.261 190.958 162.376 191.322 161.723 191.972C161.071 192.621 160.704 193.502 160.704 194.42V218.894H185.904V194.42C185.903 193.502 185.536 192.622 184.883 191.973C184.231 191.324 183.347 190.959 182.424 190.958V190.958Z" fill="#636363" stroke="#263238" stroke-miterlimit="10"/>
</svg>
