<svg width="390" height="263" viewBox="0 0 390 263" fill="none" xmlns="http://www.w3.org/2000/svg">
<path d="M336.457 168.077L336.001 172.139L343.952 162.908C344.903 163.007 345.858 163.057 346.814 163.059" stroke="#263238" stroke-linecap="round" stroke-linejoin="round"/>
<path d="M326.497 140.065C325.452 141.631 324.798 143.421 324.586 145.287C323.833 152.035 329.161 158.417 337.211 161.37L336.802 164.997" stroke="#263238" stroke-linecap="round" stroke-linejoin="round"/>
<path d="M329.587 136.706C329.069 137.122 328.577 137.57 328.115 138.046" stroke="#263238" stroke-linecap="round" stroke-linejoin="round"/>
<path d="M359.403 136.706C355.774 134.236 351.577 132.712 347.2 132.273C342.573 131.71 337.879 132.396 333.612 134.258" stroke="#263238" stroke-linecap="round" stroke-linejoin="round"/>
<path d="M352.346 162.513C359.94 160.953 365.695 156.131 366.366 149.877C366.857 145.502 364.795 141.284 361.109 138.046" stroke="#263238" stroke-linecap="round" stroke-linejoin="round"/>
<path d="M333.618 141.191C334.261 141.31 334.921 141.302 335.561 141.166C336.2 141.031 336.807 140.771 337.345 140.402L340.184 142.589C339.985 142.653 340.003 142.235 340.213 142.224C340.423 142.212 340.581 142.404 340.727 142.554C341.393 143.256 342.515 143.28 343.467 143.077C344.419 142.873 345.348 142.496 346.318 142.531C346.894 142.591 347.462 142.721 348.006 142.92C351.908 144.121 355.968 144.724 360.011 145.316" stroke="#263238" stroke-linecap="round" stroke-linejoin="round"/>
<path d="M330.265 145.316C330.849 145.281 334.103 145.316 334.57 144.927L335.365 146.303L336.241 145.461C336.393 146.041 336.545 146.622 336.691 147.167C337.351 147.324 337.275 146.059 337.859 145.682C338.039 145.594 338.245 145.577 338.437 145.634C338.628 145.691 338.791 145.818 338.893 145.989C339.084 146.346 339.177 146.746 339.162 147.15L343.157 147.475L343.934 147.538C344.212 147.118 344.623 146.801 345.103 146.639C344.957 147.556 346.119 148.078 347.042 148.264C351.587 149.184 356.155 149.979 360.747 150.648" stroke="#263238" stroke-linecap="round" stroke-linejoin="round"/>
<path d="M332.041 151.617C332.409 151.873 332.858 151.397 333.308 151.339C333.758 151.281 334.126 151.617 334.523 151.82C334.921 152.023 335.575 151.936 335.598 151.495C335.692 152.076 336.416 152.285 337.006 152.366L352.347 154.507" stroke="#263238" stroke-linecap="round" stroke-linejoin="round"/>
<path d="M126.772 131.798L132.918 140.013L131.685 129.262C133.154 128.554 134.559 127.721 135.885 126.773C142.183 122.248 144.718 114.966 142.41 109.1C140.792 105.004 137.001 102.219 132.211 101.064" stroke="#263238" stroke-linecap="round" stroke-linejoin="round"/>
<path d="M102.5 118.836C102.308 120.697 102.564 122.576 103.247 124.319C105.736 130.643 113.435 133.834 121.941 132.732" stroke="#263238" stroke-linecap="round" stroke-linejoin="round"/>
<path d="M103.662 114.432C103.401 115.041 103.177 115.665 102.99 116.301" stroke="#263238" stroke-linecap="round" stroke-linejoin="round"/>
<path d="M130.067 100.67C125.696 100.151 121.264 100.734 117.18 102.364C112.821 104.001 108.986 106.775 106.081 110.394" stroke="#263238" stroke-linecap="round" stroke-linejoin="round"/>
<path d="M109.329 116.538C110.585 116.149 111.636 115.281 112.249 114.125L115.755 114.751C115.603 114.896 115.427 114.519 115.609 114.409C115.79 114.299 116.017 114.409 116.193 114.467C117.116 114.78 118.115 114.287 118.862 113.666C119.61 113.046 120.253 112.274 121.135 111.868C121.674 111.654 122.237 111.506 122.811 111.427C126.831 110.696 130.704 109.35 134.565 108.009" stroke="#263238" stroke-linecap="round" stroke-linejoin="round"/>
<path d="M108.289 121.743C108.809 121.435 111.689 119.967 111.923 119.422L113.272 120.275C113.401 119.892 113.529 119.503 113.652 119.114L114.849 120.42C115.509 120.257 114.849 119.172 115.165 118.581C115.282 118.42 115.457 118.31 115.653 118.272C115.849 118.234 116.053 118.272 116.222 118.378C116.556 118.6 116.824 118.906 116.999 119.265L120.685 117.71L121.41 117.409C121.451 116.91 121.656 116.439 121.994 116.068C122.298 116.956 123.571 116.875 124.471 116.614C128.93 115.337 133.348 113.933 137.726 112.401" stroke="#263238" stroke-linecap="round" stroke-linejoin="round"/>
<path d="M112.811 126.5C113.26 126.558 113.436 125.92 113.804 125.665C114.172 125.41 114.662 125.543 115.106 125.532C115.55 125.52 116.094 125.154 115.907 124.754C116.263 125.224 117.005 125.073 117.56 124.876L132.164 119.683" stroke="#263238" stroke-linecap="round" stroke-linejoin="round"/>
<path d="M304.905 32.2587H159.246C156.41 32.2587 154.111 34.542 154.111 37.3586V167.683C154.111 170.5 156.41 172.783 159.246 172.783H304.905C307.741 172.783 310.04 170.5 310.04 167.683V37.3586C310.04 34.542 307.741 32.2587 304.905 32.2587Z" fill="white"/>
<path opacity="0.2" d="M310.04 109.234V167.834C310.04 169.145 309.516 170.403 308.582 171.331C307.649 172.259 306.383 172.781 305.063 172.783H159.094C157.773 172.783 156.505 172.261 155.571 171.333C154.636 170.405 154.111 169.146 154.111 167.834V156.23H154.421V164.051C154.421 164.794 154.568 165.53 154.855 166.217C155.142 166.904 155.562 167.528 156.091 168.053C156.621 168.578 157.249 168.995 157.941 169.279C158.633 169.563 159.374 169.709 160.123 169.708H301.137C301.885 169.709 302.627 169.563 303.318 169.279C304.01 168.995 304.639 168.578 305.168 168.053C305.698 167.528 306.118 166.904 306.404 166.217C306.691 165.53 306.839 164.794 306.839 164.051V117.925C306.839 116.88 306.421 115.878 305.677 115.139C304.933 114.401 303.924 113.985 302.872 113.985H154.111V109.234H310.04Z" fill="black"/>
<path d="M304.905 32.2587H159.246C156.41 32.2587 154.111 34.542 154.111 37.3586V167.683C154.111 170.5 156.41 172.783 159.246 172.783H304.905C307.741 172.783 310.04 170.5 310.04 167.683V37.3586C310.04 34.542 307.741 32.2587 304.905 32.2587Z" stroke="#263238" stroke-linecap="round" stroke-linejoin="round"/>
<path d="M296.464 125.92V119.207C296.464 118.881 296.4 118.558 296.275 118.256C296.149 117.954 295.965 117.68 295.733 117.45C295.501 117.219 295.225 117.036 294.921 116.911C294.617 116.787 294.292 116.723 293.963 116.724H170.188C169.525 116.724 168.889 116.986 168.42 117.451C167.951 117.917 167.688 118.549 167.688 119.207V125.92C167.688 126.579 167.424 127.21 166.955 127.676C166.486 128.142 165.85 128.403 165.187 128.403V128.403C164.523 128.403 163.885 128.666 163.415 129.132C162.945 129.599 162.681 130.232 162.681 130.892V144.138C162.681 147.193 163.903 150.122 166.078 152.282C168.252 154.442 171.202 155.655 174.277 155.655V155.655C174.771 155.655 175.245 155.85 175.595 156.197C175.944 156.545 176.141 157.015 176.141 157.506V161.475C176.141 162.94 176.727 164.345 177.769 165.38C178.812 166.416 180.227 166.998 181.702 166.998H282.449C283.924 166.998 285.339 166.416 286.382 165.38C287.425 164.345 288.011 162.94 288.011 161.475V157.506C288.011 157.015 288.207 156.545 288.556 156.197C288.906 155.85 289.38 155.655 289.874 155.655C291.397 155.655 292.905 155.357 294.312 154.779C295.718 154.2 296.997 153.352 298.074 152.282C299.15 151.213 300.005 149.943 300.587 148.546C301.17 147.148 301.47 145.651 301.47 144.138V130.892C301.47 130.233 301.207 129.601 300.738 129.134C300.269 128.668 299.633 128.405 298.97 128.403C298.306 128.403 297.669 128.142 297.2 127.676C296.73 127.211 296.465 126.579 296.464 125.92V125.92Z" fill="#263238"/>
<path d="M177.168 120.524H172.84C172.31 120.524 171.802 120.733 171.427 121.106C171.052 121.478 170.842 121.982 170.842 122.509V123.611C170.842 125.897 172.705 128.798 175.007 128.798C177.309 128.798 179.172 125.897 179.172 123.611V122.509C179.171 121.982 178.959 121.477 178.583 121.105C178.208 120.733 177.699 120.524 177.168 120.524V120.524Z" fill="white" stroke="#263238" stroke-linecap="round" stroke-linejoin="round"/>
<path d="M187.526 120.524H183.198C182.667 120.524 182.158 120.733 181.783 121.105C181.407 121.477 181.195 121.982 181.194 122.509V123.611C181.194 125.897 183.057 128.798 185.359 128.798C187.661 128.798 189.524 125.897 189.524 123.611V122.509C189.524 121.982 189.314 121.478 188.939 121.106C188.564 120.733 188.056 120.524 187.526 120.524V120.524Z" fill="white" stroke="#263238" stroke-linecap="round" stroke-linejoin="round"/>
<path d="M197.924 120.524H193.596C193.066 120.524 192.557 120.733 192.183 121.106C191.808 121.478 191.598 121.982 191.598 122.509V123.611C191.598 125.897 193.461 128.798 195.757 128.798C198.053 128.798 199.922 125.897 199.922 123.611V122.509C199.922 121.982 199.712 121.478 199.337 121.106C198.962 120.733 198.454 120.524 197.924 120.524V120.524Z" fill="white" stroke="#263238" stroke-linecap="round" stroke-linejoin="round"/>
<path d="M208.299 120.524H203.971C203.441 120.524 202.932 120.733 202.558 121.106C202.183 121.478 201.973 121.982 201.973 122.509V123.611C201.973 125.897 203.836 128.798 206.138 128.798C208.439 128.798 210.297 125.897 210.297 123.611V122.509C210.297 122.248 210.245 121.99 210.145 121.749C210.045 121.509 209.898 121.29 209.712 121.106C209.526 120.921 209.306 120.775 209.064 120.675C208.821 120.576 208.562 120.524 208.299 120.524V120.524Z" fill="white" stroke="#263238" stroke-linecap="round" stroke-linejoin="round"/>
<path d="M218.675 120.524H214.346C213.816 120.524 213.308 120.733 212.933 121.106C212.559 121.478 212.348 121.982 212.348 122.509V123.611C212.348 125.897 214.212 128.798 216.513 128.798C218.815 128.798 220.679 125.897 220.679 123.611V122.509C220.677 121.982 220.465 121.477 220.09 121.105C219.714 120.733 219.205 120.524 218.675 120.524V120.524Z" fill="white" stroke="#263238" stroke-linecap="round" stroke-linejoin="round"/>
<path d="M229.056 120.524H224.727C224.196 120.524 223.688 120.733 223.312 121.105C222.936 121.477 222.725 121.982 222.723 122.509V123.611C222.723 125.897 224.587 128.798 226.888 128.798C229.19 128.798 231.054 125.897 231.054 123.611V122.509C231.054 121.982 230.843 121.478 230.468 121.106C230.094 120.733 229.586 120.524 229.056 120.524V120.524Z" fill="white" stroke="#263238" stroke-linecap="round" stroke-linejoin="round"/>
<path d="M239.43 120.524H235.101C234.572 120.524 234.063 120.733 233.689 121.106C233.314 121.478 233.104 121.982 233.104 122.509V123.611C233.104 125.897 234.967 128.798 237.263 128.798C239.559 128.798 241.428 125.897 241.428 123.611V122.509C241.428 121.982 241.218 121.478 240.843 121.106C240.468 120.733 239.96 120.524 239.43 120.524V120.524Z" fill="white" stroke="#263238" stroke-linecap="round" stroke-linejoin="round"/>
<path d="M249.805 120.524H245.476C244.947 120.524 244.438 120.733 244.064 121.106C243.689 121.478 243.479 121.982 243.479 122.509V123.611C243.479 125.897 245.342 128.798 247.644 128.798C249.945 128.798 251.803 125.897 251.803 123.611V122.509C251.803 121.982 251.593 121.478 251.218 121.106C250.843 120.733 250.335 120.524 249.805 120.524V120.524Z" fill="white" stroke="#263238" stroke-linecap="round" stroke-linejoin="round"/>
<path d="M260.18 120.524H255.875C255.612 120.524 255.353 120.576 255.11 120.675C254.868 120.775 254.648 120.921 254.462 121.105C254.277 121.29 254.129 121.508 254.029 121.749C253.929 121.99 253.877 122.248 253.877 122.509V123.611C253.877 125.897 255.74 128.798 258.042 128.798C260.344 128.798 262.207 125.897 262.207 123.611V122.509C262.207 122.246 262.153 121.986 262.051 121.743C261.948 121.501 261.799 121.281 261.61 121.097C261.422 120.912 261.198 120.767 260.953 120.669C260.707 120.57 260.445 120.521 260.18 120.524V120.524Z" fill="white" stroke="#263238" stroke-linecap="round" stroke-linejoin="round"/>
<path d="M270.561 120.524H266.232C265.702 120.524 265.193 120.733 264.817 121.105C264.442 121.477 264.23 121.982 264.229 122.509V123.611C264.229 125.897 266.092 128.798 268.394 128.798C270.695 128.798 272.559 125.897 272.559 123.611V122.509C272.559 121.982 272.348 121.478 271.974 121.106C271.599 120.733 271.091 120.524 270.561 120.524V120.524Z" fill="white" stroke="#263238" stroke-linecap="round" stroke-linejoin="round"/>
<path d="M280.936 120.524H276.607C276.077 120.524 275.569 120.733 275.195 121.106C274.82 121.478 274.609 121.982 274.609 122.509V123.611C274.609 125.897 276.473 128.798 278.769 128.798C281.065 128.798 282.934 125.897 282.934 123.611V122.509C282.934 121.982 282.723 121.478 282.349 121.106C281.974 120.733 281.466 120.524 280.936 120.524V120.524Z" fill="white" stroke="#263238" stroke-linecap="round" stroke-linejoin="round"/>
<path d="M291.311 120.524H286.983C286.453 120.524 285.945 120.733 285.57 121.105C285.195 121.478 284.985 121.982 284.985 122.509V123.611C284.985 125.891 286.837 128.792 289.173 128.792C291.51 128.792 293.333 125.891 293.333 123.605V122.503C293.332 122.241 293.279 121.981 293.177 121.74C293.075 121.498 292.925 121.279 292.737 121.095C292.549 120.911 292.327 120.766 292.082 120.668C291.837 120.57 291.575 120.521 291.311 120.524V120.524Z" fill="white" stroke="#263238" stroke-linecap="round" stroke-linejoin="round"/>
<path d="M177.168 142.363H172.84C172.31 142.363 171.802 142.572 171.427 142.944C171.052 143.316 170.842 143.821 170.842 144.347V145.45C170.842 147.736 172.705 150.637 175.007 150.637C177.309 150.637 179.172 147.736 179.172 145.45V144.347C179.171 143.821 178.959 143.316 178.583 142.944C178.208 142.572 177.699 142.363 177.168 142.363V142.363Z" fill="white" stroke="#263238" stroke-linecap="round" stroke-linejoin="round"/>
<path d="M187.526 142.363H183.198C182.667 142.363 182.158 142.572 181.783 142.944C181.407 143.316 181.195 143.821 181.194 144.347V145.45C181.194 147.736 183.057 150.637 185.359 150.637C187.661 150.637 189.524 147.736 189.524 145.45V144.347C189.524 143.821 189.314 143.316 188.939 142.944C188.564 142.572 188.056 142.363 187.526 142.363V142.363Z" fill="white" stroke="#263238" stroke-linecap="round" stroke-linejoin="round"/>
<path d="M197.924 142.363H193.596C193.066 142.363 192.557 142.572 192.183 142.944C191.808 143.316 191.598 143.821 191.598 144.347V145.45C191.598 147.736 193.461 150.637 195.757 150.637C198.053 150.637 199.922 147.736 199.922 145.45V144.347C199.922 143.821 199.712 143.316 199.337 142.944C198.962 142.572 198.454 142.363 197.924 142.363V142.363Z" fill="white" stroke="#263238" stroke-linecap="round" stroke-linejoin="round"/>
<path d="M208.299 142.363H203.971C203.441 142.363 202.932 142.572 202.558 142.944C202.183 143.316 201.973 143.821 201.973 144.347V145.45C201.973 147.736 203.836 150.637 206.138 150.637C208.439 150.637 210.297 147.736 210.297 145.45V144.347C210.297 144.087 210.245 143.829 210.145 143.588C210.045 143.347 209.898 143.128 209.712 142.944C209.526 142.76 209.306 142.614 209.064 142.514C208.821 142.414 208.562 142.363 208.299 142.363V142.363Z" fill="white" stroke="#263238" stroke-linecap="round" stroke-linejoin="round"/>
<path d="M218.675 142.363H214.346C213.816 142.363 213.308 142.572 212.933 142.944C212.559 143.316 212.348 143.821 212.348 144.347V145.45C212.348 147.736 214.212 150.637 216.513 150.637C218.815 150.637 220.679 147.736 220.679 145.45V144.347C220.677 143.821 220.465 143.316 220.09 142.944C219.714 142.572 219.205 142.363 218.675 142.363V142.363Z" fill="white" stroke="#263238" stroke-linecap="round" stroke-linejoin="round"/>
<path d="M229.056 142.363H224.727C224.196 142.363 223.688 142.572 223.312 142.944C222.936 143.316 222.725 143.821 222.723 144.347V145.45C222.723 147.736 224.587 150.637 226.888 150.637C229.19 150.637 231.054 147.736 231.054 145.45V144.347C231.054 143.821 230.843 143.316 230.468 142.944C230.094 142.572 229.586 142.363 229.056 142.363Z" fill="white" stroke="#263238" stroke-linecap="round" stroke-linejoin="round"/>
<path d="M239.43 142.363H235.101C234.572 142.363 234.063 142.572 233.689 142.944C233.314 143.316 233.104 143.821 233.104 144.347V145.45C233.104 147.736 234.967 150.637 237.263 150.637C239.559 150.637 241.428 147.736 241.428 145.45V144.347C241.428 143.821 241.218 143.316 240.843 142.944C240.468 142.572 239.96 142.363 239.43 142.363V142.363Z" fill="white" stroke="#263238" stroke-linecap="round" stroke-linejoin="round"/>
<path d="M249.805 142.363H245.476C244.947 142.363 244.438 142.572 244.064 142.944C243.689 143.316 243.479 143.821 243.479 144.347V145.45C243.479 147.736 245.342 150.637 247.644 150.637C249.945 150.637 251.803 147.736 251.803 145.45V144.347C251.803 143.821 251.593 143.316 251.218 142.944C250.843 142.572 250.335 142.363 249.805 142.363V142.363Z" fill="white" stroke="#263238" stroke-linecap="round" stroke-linejoin="round"/>
<path d="M260.18 142.363H255.875C255.612 142.363 255.353 142.414 255.11 142.514C254.868 142.614 254.648 142.76 254.462 142.944C254.277 143.128 254.129 143.347 254.029 143.588C253.929 143.829 253.877 144.087 253.877 144.347V145.45C253.877 147.736 255.74 150.637 258.042 150.637C260.344 150.637 262.207 147.736 262.207 145.45V144.347C262.207 144.085 262.153 143.824 262.051 143.582C261.948 143.34 261.799 143.12 261.61 142.936C261.422 142.751 261.198 142.606 260.953 142.507C260.707 142.409 260.445 142.36 260.18 142.363V142.363Z" fill="white" stroke="#263238" stroke-linecap="round" stroke-linejoin="round"/>
<path d="M270.561 142.363H266.232C265.702 142.363 265.193 142.572 264.817 142.944C264.442 143.316 264.23 143.821 264.229 144.347V145.45C264.229 147.736 266.092 150.637 268.394 150.637C270.695 150.637 272.559 147.736 272.559 145.45V144.347C272.559 143.821 272.348 143.316 271.974 142.944C271.599 142.572 271.091 142.363 270.561 142.363V142.363Z" fill="white" stroke="#263238" stroke-linecap="round" stroke-linejoin="round"/>
<path d="M280.936 142.363H276.607C276.077 142.363 275.569 142.572 275.195 142.944C274.82 143.316 274.609 143.821 274.609 144.347V145.45C274.609 147.736 276.473 150.637 278.769 150.637C281.065 150.637 282.934 147.736 282.934 145.45V144.347C282.934 143.821 282.723 143.316 282.349 142.944C281.974 142.572 281.466 142.363 280.936 142.363Z" fill="white" stroke="#263238" stroke-linecap="round" stroke-linejoin="round"/>
<path d="M291.311 142.363H286.983C286.453 142.363 285.945 142.572 285.57 142.944C285.195 143.316 284.985 143.821 284.985 144.347V145.45C284.985 147.736 286.848 150.637 289.15 150.637C291.452 150.637 293.309 147.736 293.309 145.45V144.347C293.309 143.821 293.099 143.316 292.724 142.944C292.35 142.572 291.841 142.363 291.311 142.363V142.363Z" fill="white" stroke="#263238" stroke-linecap="round" stroke-linejoin="round"/>
<path d="M171.981 131.798H167.664C167.134 131.798 166.626 132.007 166.251 132.379C165.877 132.751 165.666 133.256 165.666 133.782V134.884C165.666 137.164 167.53 140.071 169.831 140.071C172.133 140.071 173.991 137.17 173.991 134.884V133.782C173.991 133.52 173.938 133.261 173.837 133.02C173.736 132.778 173.588 132.559 173.401 132.375C173.214 132.19 172.993 132.044 172.749 131.945C172.505 131.846 172.244 131.796 171.981 131.798V131.798Z" fill="white" stroke="#263238" stroke-linecap="round" stroke-linejoin="round"/>
<path d="M182.356 131.797H178.028C177.498 131.797 176.99 132.007 176.615 132.379C176.24 132.751 176.03 133.256 176.03 133.782V134.884C176.03 137.164 177.893 140.071 180.195 140.071C182.497 140.071 184.36 137.17 184.36 134.884V133.782C184.359 133.255 184.147 132.75 183.771 132.378C183.396 132.006 182.887 131.797 182.356 131.797V131.797Z" fill="white" stroke="#263238" stroke-linecap="round" stroke-linejoin="round"/>
<path d="M192.737 131.797H188.409C187.878 131.797 187.369 132.006 186.994 132.378C186.618 132.75 186.406 133.255 186.405 133.782V134.884C186.405 137.164 188.274 140.071 190.57 140.071C192.866 140.071 194.735 137.17 194.735 134.884V133.782C194.735 133.256 194.525 132.751 194.15 132.379C193.775 132.007 193.267 131.797 192.737 131.797V131.797Z" fill="white" stroke="#263238" stroke-linecap="round" stroke-linejoin="round"/>
<path d="M203.112 131.797H198.783C198.253 131.797 197.745 132.007 197.37 132.379C196.996 132.751 196.785 133.256 196.785 133.782V134.884C196.785 137.164 198.649 140.071 200.944 140.071C203.24 140.071 205.11 137.17 205.11 134.884V133.782C205.11 133.521 205.058 133.263 204.958 133.022C204.857 132.782 204.71 132.563 204.525 132.379C204.339 132.194 204.119 132.048 203.876 131.949C203.634 131.849 203.374 131.797 203.112 131.797V131.797Z" fill="white" stroke="#263238" stroke-linecap="round" stroke-linejoin="round"/>
<path d="M213.487 131.797H209.14C208.611 131.797 208.102 132.007 207.728 132.379C207.353 132.751 207.143 133.256 207.143 133.782V134.884C207.143 137.164 209.006 140.071 211.308 140.071C213.609 140.071 215.467 137.17 215.467 134.884V133.782C215.467 133.259 215.259 132.756 214.888 132.385C214.517 132.013 214.014 131.802 213.487 131.797V131.797Z" fill="white" stroke="#263238" stroke-linecap="round" stroke-linejoin="round"/>
<path d="M223.862 131.797H219.534C219.004 131.797 218.495 132.007 218.121 132.379C217.746 132.751 217.536 133.256 217.536 133.782V134.884C217.536 137.164 219.399 140.071 221.701 140.071C224.002 140.071 225.866 137.17 225.866 134.884V133.782C225.864 133.255 225.653 132.75 225.277 132.378C224.901 132.006 224.393 131.797 223.862 131.797V131.797Z" fill="white" stroke="#263238" stroke-linecap="round" stroke-linejoin="round"/>
<path d="M234.26 131.797H229.931C229.401 131.797 228.892 132.006 228.517 132.378C228.141 132.75 227.929 133.255 227.928 133.782V134.884C227.928 137.164 229.797 140.071 232.093 140.071C234.389 140.071 236.258 137.17 236.258 134.884V133.782C236.258 133.256 236.048 132.751 235.673 132.379C235.298 132.007 234.79 131.797 234.26 131.797V131.797Z" fill="white" stroke="#263238" stroke-linecap="round" stroke-linejoin="round"/>
<path d="M244.618 131.797H240.289C239.759 131.797 239.251 132.007 238.876 132.379C238.502 132.751 238.291 133.256 238.291 133.782V134.884C238.291 137.164 240.155 140.071 242.45 140.071C244.746 140.071 246.616 137.17 246.616 134.884V133.782C246.616 133.256 246.405 132.751 246.03 132.379C245.656 132.007 245.148 131.797 244.618 131.797Z" fill="white" stroke="#263238" stroke-linecap="round" stroke-linejoin="round"/>
<path d="M254.993 131.797H250.664C250.134 131.797 249.626 132.007 249.251 132.379C248.876 132.751 248.666 133.256 248.666 133.782V134.884C248.666 137.164 250.53 140.071 252.831 140.071C255.133 140.071 256.991 137.17 256.991 134.884V133.782C256.991 133.256 256.78 132.751 256.405 132.379C256.031 132.007 255.523 131.797 254.993 131.797Z" fill="white" stroke="#263238" stroke-linecap="round" stroke-linejoin="round"/>
<path d="M265.368 131.797H261.039C260.509 131.797 260.001 132.007 259.626 132.379C259.251 132.751 259.041 133.256 259.041 133.782V134.884C259.041 137.164 260.905 140.071 263.206 140.071C265.508 140.071 267.371 137.17 267.371 134.884V133.782C267.37 133.255 267.158 132.75 266.782 132.378C266.407 132.006 265.898 131.797 265.368 131.797V131.797Z" fill="white" stroke="#263238" stroke-linecap="round" stroke-linejoin="round"/>
<path d="M275.737 131.797H271.408C270.878 131.797 270.369 132.006 269.993 132.378C269.618 132.75 269.406 133.255 269.404 133.782V134.884C269.404 137.164 271.274 140.071 273.569 140.071C275.865 140.071 277.735 137.17 277.735 134.884V133.782C277.735 133.256 277.524 132.751 277.15 132.379C276.775 132.007 276.267 131.797 275.737 131.797Z" fill="white" stroke="#263238" stroke-linecap="round" stroke-linejoin="round"/>
<path d="M286.124 131.798H281.795C281.27 131.805 280.769 132.018 280.401 132.389C280.033 132.76 279.826 133.261 279.826 133.782V134.884C279.826 137.164 281.69 140.071 283.985 140.071C286.281 140.071 288.151 137.17 288.151 134.884V133.782C288.151 133.519 288.098 133.258 287.996 133.016C287.894 132.773 287.744 132.553 287.555 132.368C287.367 132.184 287.143 132.038 286.897 131.94C286.651 131.842 286.388 131.794 286.124 131.798V131.798Z" fill="white" stroke="#263238" stroke-linecap="round" stroke-linejoin="round"/>
<path d="M296.499 131.797H292.17C291.64 131.797 291.132 132.007 290.758 132.379C290.383 132.751 290.172 133.256 290.172 133.782V134.884C290.172 137.164 292.036 140.071 294.338 140.071C296.639 140.071 298.497 137.17 298.497 134.884V133.782C298.497 133.256 298.286 132.751 297.912 132.379C297.537 132.007 297.029 131.797 296.499 131.797V131.797Z" fill="white" stroke="#263238" stroke-linecap="round" stroke-linejoin="round"/>
<path d="M271.706 153.364H192.445C191.409 153.364 190.57 154.197 190.57 155.226V160.877C190.57 161.906 191.409 162.74 192.445 162.74H271.706C272.742 162.74 273.581 161.906 273.581 160.877V155.226C273.581 154.197 272.742 153.364 271.706 153.364Z" fill="white" stroke="#263238" stroke-linecap="round" stroke-linejoin="round"/>
<path d="M282.321 153.915H277.992C277.462 153.915 276.954 154.124 276.579 154.496C276.205 154.868 275.994 155.373 275.994 155.899V157.001C275.994 159.287 277.858 162.188 280.159 162.188C282.461 162.188 284.319 159.287 284.319 157.001V155.899C284.319 155.373 284.108 154.868 283.733 154.496C283.359 154.124 282.851 153.915 282.321 153.915Z" fill="white" stroke="#263238" stroke-linecap="round" stroke-linejoin="round"/>
<path d="M186.159 153.915H181.83C181.301 153.915 180.792 154.124 180.418 154.496C180.043 154.868 179.833 155.373 179.833 155.899V157.001C179.833 159.287 181.696 162.188 183.998 162.188C186.299 162.188 188.163 159.287 188.163 157.001V155.899C188.161 155.372 187.95 154.868 187.574 154.496C187.198 154.124 186.69 153.915 186.159 153.915V153.915Z" fill="white" stroke="#263238" stroke-linecap="round" stroke-linejoin="round"/>
<path opacity="0.2" d="M177.408 123.675C177.618 123.676 177.827 123.695 178.033 123.733C178.033 123.692 178.033 123.651 178.033 123.611V122.508C178.032 122.28 177.94 122.062 177.776 121.901C177.613 121.74 177.393 121.65 177.163 121.65H172.834C172.605 121.651 172.386 121.742 172.225 121.903C172.063 122.064 171.971 122.281 171.97 122.508V123.611C171.97 125.195 173.138 127.191 174.517 127.591C174.09 125.833 175.048 123.675 177.408 123.675Z" fill="black"/>
<path opacity="0.2" d="M188.017 123.379C188.149 123.37 188.282 123.37 188.414 123.379V122.485C188.413 122.258 188.321 122.041 188.159 121.88C187.998 121.719 187.779 121.628 187.55 121.627H183.221C182.991 121.627 182.771 121.717 182.608 121.878C182.445 122.039 182.352 122.257 182.351 122.485V123.588C182.351 125.328 183.735 127.504 185.271 127.649C184.565 125.851 185.493 123.379 188.017 123.379Z" fill="black"/>
<path opacity="0.2" d="M198.701 123.228H198.789V122.503C198.789 122.275 198.698 122.057 198.536 121.896C198.373 121.735 198.154 121.644 197.924 121.644H193.596C193.366 121.644 193.145 121.734 192.982 121.895C192.819 122.056 192.727 122.274 192.725 122.503V123.605C192.725 125.375 194.197 127.666 195.757 127.666C195.833 127.672 195.909 127.672 195.985 127.666C195.202 125.833 196.107 123.228 198.701 123.228Z" fill="black"/>
<path opacity="0.2" d="M208.417 122.932C208.659 122.925 208.902 122.945 209.141 122.99V122.485C209.141 122.258 209.05 122.039 208.888 121.878C208.726 121.717 208.506 121.627 208.276 121.627H203.948C203.718 121.627 203.498 121.717 203.336 121.878C203.174 122.039 203.083 122.258 203.083 122.485V123.588C203.083 125.247 204.368 127.359 205.817 127.649C204.824 125.827 205.683 122.932 208.417 122.932Z" fill="black"/>
<path opacity="0.2" d="M219.323 122.932H219.545V122.497C219.544 122.269 219.451 122.05 219.288 121.889C219.125 121.728 218.905 121.638 218.675 121.638H214.346C214.117 121.64 213.898 121.731 213.736 121.891C213.575 122.052 213.483 122.27 213.481 122.497V123.599C213.481 125.369 214.954 127.661 216.513 127.661C216.593 127.666 216.673 127.666 216.753 127.661C215.731 125.833 216.589 122.932 219.323 122.932Z" fill="black"/>
<path opacity="0.2" d="M229.785 122.99H229.92V122.485C229.918 122.258 229.827 122.041 229.665 121.88C229.503 121.719 229.284 121.628 229.055 121.627H224.726C224.497 121.627 224.276 121.717 224.113 121.878C223.95 122.039 223.857 122.257 223.856 122.485V123.588C223.856 125.357 225.328 127.649 226.888 127.649C226.983 127.658 227.079 127.658 227.174 127.649C226.216 125.822 227.086 122.99 229.785 122.99Z" fill="black"/>
<path opacity="0.2" d="M239.798 122.932C239.964 122.934 240.13 122.946 240.295 122.967V122.508C240.295 122.281 240.204 122.062 240.042 121.901C239.879 121.74 239.659 121.65 239.43 121.65H235.101C234.872 121.65 234.652 121.74 234.49 121.901C234.328 122.062 234.237 122.281 234.237 122.508V123.611C234.237 125.351 235.686 127.637 237.234 127.672C236.2 125.85 237.053 122.932 239.798 122.932Z" fill="black"/>
<path opacity="0.2" d="M250.67 123.083V122.503C250.67 122.275 250.579 122.057 250.417 121.896C250.255 121.735 250.035 121.644 249.806 121.644H245.477C245.248 121.644 245.028 121.735 244.866 121.896C244.703 122.057 244.612 122.275 244.612 122.503V123.605C244.612 125.375 246.079 127.667 247.644 127.667C247.801 127.664 247.956 127.639 248.106 127.591C247.264 125.804 248.123 123.164 250.67 123.083Z" fill="black"/>
<path opacity="0.2" d="M260.198 122.857C260.486 122.856 260.772 122.893 261.051 122.967V122.508C261.049 122.28 260.957 122.062 260.794 121.901C260.631 121.74 260.41 121.65 260.18 121.65H255.875C255.646 121.651 255.427 121.742 255.265 121.903C255.103 122.064 255.012 122.281 255.01 122.508V123.611C255.01 125.247 256.26 127.313 257.68 127.626C256.588 125.81 257.435 122.857 260.198 122.857Z" fill="black"/>
<path opacity="0.2" d="M270.806 122.857C271.014 122.857 271.221 122.877 271.426 122.915V122.508C271.424 122.281 271.332 122.064 271.171 121.903C271.009 121.742 270.79 121.651 270.561 121.65H266.232C266.002 121.65 265.782 121.74 265.619 121.901C265.456 122.062 265.363 122.28 265.362 122.508V123.611C265.362 125.351 266.764 127.562 268.283 127.672C267.184 125.85 268.026 122.857 270.806 122.857Z" fill="black"/>
<path opacity="0.2" d="M281.345 123.152C281.497 123.155 281.65 123.167 281.801 123.187V122.508C281.801 122.281 281.71 122.062 281.547 121.901C281.385 121.74 281.165 121.65 280.936 121.65H276.607C276.494 121.65 276.381 121.672 276.276 121.715C276.171 121.758 276.076 121.822 275.996 121.901C275.916 121.981 275.852 122.076 275.808 122.18C275.765 122.284 275.743 122.396 275.743 122.508V123.611C275.743 125.351 277.145 127.556 278.664 127.672C277.817 125.839 278.71 123.152 281.345 123.152Z" fill="black"/>
<path opacity="0.2" d="M292.176 123.019V122.508C292.176 122.281 292.084 122.062 291.922 121.901C291.76 121.74 291.54 121.65 291.311 121.65H286.982C286.753 121.65 286.533 121.74 286.371 121.901C286.209 122.062 286.118 122.281 286.118 122.508V123.611C286.118 125.38 287.584 127.672 289.15 127.672C289.375 127.669 289.597 127.622 289.804 127.533C288.974 125.781 289.757 123.216 292.176 123.019Z" fill="black"/>
<path opacity="0.2" d="M177.706 144.457C177.817 144.452 177.928 144.452 178.039 144.457V144.336C178.038 144.107 177.945 143.889 177.782 143.728C177.619 143.567 177.399 143.477 177.169 143.477H172.84C172.611 143.478 172.392 143.569 172.231 143.73C172.069 143.891 171.977 144.108 171.976 144.336V145.438C171.976 147.208 173.448 149.499 175.007 149.499C175.115 149.497 175.223 149.485 175.329 149.465C174.02 147.701 174.815 144.457 177.706 144.457Z" fill="black"/>
<path opacity="0.2" d="M187.871 144.458C188.053 144.458 188.235 144.474 188.414 144.504V144.353C188.413 144.126 188.321 143.908 188.159 143.748C187.998 143.587 187.779 143.496 187.55 143.494H183.221C182.991 143.494 182.771 143.585 182.608 143.746C182.445 143.906 182.352 144.125 182.351 144.353V145.455C182.351 147.225 183.823 149.517 185.382 149.517H185.511C184.173 147.73 184.962 144.458 187.871 144.458Z" fill="black"/>
<path opacity="0.2" d="M198.181 144.603C198.377 144.603 198.573 144.621 198.765 144.655V144.347C198.765 144.235 198.743 144.123 198.7 144.019C198.656 143.915 198.592 143.82 198.512 143.74C198.432 143.66 198.337 143.597 198.232 143.554C198.127 143.511 198.014 143.489 197.901 143.489H193.572C193.342 143.489 193.122 143.579 192.959 143.74C192.796 143.901 192.703 144.119 192.702 144.347V145.45C192.702 147.19 194.15 149.471 195.698 149.511C194.536 147.707 195.348 144.603 198.181 144.603Z" fill="black"/>
<path opacity="0.2" d="M208.715 144.678C208.865 144.678 209.015 144.688 209.164 144.707V144.347C209.164 144.235 209.142 144.123 209.099 144.019C209.055 143.915 208.991 143.82 208.911 143.74C208.831 143.66 208.736 143.597 208.631 143.554C208.526 143.511 208.413 143.489 208.3 143.489H203.971C203.857 143.489 203.745 143.511 203.64 143.554C203.535 143.597 203.44 143.66 203.36 143.74C203.279 143.82 203.216 143.915 203.172 144.019C203.129 144.123 203.106 144.235 203.106 144.347V145.45C203.106 147.219 204.573 149.511 206.138 149.511H206.208C205.087 147.695 205.922 144.678 208.715 144.678Z" fill="black"/>
<path opacity="0.2" d="M218.879 144.458C219.103 144.458 219.326 144.479 219.545 144.521V144.353C219.544 144.125 219.451 143.906 219.288 143.746C219.125 143.585 218.905 143.494 218.675 143.494H214.346C214.117 143.496 213.898 143.587 213.736 143.748C213.575 143.908 213.483 144.126 213.481 144.353V145.455C213.481 147.225 214.954 149.517 216.513 149.517C215.181 147.741 215.964 144.458 218.879 144.458Z" fill="black"/>
<path opacity="0.2" d="M229.411 144.527C229.582 144.528 229.752 144.542 229.92 144.568V144.347C229.918 144.12 229.827 143.903 229.665 143.742C229.503 143.581 229.284 143.49 229.055 143.489H224.726C224.497 143.489 224.276 143.579 224.113 143.74C223.95 143.901 223.857 144.119 223.856 144.347V145.45C223.856 147.219 225.328 149.511 226.888 149.511H226.999C225.737 147.713 226.543 144.527 229.411 144.527Z" fill="black"/>
<path opacity="0.2" d="M240.172 144.748H240.295V144.341C240.295 144.114 240.204 143.895 240.042 143.734C239.879 143.573 239.659 143.483 239.43 143.483H235.101C234.872 143.483 234.652 143.573 234.49 143.734C234.328 143.895 234.237 144.114 234.237 144.341V145.444C234.237 147.213 235.703 149.505 237.263 149.505C237.377 149.504 237.49 149.49 237.602 149.465C236.597 147.654 237.432 144.748 240.172 144.748Z" fill="black"/>
<path opacity="0.2" d="M250.618 144.527H250.653V144.347C250.653 144.235 250.63 144.123 250.587 144.019C250.543 143.915 250.48 143.82 250.4 143.74C250.319 143.66 250.224 143.597 250.119 143.554C250.014 143.511 249.902 143.489 249.788 143.489H245.477C245.363 143.489 245.251 143.511 245.146 143.554C245.041 143.597 244.946 143.66 244.866 143.74C244.785 143.82 244.722 143.915 244.678 144.019C244.635 144.123 244.612 144.235 244.612 144.347V145.45C244.612 147.219 246.079 149.511 247.644 149.511C247.823 149.508 248.001 149.477 248.17 149.418C246.984 147.62 247.808 144.527 250.618 144.527Z" fill="black"/>
<path opacity="0.2" d="M260.718 144.307H261.045C261.036 144.084 260.941 143.874 260.78 143.72C260.619 143.565 260.404 143.478 260.18 143.477H255.875C255.646 143.478 255.427 143.569 255.265 143.73C255.103 143.891 255.012 144.108 255.01 144.336V145.438C255.01 147.208 256.482 149.499 258.042 149.499C258.184 149.495 258.326 149.474 258.463 149.436C256.996 147.707 257.756 144.307 260.718 144.307Z" fill="black"/>
<path opacity="0.2" d="M271.408 144.458V144.353C271.406 144.126 271.315 143.908 271.153 143.748C270.991 143.587 270.772 143.496 270.543 143.494H266.215C265.985 143.494 265.764 143.585 265.601 143.746C265.438 143.906 265.346 144.125 265.344 144.353V145.455C265.344 147.225 266.816 149.517 268.376 149.517C268.575 149.514 268.773 149.478 268.96 149.412C267.739 147.614 268.546 144.458 271.408 144.458Z" fill="black"/>
<path opacity="0.2" d="M281.579 144.458H281.813V144.341C281.813 144.229 281.79 144.117 281.747 144.013C281.704 143.909 281.64 143.814 281.56 143.734C281.479 143.655 281.384 143.591 281.279 143.548C281.174 143.505 281.062 143.483 280.948 143.483H276.619C276.39 143.483 276.17 143.573 276.008 143.734C275.846 143.895 275.755 144.114 275.755 144.341V145.444C275.755 147.213 277.221 149.505 278.781 149.505C278.919 149.503 279.057 149.484 279.19 149.447C277.887 147.672 278.687 144.458 281.579 144.458Z" fill="black"/>
<path opacity="0.2" d="M291.802 144.898C291.93 144.898 292.059 144.898 292.176 144.898V144.318C292.176 144.091 292.084 143.872 291.922 143.711C291.76 143.55 291.54 143.46 291.311 143.46H286.982C286.753 143.46 286.533 143.55 286.371 143.711C286.209 143.872 286.118 144.091 286.118 144.318V145.421C286.118 147.19 287.584 149.482 289.15 149.482C288.244 147.683 289.12 144.898 291.802 144.898Z" fill="black"/>
<path opacity="0.2" d="M172.776 134.066H172.852V133.782C172.85 133.554 172.758 133.335 172.595 133.174C172.432 133.013 172.211 132.923 171.981 132.923H167.664C167.435 132.923 167.215 133.014 167.053 133.175C166.891 133.336 166.8 133.554 166.8 133.782V134.884C166.8 136.654 168.266 138.946 169.832 138.946C169.982 138.942 170.131 138.918 170.276 138.876C169.154 137.066 170.001 134.066 172.776 134.066Z" fill="black"/>
<path opacity="0.2" d="M182.935 134.066H183.227V133.77C183.225 133.542 183.133 133.324 182.97 133.163C182.807 133.002 182.586 132.911 182.356 132.911H178.028C177.799 132.913 177.58 133.004 177.418 133.165C177.256 133.325 177.165 133.543 177.163 133.77V134.873C177.163 136.642 178.635 138.934 180.195 138.934C180.281 138.94 180.366 138.94 180.452 138.934C179.301 137.118 180.131 134.066 182.935 134.066Z" fill="black"/>
<path opacity="0.2" d="M193.549 134.066H193.602V133.782C193.6 133.555 193.509 133.337 193.347 133.176C193.185 133.016 192.966 132.925 192.737 132.923H188.408C188.294 132.922 188.18 132.943 188.073 132.985C187.967 133.027 187.869 133.09 187.787 133.17C187.706 133.25 187.64 133.345 187.595 133.45C187.551 133.555 187.527 133.668 187.526 133.782V134.884C187.526 136.654 188.998 138.946 190.558 138.946C190.715 138.944 190.871 138.918 191.02 138.87C189.927 137.066 190.763 134.066 193.549 134.066Z" fill="black"/>
<path opacity="0.2" d="M203.708 134.014H203.976V133.793C203.976 133.566 203.885 133.347 203.723 133.186C203.561 133.025 203.341 132.935 203.112 132.935H198.783C198.554 132.935 198.334 133.025 198.172 133.186C198.01 133.347 197.918 133.566 197.918 133.793V134.896C197.918 136.665 199.385 138.957 200.944 138.957C201.05 138.955 201.156 138.943 201.26 138.922C200.051 137.118 200.869 134.014 203.708 134.014Z" fill="black"/>
<path opacity="0.2" d="M213.814 134.066C214 134.066 214.186 134.082 214.369 134.113V133.782C214.369 133.554 214.278 133.336 214.116 133.175C213.954 133.014 213.734 132.923 213.505 132.923H209.141C208.912 132.923 208.692 133.014 208.53 133.175C208.367 133.336 208.276 133.554 208.276 133.782V134.884C208.276 136.654 209.743 138.946 211.308 138.946C210.152 137.141 210.975 134.066 213.814 134.066Z" fill="black"/>
<path opacity="0.2" d="M224.259 133.695C224.415 133.695 224.571 133.705 224.726 133.724C224.71 133.507 224.612 133.304 224.452 133.155C224.292 133.007 224.081 132.924 223.862 132.923H219.533C219.304 132.925 219.085 133.016 218.923 133.176C218.762 133.337 218.67 133.555 218.668 133.782V134.884C218.668 136.654 220.141 138.946 221.7 138.946C221.812 138.943 221.924 138.93 222.033 138.905C220.514 137.182 221.256 133.695 224.259 133.695Z" fill="black"/>
<path opacity="0.2" d="M234.716 134.136C234.85 134.136 234.985 134.136 235.107 134.136V133.759C235.106 133.531 235.014 133.314 234.852 133.153C234.69 132.992 234.471 132.901 234.243 132.9H229.914C229.684 132.9 229.464 132.99 229.3 133.151C229.137 133.312 229.045 133.53 229.043 133.759V134.861C229.043 136.631 230.516 138.922 232.075 138.922H232.192C231.1 137.124 231.923 134.136 234.716 134.136Z" fill="black"/>
<path opacity="0.2" d="M245.482 133.782C245.482 133.554 245.391 133.336 245.229 133.175C245.067 133.014 244.847 132.923 244.618 132.923H240.289C240.175 132.923 240.063 132.945 239.958 132.988C239.853 133.032 239.758 133.095 239.678 133.175C239.597 133.254 239.534 133.349 239.49 133.453C239.447 133.557 239.424 133.669 239.424 133.782V134.884C239.424 136.654 240.891 138.946 242.45 138.946C242.762 138.938 243.067 138.854 243.338 138.702C242.158 136.973 242.871 134.014 245.482 133.782Z" fill="black"/>
<path opacity="0.2" d="M255.875 134.014V133.793C255.875 133.566 255.784 133.347 255.622 133.186C255.459 133.025 255.24 132.935 255.01 132.935H250.681C250.452 132.935 250.232 133.025 250.07 133.186C249.908 133.347 249.817 133.566 249.817 133.793V134.896C249.817 136.665 251.283 138.957 252.849 138.957C253.1 138.953 253.347 138.896 253.573 138.789C252.504 137.019 253.269 134.159 255.875 134.014Z" fill="black"/>
<path opacity="0.2" d="M265.876 133.84C265.999 133.84 266.121 133.84 266.238 133.84V133.764C266.237 133.536 266.144 133.318 265.981 133.157C265.818 132.996 265.598 132.906 265.368 132.906H261.039C260.81 132.907 260.591 132.998 260.429 133.159C260.267 133.32 260.176 133.537 260.174 133.764V134.867C260.174 136.636 261.646 138.928 263.206 138.928C263.316 138.926 263.426 138.913 263.533 138.888C262.178 137.141 262.955 133.84 265.876 133.84Z" fill="black"/>
<path opacity="0.2" d="M276.613 134.217V133.782C276.612 133.555 276.52 133.337 276.358 133.176C276.196 133.016 275.977 132.925 275.748 132.923H271.42C271.19 132.923 270.969 133.013 270.806 133.174C270.643 133.335 270.551 133.554 270.549 133.782V134.884C270.549 136.654 272.021 138.946 273.581 138.946C273.758 138.943 273.933 138.913 274.101 138.859C273.149 137.06 273.984 134.287 276.613 134.217Z" fill="black"/>
<path opacity="0.2" d="M286.498 133.915C286.662 133.918 286.826 133.929 286.989 133.95V133.782C286.989 133.554 286.897 133.336 286.735 133.175C286.573 133.014 286.353 132.923 286.124 132.923H281.795C281.682 132.923 281.569 132.945 281.464 132.988C281.359 133.032 281.264 133.095 281.184 133.175C281.104 133.254 281.04 133.349 280.996 133.453C280.953 133.557 280.931 133.669 280.931 133.782V134.884C280.931 136.654 282.397 138.946 283.957 138.946C284.011 138.949 284.066 138.949 284.12 138.946C282.812 137.153 283.606 133.915 286.498 133.915Z" fill="black"/>
<path opacity="0.2" d="M296.96 134.362C297.094 134.353 297.229 134.353 297.363 134.362V133.782C297.363 133.554 297.272 133.336 297.11 133.175C296.948 133.014 296.728 132.923 296.499 132.923H292.17C291.94 132.923 291.721 133.014 291.558 133.175C291.396 133.336 291.305 133.554 291.305 133.782V134.884C291.305 136.625 292.76 138.946 294.32 138.946C293.408 137.118 294.29 134.362 296.96 134.362Z" fill="black"/>
<path opacity="0.2" d="M272.448 160.912V155.191C272.448 154.804 272.132 154.489 271.741 154.489H192.41C192.02 154.489 191.703 154.804 191.703 155.191V160.912C191.703 161.3 192.02 161.614 192.41 161.614H271.741C272.132 161.614 272.448 161.3 272.448 160.912Z" fill="black"/>
<path opacity="0.2" d="M283.185 156.473V155.893C283.185 155.78 283.163 155.669 283.12 155.565C283.076 155.46 283.012 155.366 282.932 155.286C282.852 155.206 282.757 155.143 282.652 155.1C282.547 155.057 282.434 155.035 282.321 155.035H277.992C277.878 155.035 277.766 155.057 277.661 155.1C277.556 155.143 277.461 155.206 277.381 155.286C277.3 155.366 277.237 155.46 277.193 155.565C277.15 155.669 277.127 155.78 277.127 155.893V156.996C277.127 158.765 278.594 161.057 280.159 161.057C280.289 161.054 280.419 161.036 280.545 161.005C279.68 159.195 280.562 156.491 283.185 156.473Z" fill="black"/>
<path opacity="0.2" d="M186.521 156.102C186.692 156.103 186.861 156.117 187.03 156.143V155.899C187.028 155.671 186.936 155.452 186.773 155.292C186.61 155.131 186.389 155.04 186.159 155.04H181.83C181.602 155.042 181.383 155.133 181.221 155.294C181.059 155.454 180.967 155.672 180.966 155.899V157.001C180.966 158.771 182.438 161.063 183.998 161.063H184.097C182.853 159.264 183.671 156.102 186.521 156.102Z" fill="black"/>
<path opacity="0.2" d="M160.479 35.09H303.672C304.656 35.09 305.599 35.4781 306.295 36.1691C306.991 36.86 307.382 37.7971 307.382 38.7742V71.2654H156.769V38.7742C156.769 37.7971 157.16 36.86 157.856 36.1691C158.551 35.4781 159.495 35.09 160.479 35.09V35.09Z" fill="black"/>
<path d="M291.966 41.2169H172.209C171.211 32.98 169.451 24.8519 166.952 16.9355H297.247C294.708 24.8429 292.94 32.9739 291.966 41.2169V41.2169Z" fill="white"/>
<path opacity="0.2" d="M293.145 33.39C292.275 38.1128 291.977 41.2169 291.977 41.2169H172.221C172.221 41.2169 171.917 38.1709 171.023 33.39H293.145Z" fill="black"/>
<path d="M291.966 41.2169H172.209C171.211 32.98 169.451 24.8519 166.952 16.9355H297.247C294.708 24.8429 292.94 32.9739 291.966 41.2169V41.2169Z" stroke="#263238" stroke-linecap="round" stroke-linejoin="round"/>
<path d="M290.335 61.6632H172.852V109.669H290.335V61.6632Z" fill="#263238"/>
<g opacity="0.4">
<path opacity="0.4" d="M228.664 105.422L229.283 105.451C230.062 93.4793 230.841 81.4885 231.619 69.4784C230.626 81.4924 229.641 93.4735 228.664 105.422Z" fill="white"/>
<path opacity="0.4" d="M226.666 105.271L227.285 105.323C228.636 93.4289 229.986 81.4826 231.333 69.4841C229.779 81.4904 228.223 93.4193 226.666 105.271Z" fill="white"/>
<path opacity="0.4" d="M224.721 105.05C224.925 105.05 225.135 105.097 225.34 105.12C227.256 93.3536 229.184 81.473 231.123 69.4784C228.981 81.4846 226.847 93.342 224.721 105.05Z" fill="white"/>
<path opacity="0.4" d="M222.751 104.754L223.377 104.853C225.861 93.2491 228.365 81.4517 230.889 69.4609C228.163 81.4633 225.45 93.2278 222.751 104.754Z" fill="white"/>
<path opacity="0.4" d="M220.789 104.389L221.42 104.517C224.458 93.1331 227.536 81.4517 230.656 69.4725C227.338 81.4556 224.049 93.0944 220.789 104.389Z" fill="white"/>
<path opacity="0.4" d="M218.838 103.948L219.469 104.105C223.05 92.9763 226.73 81.4362 230.422 69.4667C226.514 81.4362 222.618 92.9241 218.838 103.948Z" fill="white"/>
<path opacity="0.4" d="M216.893 103.426L217.529 103.611C221.619 92.7965 225.901 81.413 230.188 69.4551C225.684 81.413 221.198 92.7327 216.893 103.426Z" fill="white"/>
<path opacity="0.4" d="M214.982 102.834L215.619 103.037C220.24 92.5934 225.089 81.3897 229.972 69.4492C224.849 81.3897 219.779 92.5121 214.982 102.834Z" fill="white"/>
<path opacity="0.4" d="M213.042 102.155L213.685 102.387C218.802 92.3382 224.241 81.3608 229.721 69.4377C224.013 81.3608 218.347 92.2396 213.042 102.155Z" fill="white"/>
<path opacity="0.4" d="M211.15 101.389L211.792 101.656C217.377 92.0597 223.406 81.3492 229.487 69.4261C223.161 81.326 216.916 91.9785 211.15 101.389Z" fill="white"/>
<path opacity="0.4" d="M209.275 100.53L209.918 100.838C215.946 91.7579 222.565 81.2853 229.254 69.4144C222.325 81.2853 215.479 91.6593 209.275 100.53Z" fill="white"/>
<path opacity="0.4" d="M207.429 99.579L208.071 99.9272C214.497 91.4156 221.724 81.239 229.02 69.3971C222.365 79.8299 215.158 89.9047 207.429 99.579V99.579Z" fill="white"/>
<path opacity="0.4" d="M205.636 98.5347C205.846 98.6681 206.068 98.79 206.284 98.9176C214.392 89.5387 221.914 79.6762 228.81 69.3855C221.753 79.6077 214.011 89.3462 205.636 98.5347Z" fill="white"/>
<path opacity="0.4" d="M203.842 97.3801L204.479 97.8152C213.227 88.9673 221.276 79.4626 228.552 69.3855C221.124 79.3918 212.858 88.7567 203.842 97.3801V97.3801Z" fill="white"/>
<path opacity="0.4" d="M228.319 69.3507C218.92 81.0417 209.725 89.9594 202.13 96.1211L202.755 96.6027C212.131 88.3481 220.691 79.2227 228.319 69.3507V69.3507Z" fill="white"/>
<path opacity="0.4" d="M228.086 69.3333C218.073 80.9372 208.288 89.4197 200.466 94.7576L201.085 95.2855C208.802 89.6112 218.336 80.9662 228.086 69.3333Z" fill="white"/>
<path opacity="0.4" d="M227.834 69.3159C217.22 80.8329 206.88 88.8164 198.882 93.2723C199.075 93.4696 199.268 93.6669 199.467 93.8525C207.388 89.0369 217.5 80.8619 227.834 69.3159Z" fill="white"/>
<path opacity="0.4" d="M227.618 69.2926C216.425 80.6935 205.548 88.1491 197.422 91.6883L198.006 92.3207C206.05 88.3928 216.682 80.7283 227.618 69.2926Z" fill="white"/>
<path opacity="0.4" d="M196.079 89.9942C196.248 90.2262 196.423 90.4583 196.599 90.6846C204.748 87.6966 215.876 80.5659 227.391 69.2753C215.643 80.5137 204.275 87.4123 196.079 89.9942Z" fill="white"/>
<path opacity="0.4" d="M194.886 88.2306C195.038 88.4743 195.196 88.7179 195.354 88.9616C203.532 86.9193 215.145 80.3573 227.156 69.2349C214.912 80.2935 203.094 86.6118 194.886 88.2306Z" fill="white"/>
<path opacity="0.4" d="M193.87 86.4377C193.999 86.693 194.133 86.9425 194.267 87.1978C202.446 86.0954 214.457 80.1135 226.923 69.2406C214.252 80.0091 202.049 85.7415 193.87 86.4377Z" fill="white"/>
<path opacity="0.4" d="M193.041 84.6041C193.146 84.8594 193.257 85.1205 193.368 85.3758C201.499 85.1785 213.814 79.7885 226.666 69.1998C213.668 79.6782 201.161 84.8072 193.041 84.6041Z" fill="white"/>
<path opacity="0.4" d="M230.644 105.503H231.257C231.444 93.5121 231.639 81.5059 231.842 69.4841C231.433 81.4981 231.033 93.5044 230.644 105.503Z" fill="white"/>
<path opacity="0.4" d="M232.619 105.514H233.238C232.849 93.5237 232.459 81.5175 232.07 69.4957L232.619 105.514Z" fill="white"/>
<path opacity="0.4" d="M234.593 105.462H235.212C234.239 93.5101 233.265 81.5193 232.292 69.4899C233.059 81.5039 233.826 93.4946 234.593 105.462Z" fill="white"/>
<path opacity="0.4" d="M236.597 105.34L237.216 105.294C235.659 93.4309 234.101 81.4943 232.543 69.4841C233.883 81.4943 235.234 93.4464 236.597 105.34Z" fill="white"/>
<path opacity="0.4" d="M238.542 105.155L239.161 105.079C237.043 93.3555 234.901 81.4885 232.735 69.4784C234.687 81.4885 236.622 93.3807 238.542 105.155Z" fill="white"/>
<path opacity="0.4" d="M240.511 104.894L241.136 104.801C238.449 93.2549 235.732 81.4808 232.987 69.4784C235.51 81.4846 238.019 93.2898 240.511 104.894Z" fill="white"/>
<path opacity="0.4" d="M242.474 104.563L243.099 104.447C239.855 93.1292 236.562 81.471 233.22 69.4725C236.328 81.471 239.412 93.1679 242.474 104.563Z" fill="white"/>
<path opacity="0.4" d="M244.425 104.157L245.062 104.012C241.276 92.9879 237.374 81.4594 233.454 69.4667C237.158 81.4613 240.815 93.0247 244.425 104.157Z" fill="white"/>
<path opacity="0.4" d="M246.376 103.681L247.007 103.501C242.696 92.7849 238.203 81.4536 233.688 69.4551C237.981 81.442 242.257 92.8197 246.376 103.681Z" fill="white"/>
<path opacity="0.4" d="M248.31 103.118L248.952 102.909C244.121 92.5701 239.021 81.4419 233.921 69.4492C238.817 81.4187 243.677 92.634 248.31 103.118Z" fill="white"/>
<path opacity="0.4" d="M250.231 102.474L250.874 102.236C245.558 92.3208 239.88 81.3956 234.155 69.4377C239.652 81.3956 245.102 92.3962 250.231 102.474Z" fill="white"/>
<path opacity="0.4" d="M252.136 101.749C252.352 101.656 252.574 101.575 252.784 101.482C247.001 92.0481 240.727 81.3666 234.389 69.4261C240.493 81.3666 246.528 92.1293 252.136 101.749Z" fill="white"/>
<path opacity="0.4" d="M254.023 100.943L254.671 100.635C248.45 91.7406 241.574 81.3376 234.622 69.4203C241.334 81.326 247.971 91.8334 254.023 100.943Z" fill="white"/>
<path opacity="0.4" d="M255.875 100.032C256.091 99.9214 256.307 99.7995 256.517 99.6835C248.759 89.9754 241.525 79.8657 234.844 69.3971C242.182 81.2912 249.449 91.4969 255.875 100.032Z" fill="white"/>
<path opacity="0.4" d="M257.709 99.0278L258.363 98.6449C249.951 89.4227 242.176 79.6474 235.089 69.3855C242.011 79.7168 249.565 89.6162 257.709 99.0278V99.0278Z" fill="white"/>
<path opacity="0.4" d="M235.323 69.3682C242.629 79.4924 250.713 89.04 259.502 97.9256L260.151 97.4904C251.089 88.8303 242.784 79.4225 235.323 69.3682V69.3682Z" fill="white"/>
<path opacity="0.4" d="M235.557 69.3507C243.22 79.2701 251.828 88.4331 261.26 96.7129C261.477 96.5562 261.681 96.3938 261.891 96.2313C254.274 90.0696 245.009 81.1113 235.557 69.3507Z" fill="white"/>
<path opacity="0.4" d="M235.791 69.3333C245.605 81.0359 255.197 89.7156 262.937 95.39C263.148 95.2159 263.364 95.0419 263.568 94.862C255.717 89.5358 245.868 81.0301 235.791 69.3333Z" fill="white"/>
<path opacity="0.4" d="M236.012 69.3159C246.44 80.9199 256.604 89.1529 264.549 93.9628C264.754 93.7713 264.947 93.5682 265.133 93.3826C257.13 88.9324 246.714 80.9199 236.012 69.3159Z" fill="white"/>
<path opacity="0.4" d="M236.258 69.2926C247.281 80.8154 257.995 88.5146 266.051 92.4135L266.635 91.7753C258.509 88.2767 247.544 80.7921 236.258 69.2926Z" fill="white"/>
<path opacity="0.4" d="M267.494 90.7658C267.675 90.5338 267.844 90.3017 268.02 90.0638C259.812 87.5399 248.339 80.6182 236.474 69.2753C248.088 80.6646 259.327 87.8184 267.494 90.7658Z" fill="white"/>
<path opacity="0.4" d="M268.762 89.0196L269.241 88.2769C261.021 86.7394 249.093 80.4036 236.72 69.2522C248.865 80.4674 260.548 87.0469 268.762 89.0196Z" fill="white"/>
<path opacity="0.4" d="M269.895 87.2152C270.035 86.9599 270.17 86.7046 270.304 86.4435C262.125 85.8633 249.793 80.1251 237.006 69.229C249.554 80.218 261.717 86.2114 269.895 87.2152Z" fill="white"/>
<path opacity="0.4" d="M237.181 69.1998C250.173 79.9103 262.651 85.3003 270.771 85.3816C270.888 85.1205 270.999 84.8594 271.11 84.5983C263.002 84.929 250.36 79.7943 237.181 69.1998Z" fill="white"/>
</g>
<path opacity="0.2" d="M214.982 70.3487C212.768 75.9882 215.163 92.3963 231.141 92.3963C247.118 92.3963 252.919 80.8677 252.27 73.7429L273.599 70.3313C273.599 70.3313 280.136 88.271 266.256 100.821C252.375 113.37 204.263 112.558 194.092 103.02C183.922 93.4812 189.565 74.6364 189.565 74.6364L214.982 70.3487Z" fill="black"/>
<path d="M308.591 46.0151V42.0581C308.591 41.9117 308.638 41.769 308.725 41.651C308.812 41.533 308.935 41.4459 309.076 41.4025L311.997 40.4974V36.5404C311.997 36.0665 312.187 35.612 312.524 35.2768C312.861 34.9417 313.319 34.7534 313.796 34.7534H317.301C317.474 34.7502 317.641 34.8137 317.768 34.9306C317.894 35.0475 317.97 35.2087 317.979 35.38V36.6565C317.979 36.8309 317.91 36.9983 317.786 37.1221C317.662 37.246 317.495 37.3164 317.319 37.3179H312.862V41.1878C312.86 41.3045 312.828 41.4188 312.77 41.5202C312.712 41.6215 312.629 41.7068 312.529 41.768L310.04 43.2649V46.0209L308.591 46.0151Z" fill="#999999" stroke="#263238" stroke-linecap="round" stroke-linejoin="round"/>
<path d="M312.435 46.0153H308.591V57.4336H312.435V46.0153Z" fill="#263238"/>
<path d="M317.243 45.0463H312.435V58.4024H317.243V45.0463Z" fill="#757575"/>
<path opacity="0.2" d="M317.231 53.1805H312.435V58.4023H317.231V53.1805Z" fill="black"/>
<path d="M317.243 45.0463H312.435V58.4024H317.243V45.0463Z" stroke="#263238" stroke-linecap="round" stroke-linejoin="round"/>
<path d="M151.716 57.4277H155.56V46.0094H151.716V57.4277Z" fill="#263238"/>
<path d="M146.908 58.3966H151.716V45.0404H146.908V58.3966Z" fill="#757575"/>
<path opacity="0.2" d="M151.722 53.1805H146.914V58.2747H151.722V53.1805Z" fill="black"/>
<path d="M146.908 58.3966H151.716V45.0404H146.908V58.3966Z" stroke="#263238" stroke-linecap="round" stroke-linejoin="round"/>
<path d="M154.982 52.4031C155.329 51.4987 155.382 50.509 155.135 49.5727C154.888 48.6364 154.352 47.8003 153.603 47.1814L150.776 44.8606C150.596 44.71 150.387 44.5978 150.161 44.5312C149.936 44.4645 149.699 44.4447 149.465 44.473C149.232 44.5013 149.006 44.5771 148.804 44.6957C148.601 44.8143 148.425 44.9731 148.287 45.1623L137.077 60.5201C136.863 60.8075 136.749 61.1553 136.75 61.5123V78.0073C136.749 78.2287 136.794 78.4479 136.88 78.6522C136.966 78.8565 137.092 79.0417 137.251 79.1972C137.409 79.3526 137.597 79.4752 137.804 79.5578C138.011 79.6404 138.232 79.6814 138.455 79.6783V79.6783C138.902 79.6783 139.329 79.5023 139.645 79.1889C139.96 78.8755 140.138 78.4505 140.138 78.0073V64.6105C140.139 64.2799 140.243 63.9576 140.436 63.688L148.819 52.084C148.892 51.9822 148.986 51.8965 149.094 51.8325C149.203 51.7686 149.323 51.7276 149.449 51.7124C149.574 51.6971 149.701 51.7078 149.822 51.7438C149.943 51.7798 150.054 51.8404 150.151 51.9216L151.693 53.2212C152.075 53.5431 152.559 53.7199 153.06 53.7202V53.7202C153.476 53.7177 153.882 53.5908 154.225 53.3559C154.568 53.1209 154.832 52.789 154.982 52.4031V52.4031Z" fill="white" stroke="#263238" stroke-linecap="round" stroke-linejoin="round"/>
<path d="M152.668 50.9005C153.11 50.9005 153.468 50.5447 153.468 50.1057C153.468 49.6667 153.11 49.3108 152.668 49.3108C152.226 49.3108 151.868 49.6667 151.868 50.1057C151.868 50.5447 152.226 50.9005 152.668 50.9005Z" fill="#999999" stroke="#263238" stroke-linecap="round" stroke-linejoin="round"/>
<path d="M305.028 40.4976H159.129V62.9397H305.028V40.4976Z" fill="#263238"/>
<path opacity="0.2" d="M302.919 42.1858H161.18C160.734 42.1858 160.374 42.5443 160.374 42.9865V46.6185C160.374 47.0607 160.734 47.4192 161.18 47.4192H302.919C303.364 47.4192 303.725 47.0607 303.725 46.6185V42.9865C303.725 42.5443 303.364 42.1858 302.919 42.1858Z" fill="white"/>
<path d="M291.966 67.4534H172.209C168.834 59.7919 167.046 51.5342 166.952 43.1721H297.247C297.247 54.4164 291.966 67.4534 291.966 67.4534Z" fill="white"/>
<g opacity="0.7">
<path opacity="0.7" d="M181.895 65.6316C181.895 65.6316 184.518 65.4924 185.984 64.6163C187.451 63.7402 187.345 65.4053 188.187 65.5156C189.028 65.6258 191.014 64.9354 192.066 64.9354C193.117 64.9354 192.317 65.5736 193.503 65.5156C194.688 65.4576 194.052 65.5736 194.671 65.4576L199.747 64.6163C199.747 64.6163 202.324 64.1231 202.844 64.3726C203.364 64.6221 204.047 65.8521 204.806 65.533C205.566 65.2139 205.163 64.9528 206.308 64.9528C207.016 64.9561 207.72 65.0576 208.399 65.2545C208.399 65.2545 208.504 64.9586 209.03 64.9528H209.971C209.971 64.9528 211.963 65.475 212.278 65.475C212.594 65.475 214.948 64.9586 215.03 64.9528C215.111 64.947 217.366 64.3726 217.366 64.3726C217.845 64.8692 218.451 65.2264 219.119 65.4053C219.972 65.5156 220.871 65.2893 221.514 65.5736C222.157 65.8579 224.271 65.4576 224.271 65.4576C224.776 65.4608 225.279 65.4996 225.778 65.5736C226.433 65.722 227.114 65.702 227.759 65.5156C228.943 65.2045 230.187 65.1846 231.381 65.4576C233.279 65.7999 235.026 64.9412 235.832 64.9354C236.638 64.9296 239.863 65.2893 240.973 65.2893C242.083 65.2893 245.021 65.6838 247.066 65.4576C249.11 65.2313 250.448 65.7419 251.821 65.7419C253.194 65.7419 254.66 65.6838 254.976 65.6838C255.291 65.6838 256.81 64.6975 258.983 64.9354C261.156 65.1733 259.223 64.6395 260.56 64.9354C261.898 65.2313 262.955 65.5156 263.522 65.5736C263.977 65.5999 264.433 65.5805 264.883 65.5156L267.22 65.3473H278.868" stroke="#263238" stroke-linecap="round" stroke-linejoin="round"/>
<path opacity="0.7" d="M179.47 61.1524C179.47 61.1524 186.685 61.1524 187.988 61.0364C189.29 60.9203 189.985 60.2589 190.681 60.2589C191.376 60.2589 194.887 60.9203 194.887 60.9203C194.989 60.704 195.156 60.5243 195.365 60.4059C195.575 60.2875 195.815 60.2362 196.055 60.2589C197.007 60.2589 196.522 60.3459 197.399 60.6941C198.275 61.0422 197.819 60.6941 198.281 61.0364C198.969 61.3432 199.696 61.5541 200.442 61.663C200.442 61.663 203.696 61.8138 203.819 61.0364C203.941 60.2589 205.571 61.663 205.571 61.663C205.571 61.663 209.988 61.0364 211.693 61.0364C213.399 61.0364 217.675 60.6941 217.675 60.6941C217.675 60.6941 221.18 61.1524 221.344 61.1524C221.508 61.1524 222.086 62.0633 222.711 61.663C223.336 61.2627 223.938 60.8043 224.68 60.9203C225.369 61.0901 226.035 61.3393 226.666 61.663L228.296 60.8043L230.165 60.9203C230.165 60.9203 232.07 62.1794 233.431 61.663C234.467 61.2516 235.479 60.7829 236.463 60.2589L238.139 61.663H239.237L242.491 61.0364C242.742 61.3421 243.079 61.5655 243.46 61.6773C243.84 61.7891 244.246 61.7841 244.623 61.663C246.002 61.2685 259.175 61.663 262.529 61.663C265.882 61.663 266.618 60.8043 266.618 60.8043L269.2 61.663H282.052" stroke="#263238" stroke-linecap="round" stroke-linejoin="round"/>
</g>
<path opacity="0.2" d="M293.187 64.0999C292.48 66.1886 291.966 67.4534 291.966 67.4534H172.21C172.21 67.4534 171.626 66.235 170.825 64.0999H293.187Z" fill="black"/>
<path opacity="0.2" d="M295.681 55.3157C295.278 57.0563 294.834 58.7563 294.396 60.259H169.522C169.09 58.7853 168.646 57.1201 168.26 55.3157H295.681Z" fill="black"/>
<path d="M291.966 67.4534H172.209C168.834 59.7919 167.046 51.5342 166.952 43.1721H297.247C297.247 54.4164 291.966 67.4534 291.966 67.4534Z" stroke="#263238" stroke-linecap="round" stroke-linejoin="round"/>
<path d="M159.1 39.3428H155.531V64.1057H159.1V39.3428Z" fill="#757575"/>
<path opacity="0.2" d="M159.03 56.7604H155.554V64.1057H159.03V56.7604Z" fill="black"/>
<path d="M159.1 39.3428H155.531V64.1057H159.1V39.3428Z" stroke="#263238" stroke-linecap="round" stroke-linejoin="round"/>
<path d="M308.62 39.3428H305.051V64.1057H308.62V39.3428Z" fill="#757575"/>
<path opacity="0.2" d="M308.621 56.7604H305.022V64.1057H308.621V56.7604Z" fill="black"/>
<path d="M308.62 39.3428H305.051V64.1057H308.62V39.3428Z" stroke="#263238" stroke-linecap="round" stroke-linejoin="round"/>
<path d="M305.08 38.3043V56.3659H159.071V38.3043H157.669V57.5785H306.482V38.3043H305.08Z" fill="#999999" stroke="#263238" stroke-linecap="round" stroke-linejoin="round"/>
<path d="M313.709 68.7299V109.234C313.709 109.917 313.435 110.572 312.949 111.055C312.463 111.538 311.803 111.81 311.115 111.81H153.019C152.331 111.81 151.671 111.538 151.185 111.055C150.699 110.572 150.425 109.917 150.425 109.234V68.7299C150.425 68.0467 150.699 67.3914 151.185 66.9083C151.671 66.4252 152.331 66.1538 153.019 66.1538H225.866V68.7299C225.866 68.7299 213.429 79.4462 191.984 83.3973C195.056 97.2119 211.846 107.766 232.105 107.766C252.364 107.766 269.153 97.2003 272.232 83.3973C250.758 79.4462 238.321 68.7299 238.321 68.7299V66.1306H311.132C311.474 66.1329 311.811 66.202 312.125 66.3339C312.439 66.4658 312.724 66.658 312.963 66.8995C313.203 67.1409 313.392 67.4269 313.52 67.741C313.648 68.0551 313.712 68.3911 313.709 68.7299Z" fill="white" stroke="#263238" stroke-linecap="round" stroke-linejoin="round"/>
<path d="M313.709 68.7299V109.234C313.709 109.572 313.641 109.908 313.511 110.221C313.38 110.534 313.188 110.818 312.947 111.057C312.705 111.296 312.419 111.486 312.103 111.615C311.788 111.744 311.45 111.81 311.109 111.81H153.019C152.678 111.81 152.34 111.744 152.025 111.615C151.709 111.486 151.423 111.296 151.181 111.057C150.94 110.818 150.748 110.534 150.617 110.221C150.487 109.908 150.419 109.572 150.419 109.234V68.7299C150.421 68.0456 150.695 67.3898 151.183 66.9059C151.67 66.4221 152.33 66.1496 153.019 66.148H225.866V68.7299C225.866 68.7299 213.423 79.4404 191.984 83.3973C195.056 97.2119 211.846 107.766 232.111 107.766C252.376 107.766 269.153 97.2003 272.232 83.3973C250.758 79.4404 238.321 68.7299 238.321 68.7299V66.1306H311.132C311.821 66.1367 312.479 66.4139 312.962 66.9012C313.445 67.3885 313.713 68.0461 313.709 68.7299V68.7299Z" fill="white"/>
<path opacity="0.2" d="M310.203 69.3507V106.745C310.203 106.993 310.154 107.239 310.057 107.469C309.961 107.698 309.82 107.907 309.643 108.082C309.465 108.257 309.255 108.396 309.023 108.49C308.791 108.584 308.543 108.632 308.293 108.63H154.572C154.323 108.631 154.076 108.583 153.845 108.488C153.614 108.394 153.405 108.255 153.228 108.08C153.052 107.904 152.912 107.696 152.817 107.467C152.722 107.238 152.673 106.992 152.674 106.745V69.3507C152.673 69.1024 152.722 68.8562 152.817 68.6265C152.912 68.3967 153.051 68.1878 153.227 68.0116C153.404 67.8354 153.613 67.6954 153.844 67.5997C154.075 67.5039 154.322 67.4543 154.572 67.4535H225.842V68.7299C225.842 68.7299 213.399 79.4404 191.96 83.3974C195.033 97.2119 211.822 107.766 232.087 107.766C252.352 107.766 269.13 97.2003 272.208 83.3974C250.734 79.4404 238.297 68.7299 238.297 68.7299V67.4535H308.31C308.814 67.4581 309.295 67.66 309.65 68.0153C310.004 68.3706 310.203 68.8506 310.203 69.3507V69.3507Z" fill="white"/>
<path d="M313.709 68.7299V109.234C313.709 109.572 313.641 109.908 313.511 110.221C313.38 110.534 313.188 110.818 312.947 111.057C312.705 111.296 312.419 111.486 312.103 111.615C311.788 111.744 311.45 111.81 311.109 111.81H153.019C152.678 111.81 152.34 111.744 152.025 111.615C151.709 111.486 151.423 111.296 151.181 111.057C150.94 110.818 150.748 110.534 150.617 110.221C150.487 109.908 150.419 109.572 150.419 109.234V68.7299C150.421 68.0456 150.695 67.3898 151.183 66.9059C151.67 66.4221 152.33 66.1496 153.019 66.148H225.866V68.7299C225.866 68.7299 213.423 79.4404 191.984 83.3973C195.056 97.2119 211.846 107.766 232.111 107.766C252.376 107.766 269.153 97.2003 272.232 83.3973C250.758 79.4404 238.321 68.7299 238.321 68.7299V66.1306H311.132C311.821 66.1367 312.479 66.4139 312.962 66.9012C313.445 67.3885 313.713 68.0461 313.709 68.7299V68.7299Z" stroke="#263238" stroke-linecap="round" stroke-linejoin="round"/>
<path opacity="0.2" d="M261.483 123.814L269.247 145.322C269.247 145.322 272.606 121.65 274.61 121.65C276.613 121.65 280.93 134.594 280.93 134.594C280.93 134.594 283.594 127.841 286.118 127.597C288.641 127.354 290.926 144.179 290.926 144.179L291.317 181.527L288.133 238.009C288.133 238.009 267.821 215.787 261.898 210.061C255.974 204.334 250.314 191.732 248.678 189.174C247.042 186.615 246.627 173.218 246.627 173.218C248.698 170.587 249.781 167.32 249.689 163.981C249.689 163.981 254.455 156.056 254.163 150.208C253.871 144.359 253.135 121.633 261.483 123.814Z" fill="black" fill-opacity="0.7"/>
<path d="M322.594 228.006L291.843 244.072C291.843 243.91 287.801 237.406 282.917 230.049C280.709 226.718 278.325 223.22 276.064 220.052C272.361 214.871 267.652 210.397 267.249 209.423C266.081 206.522 257.073 195.66 255.057 191.436C253.042 187.213 252.58 174.071 251.693 170.979C250.805 167.886 253.352 164.933 255.396 163.494C257.441 162.055 259.585 158.272 259.585 158.272C259.585 158.272 257.324 149.523 257.301 145.073C257.277 140.623 255.753 125.091 257.575 123.64C259.398 122.19 261.028 122.799 261.483 123.797C262.979 127.087 264.322 135.36 265.473 139.172C266.624 142.984 268.786 154.043 269.849 154.837C270.912 155.632 272.805 152.65 272.805 152.65C272.805 152.65 272.986 143.367 273.389 139.52L272.805 127.336C272.805 127.336 271.712 120.014 274.253 119.318C277.758 118.36 279.038 120.548 279.435 121.47C279.832 122.393 281.468 127.707 281.468 127.707L281.561 128.073C281.561 128.108 281.561 128.142 281.561 128.183V128.247C281.589 128.347 281.618 128.458 281.649 128.578C281.713 128.821 281.789 129.111 281.871 129.442C282.648 132.465 284.144 138.516 284.079 140.008C283.992 142.021 283.285 153.172 284.284 155.487L285.838 140.083C285.838 140.083 283.332 128.212 284.062 126.501C284.792 124.789 288.233 126.68 288.642 127.353C289.051 128.026 292.392 132.099 292.988 133.654L293.572 135.209C293.572 135.209 294.396 131.531 296.329 132.488C298.263 133.446 298.503 138.122 298.637 140.164C298.771 142.207 300.173 155.342 300.39 155.365C300.606 155.389 302.837 162.212 302.533 166.72C301.897 176.369 303.579 183.546 303.638 187.247C303.696 190.949 300.886 199.524 300.886 199.524C300.985 199.693 302.82 202.791 303.322 205.512C303.69 207.508 310.239 214.72 315.59 220.458C319.311 224.415 322.431 227.652 322.594 228.006Z" fill="white"/>
<path opacity="0.4" d="M282.923 230.06C280.714 226.73 278.331 223.231 276.07 220.063C272.367 214.882 267.658 210.409 267.255 209.434C266.087 206.533 257.079 195.672 255.063 191.448C253.048 187.224 252.586 174.083 251.698 170.99C250.81 167.898 253.357 164.944 255.402 163.506C257.447 162.067 259.591 158.284 259.591 158.284C259.591 158.284 257.33 149.534 257.306 145.084C257.283 140.634 255.758 125.102 257.581 123.652C259.404 122.201 261.034 122.81 261.489 123.808C262.985 127.098 264.328 135.372 265.479 139.184C266.63 142.996 268.791 154.054 269.855 154.849C270.918 155.644 272.811 152.662 272.811 152.662C272.811 152.662 272.992 143.379 273.395 139.532L272.811 127.348C272.811 127.348 271.718 120.025 274.259 119.329C277.764 118.372 279.044 120.559 279.441 121.482C279.838 122.404 281.474 127.719 281.474 127.719L281.567 128.084C281.567 128.119 281.567 128.154 281.567 128.195V128.259C281.591 128.359 281.62 128.469 281.655 128.589C281.719 128.833 281.795 129.123 281.877 129.454C280.971 128.032 279.727 126.82 278.062 126.501C273.389 125.595 274.399 130.759 274.843 133.857C275.095 135.913 275.046 137.995 274.697 140.037L275.866 139.369C275.025 140.86 273.821 153.253 273.821 156.009C273.821 158.765 271.625 159.682 269.656 158.876C267.687 158.069 266.986 145.421 265.491 143.152C263.995 140.884 259.836 145.218 259.649 149.18C259.462 153.143 263.183 164.962 262.301 167.747C261.419 170.532 261.431 181.091 261.431 181.091L260.356 178.37C260.426 178.742 260.356 179.989 258.107 183.662C257.262 184.991 256.716 186.485 256.505 188.043C256.294 189.601 256.424 191.186 256.886 192.69C258.259 195.701 265.222 203.638 266.39 204.456C266.39 204.456 267.237 201.01 269.895 201.926C268.99 203.355 268.331 204.924 267.944 206.568C267.395 209.098 272.939 210.716 274.674 213.124C275.737 214.592 276.45 219.065 282.923 230.06Z" fill="white"/>
<path opacity="0.4" d="M315.625 220.464C310.157 214.992 300.535 209.782 301.119 208.419C301.902 206.585 300.909 202.681 299.227 199.513C297.544 196.345 299.811 191.204 299.811 191.204L300.851 194.192C301.683 190.746 301.78 187.165 301.137 183.679C300.074 177.755 299.244 179.838 299.244 179.838C299.244 179.838 299.46 174.5 300.413 171.588C301.365 168.675 302.165 161.603 300.851 157.419C299.536 153.236 296.761 154.025 296.02 155.464C295.278 156.903 296.072 162.513 296.685 164.353C297.299 166.192 294.688 169.284 294.635 166.987C294.582 164.689 293.595 158.284 293.595 158.284L295.576 145.421L293.595 135.203C293.595 135.203 294.419 131.525 296.353 132.482C298.286 133.44 298.526 138.116 298.66 140.158C298.794 142.201 300.196 155.336 300.413 155.36C300.629 155.383 302.86 162.206 302.556 166.714C301.92 176.363 303.602 183.54 303.661 187.242C303.719 190.943 300.909 199.519 300.909 199.519C301.008 199.687 302.843 202.785 303.345 205.506C303.713 207.502 310.262 214.714 315.613 220.452L315.625 220.464Z" fill="white"/>
<path opacity="0.4" d="M292.988 133.654C293.099 133.944 293.192 134.182 293.262 134.374C291.405 130.086 288.238 131.415 287.678 132.633C287.117 133.852 289.004 141.412 289.43 142.584C289.857 143.756 287.736 153.114 287.426 156.212C287.117 159.311 286.293 159.943 286.293 159.943C284.196 160.1 283.956 154.35 283.956 153.561C283.997 154.221 284.127 154.873 284.342 155.499L285.896 140.095C285.896 140.095 283.331 128.212 284.061 126.5C284.792 124.789 288.233 126.68 288.641 127.353C289.05 128.026 292.392 132.099 292.988 133.654Z" fill="white"/>
<path d="M322.594 228.006C322.197 227.113 303.953 208.86 303.316 205.506C302.802 202.71 300.874 199.513 300.874 199.513C300.874 199.513 303.684 190.955 303.626 187.236C303.567 183.517 301.873 176.357 302.522 166.708C302.826 162.2 300.6 155.377 300.378 155.354C300.156 155.331 298.754 142.195 298.625 140.153C298.497 138.11 298.257 133.434 296.318 132.477C294.378 131.519 293.561 135.198 293.561 135.198L292.976 133.643C292.392 132.088 289.039 128.015 288.63 127.342C288.221 126.669 284.786 124.772 284.05 126.489C283.314 128.206 285.879 140.06 285.879 140.06L284.336 155.481C283.337 153.161 284.044 142.015 284.132 140.002C284.22 137.988 281.474 127.702 281.474 127.702C281.474 127.702 279.826 122.41 279.441 121.459C279.055 120.507 277.764 118.349 274.259 119.306C271.718 120.002 272.811 127.324 272.811 127.324L273.395 139.509C273.003 143.373 272.811 152.638 272.811 152.638C272.811 152.638 270.918 155.615 269.855 154.826C268.791 154.037 266.63 142.984 265.479 139.16C264.328 135.337 262.985 127.075 261.489 123.785C261.034 122.787 259.404 122.178 257.581 123.629C255.758 125.079 257.277 140.605 257.306 145.061C257.336 149.517 259.591 158.261 259.591 158.261C259.591 158.261 257.447 162.02 255.402 163.482C253.357 164.944 250.81 167.869 251.698 170.967C252.586 174.065 253.048 187.213 255.063 191.425C257.079 195.637 266.063 206.51 267.255 209.411C267.658 210.386 272.367 214.859 276.07 220.04C283.343 230.211 291.843 243.828 291.843 244.06" stroke="#263238" stroke-linecap="round" stroke-linejoin="round"/>
<path d="M259.585 158.29C259.585 158.29 261.034 165.42 260.981 166.616C260.981 166.616 259.713 172.122 259.702 175.69C258.815 177.034 258.018 178.436 257.318 179.885C256.828 181.173 255.951 184.341 256.313 186.104" stroke="#263238" stroke-linecap="round" stroke-linejoin="round"/>
<path d="M256.938 168.826C256.938 168.826 260.49 168.855 260.262 170.34" stroke="#263238" stroke-linecap="round" stroke-linejoin="round"/>
<path d="M259.701 175.69C259.701 175.69 257.423 174.709 256.623 176.026" stroke="#263238" stroke-linecap="round" stroke-linejoin="round"/>
<path d="M272.816 152.662C272.816 152.662 272.652 158.127 271.204 157.692" stroke="#263238" stroke-linecap="round" stroke-linejoin="round"/>
<path d="M284.336 155.481C284.336 155.481 283.916 158.469 285.049 159.392" stroke="#263238" stroke-linecap="round" stroke-linejoin="round"/>
<path d="M293.578 135.209C293.578 135.209 295.155 142.752 295.517 144.539C295.879 146.326 293.724 155.447 293.765 157.82C293.805 160.193 294.828 163.587 294.688 165.182" stroke="#263238" stroke-linecap="round" stroke-linejoin="round"/>
<path d="M299.875 192.492C299.875 192.492 299.367 197.418 300.892 199.524" stroke="#263238" stroke-linecap="round" stroke-linejoin="round"/>
<path d="M269.247 202.24C269.247 202.24 265.847 205.315 267.091 209.098" stroke="#263238" stroke-linecap="round" stroke-linejoin="round"/>
<path d="M291.592 163.9C291.644 166.07 290.365 168.6 290.23 171.599" stroke="#263238" stroke-linecap="round" stroke-linejoin="round"/>
<path d="M280.761 161.962C281.485 163.738 279.908 167.602 279.669 169.052C279.573 170.187 279.698 171.329 280.037 172.417" stroke="#263238" stroke-linecap="round" stroke-linejoin="round"/>
<path d="M301.119 168.078C300.827 169.963 299.484 171.309 299.227 177.111" stroke="#263238" stroke-linecap="round" stroke-linejoin="round"/>
<path d="M267.95 161.411C268.932 162.473 268.272 167.544 268.534 168.373" stroke="#263238" stroke-linecap="round" stroke-linejoin="round"/>
<path d="M286.252 132.198C286.252 132.198 289.594 129.767 292.468 132.633" stroke="#263238" stroke-linecap="round" stroke-linejoin="round"/>
<path d="M274.744 126.611C274.744 126.611 275.328 125.642 278.149 125.88C280.971 126.118 281.473 127.696 281.473 127.696" stroke="#263238" stroke-linecap="round" stroke-linejoin="round"/>
<path d="M266.501 143.175C266.501 143.175 265.555 141.789 263.06 142.247C260.566 142.705 259.456 146.21 259.456 146.21" fill="white"/>
<path d="M266.501 143.175C266.501 143.175 265.555 141.789 263.06 142.247C260.566 142.705 259.456 146.21 259.456 146.21" stroke="#263238" stroke-linecap="round" stroke-linejoin="round"/>
<path d="M300.395 155.365C300.395 155.365 298.316 152.372 295.815 153.654" stroke="#263238" stroke-linecap="round" stroke-linejoin="round"/>
<path opacity="0.2" d="M211.799 133.434C215.304 136.132 212.348 152.691 212.348 152.691L212.658 158.081L218.669 155.481L221.409 166.998C221.409 166.998 221.339 171.216 223.565 172.8C223.565 172.8 224.114 182.263 223.565 189.179C223.015 196.095 211.881 204.224 208.043 211.482C204.205 218.74 179.173 240.074 179.173 240.074L157.979 230.06L173.302 168.594L187.03 151.066L195.168 130.904C195.168 130.904 196.564 144.075 195.752 152.952L211.799 133.434Z" fill="black" fill-opacity="0.7"/>
<path d="M217.699 170.219C217.168 172.76 218.447 186.691 218.225 188.57C218.003 190.45 206.845 203.075 206.285 204.033C205.724 204.99 198.264 209.255 196.529 211.291C188.42 220.684 183.992 229.335 180.435 238.009C179.751 239.68 179.097 241.357 178.454 243.04L146.278 224.473C148.983 221.143 151.535 218.184 153.872 215.492C158.546 210.032 162.267 205.663 164.089 201.538C164.649 200.485 165.289 199.476 166.006 198.521C166.73 197.5 167.378 196.658 167.378 196.658C167.378 196.658 165.042 190.12 165.585 188.066C166.128 186.012 164.913 169.128 164.913 169.128C164.913 169.128 163.33 157.634 161.77 154.733C161.387 153.976 161.214 153.131 161.268 152.285C161.344 149.633 162.892 146.291 163.651 142.421C164.668 137.2 164.177 134.618 167.367 136.422C170.556 138.227 169.067 149.186 169.067 149.186L173.886 159.793C175.154 157.228 173.886 149.743 173.822 147.974C173.822 147.684 173.822 147.202 173.775 146.576C173.676 143.524 173.471 137.171 173.734 134.664C173.734 134.525 173.734 134.397 173.781 134.281C174.172 131.693 175.568 123.46 176.456 122.544C177.777 121.186 179.874 120.043 181.848 123.124C182.952 124.865 182.479 138.667 182.479 138.667C182.479 138.667 187.059 133.179 188.45 131.839C189.84 130.498 194.058 128.05 195.185 130.887C196.313 133.724 192.153 142.491 192.153 142.491C193.024 144.522 193.129 150.144 193.129 150.144C193.129 150.144 195.098 157.17 196.307 157.106H196.359C196.71 157.031 197.095 155.754 197.498 153.962C198.492 149.569 199.572 142.056 200.419 141.4L201.004 140.936C201.03 140.903 201.062 140.873 201.097 140.849L201.313 140.658C203.381 138.83 207.739 134.769 207.739 134.769C207.739 134.769 208.049 132.825 211.863 133.422C215.678 134.02 210.169 145.201 210.169 145.201C209.404 148.757 208.23 157.907 208.23 157.907C207.873 161.713 208.084 171.942 208.084 171.942C208.084 171.942 209.889 165.989 209.772 163.819C209.655 161.649 213.359 156.335 214.445 154.965C215.532 153.596 220.381 154.078 219.031 156.706C217.682 159.334 218.231 167.666 217.699 170.219Z" fill="white"/>
<path opacity="0.4" d="M164.072 201.561C164.631 200.507 165.272 199.499 165.988 198.544C165.988 198.544 164.089 203.765 163.902 206.545C163.78 208.378 158.919 211.552 153.854 215.515C158.557 210.055 162.249 205.686 164.072 201.561Z" fill="white"/>
<path opacity="0.4" d="M165.988 198.544C166.712 197.523 167.361 196.681 167.361 196.681C167.361 196.681 165.024 190.142 165.567 188.089C166.11 186.035 164.895 169.151 164.895 169.151C164.895 169.151 163.312 157.657 161.752 154.756L165.386 161.063C165.386 161.063 165.03 166.047 166.064 168.78C167.098 171.512 168.4 179.85 168.4 179.85C168.4 179.85 166.87 186.859 167.39 189.382C167.91 191.906 170.252 190.99 170.252 190.99C170.252 190.99 171.403 195.608 165.988 198.544Z" fill="white"/>
<path opacity="0.4" d="M174.464 151.066C176.97 165.641 172.653 161.608 171.093 158.464C169.534 155.319 165.871 149.366 163.114 150.637C162.339 150.998 161.691 151.579 161.25 152.308C161.326 149.656 162.874 146.314 163.633 142.444C164.65 137.222 164.159 134.641 167.349 136.445C170.538 138.249 169.049 149.209 169.049 149.209L173.868 159.815C175.136 157.251 173.868 149.766 173.804 147.997C173.804 147.707 173.804 147.225 173.757 146.598C173.95 147.939 174.184 149.43 174.464 151.066Z" fill="white"/>
<path opacity="0.4" d="M180.598 136.666C180.598 136.666 177.893 133.15 175.545 133.329C175.142 133.351 174.753 133.49 174.429 133.728C174.104 133.966 173.856 134.293 173.716 134.67C173.716 134.53 173.716 134.403 173.763 134.287C174.154 131.699 175.551 123.466 176.439 122.549C177.759 121.192 179.856 120.049 181.831 123.13C182.935 124.87 182.461 138.673 182.461 138.673C182.461 138.673 187.041 133.184 188.432 131.844C189.822 130.504 194.04 128.055 195.167 130.893C196.295 133.73 192.135 142.497 192.135 142.497C193.006 144.527 193.111 150.149 193.111 150.149C193.111 150.149 195.08 157.176 196.289 157.112C193.625 162.09 191.849 151.084 191.849 151.084C192.246 148.809 190.833 143.877 190.973 142.578C191.113 141.278 188.519 136.683 184.15 137.936C179.78 139.189 182.935 156.34 182.935 156.34C182.071 157.706 181.569 159.267 181.474 160.877C180.125 159.224 181.474 154.495 181.474 154.495C180.277 149.97 180.598 136.666 180.598 136.666Z" fill="white"/>
<path opacity="0.4" d="M200.963 140.918C199.099 142.862 199.356 147.776 197.458 153.944C198.451 149.552 199.531 142.038 200.378 141.383L200.963 140.918Z" fill="white"/>
<path opacity="0.4" d="M217.699 170.218C217.168 172.76 218.447 186.69 218.225 188.57C218.003 190.45 206.845 203.075 206.284 204.032C205.724 204.99 198.264 209.254 196.529 211.291C188.42 220.684 183.992 229.335 180.435 238.009C181.775 233.513 183.392 229.102 185.277 224.803C189.115 216.234 190.681 214.708 192.983 212.26C195.284 209.811 195.033 204.607 195.033 204.607C196.732 204.2 198.473 203.996 200.221 203.998C203.142 203.998 211.787 191.755 214.761 189.609C217.734 187.462 218.266 187.462 214.761 182.727C211.256 177.993 212.249 183.488 211.197 183.308C210.146 183.128 209.573 185.414 209.573 185.414C209.205 180.587 206.068 174.97 205.408 173.566C204.748 172.162 207.009 163.929 206.541 161.637C206.074 159.345 208.551 145.392 208.551 145.392C208.551 145.392 208.241 140.036 203.358 140.019C202.608 139.978 201.868 140.2 201.266 140.646C203.334 138.818 207.692 134.757 207.692 134.757C207.692 134.757 208.002 132.813 211.817 133.411C215.631 134.008 210.122 145.189 210.122 145.189C209.357 148.745 208.183 157.895 208.183 157.895C207.827 161.701 208.037 171.93 208.037 171.93C208.037 171.93 209.842 165.977 209.725 163.807C209.608 161.637 213.312 156.323 214.399 154.953C215.485 153.584 220.334 154.066 218.984 156.694C217.635 159.322 218.231 167.665 217.699 170.218Z" fill="white"/>
<path d="M178.448 243.091C182.415 232.688 186.849 222.535 196.529 211.32C198.281 209.312 205.718 205.048 206.284 204.061C206.851 203.075 218.009 190.473 218.225 188.599C218.441 186.725 217.168 172.789 217.699 170.247C218.231 167.706 217.612 159.328 218.955 156.717C220.299 154.106 215.45 153.631 214.369 154.977C213.289 156.323 209.597 161.684 209.696 163.83C209.795 165.977 208.008 171.953 208.008 171.953C208.008 171.953 207.797 161.724 208.154 157.918C208.154 157.918 209.322 148.768 210.093 145.212C210.093 145.212 215.596 134.026 211.787 133.434C207.979 132.842 207.663 134.78 207.663 134.78C207.663 134.78 201.582 140.454 200.378 141.383C199.175 142.311 197.533 156.816 196.324 157.089C195.115 157.361 193.094 150.126 193.094 150.126C193.094 150.126 192.989 144.504 192.118 142.473C192.118 142.473 196.272 133.73 195.15 130.869C194.028 128.009 189.811 130.486 188.414 131.821C187.018 133.155 182.444 138.65 182.444 138.65C182.444 138.65 182.917 124.835 181.813 123.106C179.839 120.014 177.724 121.157 176.421 122.526C175.533 123.443 174.137 131.676 173.746 134.263C173.354 136.851 173.746 146.181 173.787 147.956C173.828 149.732 175.119 157.21 173.851 159.775L169.032 149.169C169.032 149.169 170.527 138.197 167.332 136.404C164.136 134.612 164.633 137.199 163.616 142.404C162.6 147.608 160.181 151.838 161.735 154.745C163.289 157.651 164.878 169.139 164.878 169.139C164.878 169.139 166.081 186.023 165.55 188.077C165.018 190.131 167.361 196.675 167.361 196.675C167.361 196.675 164.662 200.209 164.072 201.555C161.35 207.699 154.462 214.418 146.272 224.525" stroke="#263238" stroke-linecap="round" stroke-linejoin="round"/>
<path d="M182.462 138.685C181.783 139.681 181.44 140.865 181.48 142.067C181.48 144.272 182.935 156.34 182.935 156.34C182.935 156.34 181.878 157.582 181.825 158.661" stroke="#263238" stroke-linecap="round" stroke-linejoin="round"/>
<path d="M208.02 171.924C208.179 173.962 208.708 175.955 209.579 177.807C210.946 180.488 210.502 181.967 210.035 183.551C209.722 184.94 209.555 186.358 209.538 187.781" stroke="#263238" stroke-linecap="round" stroke-linejoin="round"/>
<path d="M174.383 157.413C174.383 157.413 175.399 160.616 173.512 162.136" stroke="#263238" stroke-linecap="round" stroke-linejoin="round"/>
<path d="M196.342 157.089C196.342 157.089 196.541 158.348 194.747 158.464" stroke="#263238" stroke-linecap="round" stroke-linejoin="round"/>
<path d="M208.388 142.584C208.388 142.584 203.889 137.71 200.396 141.383" stroke="#263238" stroke-linecap="round" stroke-linejoin="round"/>
<path d="M190.161 139.845C190.161 139.845 188.087 137.24 186.288 137.397C184.489 137.553 182.059 138.644 181.784 140.077" stroke="#263238" stroke-linecap="round" stroke-linejoin="round"/>
<path d="M210.42 181.985C211.146 183.016 211.675 184.17 211.98 185.391" stroke="#263238" stroke-linecap="round" stroke-linejoin="round"/>
<path d="M198.737 162.177C197.341 164.759 198.007 169.139 197.493 170.34" stroke="#263238" stroke-linecap="round" stroke-linejoin="round"/>
<path d="M183.946 157.889C184.273 159.374 183.239 161.794 183.081 163.575C182.924 165.356 184.39 168.106 184.121 170.607" stroke="#263238" stroke-linecap="round" stroke-linejoin="round"/>
<path d="M174.464 163.97C174.464 163.97 173.244 166.766 173.296 168.611C173.349 170.456 174.009 174.5 174.009 174.5" stroke="#263238" stroke-linecap="round" stroke-linejoin="round"/>
<path d="M165.485 163.836C165.485 163.836 165.042 166.737 166.07 168.779C167.098 170.822 168.097 175.162 168.097 175.162" stroke="#263238" stroke-linecap="round" stroke-linejoin="round"/>
<path d="M167.361 196.675C167.899 196.527 168.381 196.222 168.742 195.799C169.104 195.376 169.329 194.854 169.388 194.302" stroke="#263238" stroke-linecap="round" stroke-linejoin="round"/>
<path d="M196.727 205.518C196.727 205.518 197.843 209.62 195.705 212.26" stroke="#263238" stroke-linecap="round" stroke-linejoin="round"/>
<path d="M161.279 151.82C161.279 151.82 164.422 148.774 166.8 151.345" stroke="#263238" stroke-linecap="round" stroke-linejoin="round"/>
<path d="M173.763 134.287C173.763 134.287 176.1 131.856 178.834 134.455" stroke="#263238" stroke-linecap="round" stroke-linejoin="round"/>
</svg>
