<svg width="390" height="389" viewBox="0 0 390 389" fill="none" xmlns="http://www.w3.org/2000/svg">
<path d="M341.897 130.198H272.228V287.837H341.897V130.198Z" stroke="#263238" stroke-width="0.75" stroke-linecap="round" stroke-linejoin="round"/>
<path d="M335.782 136.298H278.343V281.737H335.782V136.298Z" stroke="#263238" stroke-width="0.75" stroke-linecap="round" stroke-linejoin="round"/>
<path d="M284.872 200.514L283.304 203.229" stroke="#263238" stroke-width="0.75" stroke-linecap="round" stroke-linejoin="round"/>
<path d="M301.361 172.039L286.681 197.402" stroke="#263238" stroke-width="0.75" stroke-linecap="round" stroke-linejoin="round"/>
<path d="M314.831 148.761L303.708 167.978" stroke="#263238" stroke-width="0.75" stroke-linecap="round" stroke-linejoin="round"/>
<path d="M317.187 144.7L316.001 146.739" stroke="#263238" stroke-width="0.75" stroke-linecap="round" stroke-linejoin="round"/>
<path d="M289.544 269.639L288.21 271.942" stroke="#263238" stroke-width="0.75" stroke-linecap="round" stroke-linejoin="round"/>
<path d="M292.633 264.302L291.221 266.753" stroke="#263238" stroke-width="0.75" stroke-linecap="round" stroke-linejoin="round"/>
<path d="M311.47 231.758L295.659 259.082" stroke="#263238" stroke-width="0.75" stroke-linecap="round" stroke-linejoin="round"/>
<path d="M325.47 207.57L313.092 228.965" stroke="#263238" stroke-width="0.75" stroke-linecap="round" stroke-linejoin="round"/>
<path d="M328.536 202.28L327.312 204.396" stroke="#263238" stroke-width="0.75" stroke-linecap="round" stroke-linejoin="round"/>
<path d="M307.063 252.235L295.659 271.942" stroke="#263238" stroke-width="0.75" stroke-linecap="round" stroke-linejoin="round"/>
<path d="M321.649 227.036L308.724 249.365" stroke="#263238" stroke-width="0.75" stroke-linecap="round" stroke-linejoin="round"/>
<path d="M324.683 221.8L323.154 224.437" stroke="#263238" stroke-width="0.75" stroke-linecap="round" stroke-linejoin="round"/>
<path d="M283.304 220.913L281.572 223.908" stroke="#263238" stroke-width="0.75" stroke-linecap="round" stroke-linejoin="round"/>
<path d="M298.459 194.733L284.692 218.517" stroke="#263238" stroke-width="0.75" stroke-linecap="round" stroke-linejoin="round"/>
<path d="M317.374 162.057L300.082 191.925" stroke="#263238" stroke-width="0.75" stroke-linecap="round" stroke-linejoin="round"/>
<path d="M328.739 142.421L318.708 159.754" stroke="#263238" stroke-width="0.75" stroke-linecap="round" stroke-linejoin="round"/>
<path d="M117.772 130.198H48.1025V287.837H117.772V130.198Z" stroke="#263238" stroke-width="0.75" stroke-linecap="round" stroke-linejoin="round"/>
<path d="M111.657 136.298H54.2178V281.737H111.657V136.298Z" stroke="#263238" stroke-width="0.75" stroke-linecap="round" stroke-linejoin="round"/>
<path d="M60.7465 200.514L59.1787 203.229" stroke="#263238" stroke-width="0.75" stroke-linecap="round" stroke-linejoin="round"/>
<path d="M77.2279 172.039L62.5483 197.402" stroke="#263238" stroke-width="0.75" stroke-linecap="round" stroke-linejoin="round"/>
<path d="M90.7063 148.761L79.5835 167.978" stroke="#263238" stroke-width="0.75" stroke-linecap="round" stroke-linejoin="round"/>
<path d="M93.0538 144.7L91.876 146.739" stroke="#263238" stroke-width="0.75" stroke-linecap="round" stroke-linejoin="round"/>
<path d="M65.4188 269.639L64.085 271.942" stroke="#263238" stroke-width="0.75" stroke-linecap="round" stroke-linejoin="round"/>
<path d="M68.5075 264.302L67.0879 266.753" stroke="#263238" stroke-width="0.75" stroke-linecap="round" stroke-linejoin="round"/>
<path d="M87.3443 231.758L71.5259 259.082" stroke="#263238" stroke-width="0.75" stroke-linecap="round" stroke-linejoin="round"/>
<path d="M101.345 207.57L88.959 228.965" stroke="#263238" stroke-width="0.75" stroke-linecap="round" stroke-linejoin="round"/>
<path d="M104.411 202.28L103.178 204.396" stroke="#263238" stroke-width="0.75" stroke-linecap="round" stroke-linejoin="round"/>
<path d="M82.9373 252.235L71.5259 271.942" stroke="#263238" stroke-width="0.75" stroke-linecap="round" stroke-linejoin="round"/>
<path d="M97.5232 227.036L84.5986 249.365" stroke="#263238" stroke-width="0.75" stroke-linecap="round" stroke-linejoin="round"/>
<path d="M100.55 221.8L99.0288 224.437" stroke="#263238" stroke-width="0.75" stroke-linecap="round" stroke-linejoin="round"/>
<path d="M59.1784 220.913L57.439 223.908" stroke="#263238" stroke-width="0.75" stroke-linecap="round" stroke-linejoin="round"/>
<path d="M74.3261 194.733L60.5591 218.517" stroke="#263238" stroke-width="0.75" stroke-linecap="round" stroke-linejoin="round"/>
<path d="M93.2413 162.057L75.9565 191.925" stroke="#263238" stroke-width="0.75" stroke-linecap="round" stroke-linejoin="round"/>
<path d="M104.606 142.421L94.5747 159.754" stroke="#263238" stroke-width="0.75" stroke-linecap="round" stroke-linejoin="round"/>
<path d="M23.0098 353.546H366.99" stroke="#263238" stroke-linecap="round" stroke-linejoin="round"/>
<path d="M142.498 291.913H136.531V312.149H142.498V291.913Z" fill="white"/>
<path opacity="0.2" d="M142.498 291.913H136.531V312.149H142.498V291.913Z" fill="black"/>
<path d="M148.473 294.138H142.506V312.149H148.473V294.138Z" fill="white"/>
<path d="M155.922 294.138H151.71V312.149H155.922V294.138Z" fill="white"/>
<path opacity="0.9" d="M155.922 294.138H151.71V312.149H155.922V294.138Z" fill="white"/>
<path d="M151.718 292.24H147.896V312.157H151.718V292.24Z" fill="white"/>
<path opacity="0.1" d="M151.718 292.24H147.896V312.157H151.718V292.24Z" fill="black"/>
<path d="M161.897 291.913H155.93V312.149H161.897V291.913Z" fill="white"/>
<path d="M167.863 294.138H161.896V312.149H167.863V294.138Z" fill="white"/>
<path opacity="0.2" d="M167.863 294.138H161.896V312.149H167.863V294.138Z" fill="#263238"/>
<path d="M175.32 294.138H171.108V312.149H175.32V294.138Z" fill="white"/>
<path opacity="0.8" d="M175.32 294.138H171.108V312.149H175.32V294.138Z" fill="white"/>
<path d="M171.109 292.24H167.287V312.157H171.109V292.24Z" fill="white"/>
<path opacity="0.1" d="M171.109 292.24H167.287V312.157H171.109V292.24Z" fill="black"/>
<path d="M203.79 312.157H209.757V291.921H203.79V312.157Z" fill="white"/>
<path opacity="0.2" d="M203.79 312.157H209.757V291.921H203.79V312.157Z" fill="black"/>
<path d="M197.816 312.157H203.783V294.146H197.816V312.157Z" fill="white"/>
<path d="M190.367 312.157H194.579V294.146H190.367V312.157Z" fill="white"/>
<path opacity="0.9" d="M190.367 312.157H194.579V294.146H190.367V312.157Z" fill="white"/>
<path d="M194.571 312.149H198.393V292.232H194.571V312.149Z" fill="white"/>
<path opacity="0.1" d="M194.571 312.149H198.393V292.232H194.571V312.149Z" fill="black"/>
<path d="M184.392 312.157H190.359V291.921H184.392V312.157Z" fill="white"/>
<path d="M178.425 312.157H184.392V294.146H178.425V312.157Z" fill="white"/>
<path opacity="0.2" d="M178.425 312.157H184.392V294.146H178.425V312.157Z" fill="#263238"/>
<path d="M175.18 312.149H179.002V292.232H175.18V312.149Z" fill="white"/>
<path opacity="0.1" d="M175.18 312.149H179.002V292.232H175.18V312.149Z" fill="black"/>
<path d="M238.188 312.157H244.155V291.921H238.188V312.157Z" fill="white"/>
<path opacity="0.2" d="M238.188 312.157H244.155V291.921H238.188V312.157Z" fill="black"/>
<path d="M232.214 312.157H238.181V294.146H232.214V312.157Z" fill="white"/>
<path d="M224.765 312.157H228.977V294.146H224.765V312.157Z" fill="white"/>
<path opacity="0.9" d="M224.765 312.157H228.977V294.146H224.765V312.157Z" fill="white"/>
<path d="M228.969 312.149H232.791V292.232H228.969V312.149Z" fill="white"/>
<path opacity="0.1" d="M228.969 312.149H232.791V292.232H228.969V312.149Z" fill="black"/>
<path d="M218.79 312.157H224.757V291.921H218.79V312.157Z" fill="white"/>
<path d="M248.04 311.442L251.959 310.394L246.684 290.765L242.765 291.813L248.04 311.442Z" fill="white"/>
<path d="M212.823 312.157H218.79V294.146H212.823V312.157Z" fill="white"/>
<path opacity="0.2" d="M212.823 312.157H218.79V294.146H212.823V312.157Z" fill="#263238"/>
<path d="M209.578 312.149H213.4V292.232H209.578V312.149Z" fill="white"/>
<path opacity="0.1" d="M209.578 312.149H213.4V292.232H209.578V312.149Z" fill="black"/>
<path d="M250.038 338.443L254.046 337.372L248.795 317.825L244.787 318.897L250.038 338.443Z" fill="white"/>
<path opacity="0.2" d="M250.038 338.443L254.046 337.372L248.795 317.825L244.787 318.897L250.038 338.443Z" fill="black"/>
<path d="M239.741 338.243H245.708V320.233H239.741V338.243Z" fill="white"/>
<path d="M232.276 338.243H236.488V320.233H232.276V338.243Z" fill="white"/>
<path opacity="0.9" d="M232.276 338.243H236.488V320.233H232.276V338.243Z" fill="white"/>
<path d="M236.488 338.251H240.31V318.334H236.488V338.251Z" fill="white"/>
<path opacity="0.1" d="M236.488 338.251H240.31V318.334H236.488V338.251Z" fill="black"/>
<path d="M226.317 338.251H232.284V318.015H226.317V338.251Z" fill="white"/>
<path d="M220.342 338.243H226.309V320.233H220.342V338.243Z" fill="white"/>
<path opacity="0.2" d="M220.342 338.243H226.309V320.233H220.342V338.243Z" fill="#263238"/>
<path d="M212.893 338.243H217.105V320.233H212.893V338.243Z" fill="white"/>
<path opacity="0.8" d="M212.893 338.243H217.105V320.233H212.893V338.243Z" fill="white"/>
<path d="M217.097 338.251H220.919V318.334H217.097V338.251Z" fill="white"/>
<path opacity="0.1" d="M217.097 338.251H220.919V318.334H217.097V338.251Z" fill="black"/>
<path d="M184.423 318.015H178.456V338.251H184.423V318.015Z" fill="white"/>
<path opacity="0.2" d="M184.423 318.015H178.456V338.251H184.423V318.015Z" fill="black"/>
<path d="M190.39 320.24H184.423V338.251H190.39V320.24Z" fill="white"/>
<path d="M197.847 320.24H193.635V338.251H197.847V320.24Z" fill="white"/>
<path opacity="0.9" d="M197.847 320.24H193.635V338.251H197.847V320.24Z" fill="white"/>
<path d="M193.635 318.334H189.813V338.251H193.635V318.334Z" fill="white"/>
<path opacity="0.1" d="M193.635 318.334H189.813V338.251H193.635V318.334Z" fill="black"/>
<path d="M203.814 318.015H197.847V338.251H203.814V318.015Z" fill="white"/>
<path d="M209.781 320.24H203.814V338.251H209.781V320.24Z" fill="white"/>
<path opacity="0.2" d="M209.781 320.24H203.814V338.251H209.781V320.24Z" fill="#263238"/>
<path d="M213.026 318.334H209.204V338.251H213.026V318.334Z" fill="white"/>
<path opacity="0.1" d="M213.026 318.334H209.204V338.251H213.026V318.334Z" fill="black"/>
<path d="M150.025 318.015H144.058V338.251H150.025V318.015Z" fill="white"/>
<path opacity="0.2" d="M150.025 318.015H144.058V338.251H150.025V318.015Z" fill="black"/>
<path d="M155.992 320.24H150.025V338.251H155.992V320.24Z" fill="white"/>
<path d="M163.449 320.24H159.237V338.251H163.449V320.24Z" fill="white"/>
<path opacity="0.9" d="M163.449 320.24H159.237V338.251H163.449V320.24Z" fill="white"/>
<path d="M159.237 318.334H155.415V338.251H159.237V318.334Z" fill="white"/>
<path opacity="0.1" d="M159.237 318.334H155.415V338.251H159.237V318.334Z" fill="black"/>
<path d="M169.416 318.015H163.449V338.251H169.416V318.015Z" fill="white"/>
<path d="M144.046 318.88L140.143 317.837L134.892 337.383L138.795 338.426L144.046 318.88Z" fill="white"/>
<path d="M175.383 320.24H169.416V338.251H175.383V320.24Z" fill="white"/>
<path opacity="0.2" d="M175.383 320.24H169.416V338.251H175.383V320.24Z" fill="#263238"/>
<path d="M178.628 318.334H174.806V338.251H178.628V318.334Z" fill="white"/>
<path opacity="0.1" d="M178.628 318.334H174.806V338.251H178.628V318.334Z" fill="black"/>
<path d="M141.118 353.547H135.151L134.332 342.032H141.937L141.118 353.547Z" fill="#263238"/>
<path d="M254.849 353.547H248.882L248.063 342.032H255.668L254.849 353.547Z" fill="#263238"/>
<path d="M261.425 284.273H128.575C127.816 284.273 127.088 284.574 126.551 285.11C126.014 285.645 125.712 286.371 125.712 287.129V341.262C125.712 342.019 126.014 342.745 126.551 343.281C127.088 343.816 127.816 344.117 128.575 344.117H261.425C262.184 344.117 262.912 343.816 263.449 343.281C263.986 342.745 264.287 342.019 264.287 341.262V287.129C264.287 286.371 263.986 285.645 263.449 285.11C262.912 284.574 262.184 284.273 261.425 284.273V284.273ZM258.554 289.992V312.157H131.414V289.992H258.554ZM131.445 338.43V316.241H258.585V338.43H131.445Z" fill="white" stroke="#263238" stroke-width="0.75" stroke-linecap="round" stroke-linejoin="round"/>
<path d="M241.784 170.569H149.861C146.906 170.569 144.51 172.958 144.51 175.906V195.589C144.51 198.537 146.906 200.926 149.861 200.926H241.784C244.739 200.926 247.135 198.537 247.135 195.589V175.906C247.135 172.958 244.739 170.569 241.784 170.569Z" fill="#263238" stroke="#263238" stroke-linecap="round" stroke-linejoin="round"/>
<path d="M240.146 168.935H148.223C145.268 168.935 142.873 171.324 142.873 174.272V193.955C142.873 196.903 145.268 199.292 148.223 199.292H240.146C243.102 199.292 245.497 196.903 245.497 193.955V174.272C245.497 171.324 243.102 168.935 240.146 168.935Z" fill="white" stroke="#263238" stroke-linecap="round" stroke-linejoin="round"/>
<path d="M240.146 168.935H148.223C145.268 168.935 142.873 171.324 142.873 174.272V193.955C142.873 196.903 145.268 199.292 148.223 199.292H240.146C243.102 199.292 245.497 196.903 245.497 193.955V174.272C245.497 171.324 243.102 168.935 240.146 168.935Z" stroke="#263238" stroke-linecap="round" stroke-linejoin="round"/>
<path d="M165.594 193.076H152.077V176.023H161.086L165.594 180.519V193.076Z" fill="white"/>
<path opacity="0.5" d="M165.594 193.076H152.077V176.023H161.086L165.594 180.519V193.076Z" fill="white"/>
<path d="M165.594 193.076H152.077V176.023H161.086L165.594 180.519V193.076Z" stroke="#263238" stroke-linecap="round" stroke-linejoin="round"/>
<path d="M161.085 180.519H165.594L161.085 176.023V180.519Z" fill="white" stroke="#263238" stroke-linecap="round" stroke-linejoin="round"/>
<path d="M155.08 185.071C154.867 185.05 154.67 184.952 154.526 184.794C154.383 184.637 154.303 184.432 154.303 184.219C154.303 184.006 154.383 183.801 154.526 183.643C154.67 183.486 154.867 183.387 155.08 183.367H162.591C162.803 183.387 163.001 183.486 163.144 183.643C163.288 183.801 163.367 184.006 163.367 184.219C163.367 184.432 163.288 184.637 163.144 184.794C163.001 184.952 162.803 185.05 162.591 185.071H155.08Z" fill="#858585" stroke="#263238" stroke-width="0.75" stroke-linecap="round" stroke-linejoin="round"/>
<path d="M155.08 188.657C154.867 188.637 154.67 188.539 154.526 188.381C154.383 188.223 154.303 188.018 154.303 187.805C154.303 187.593 154.383 187.387 154.526 187.23C154.67 187.072 154.867 186.974 155.08 186.953H160.953C161.165 186.974 161.363 187.072 161.506 187.23C161.65 187.387 161.729 187.593 161.729 187.805C161.729 188.018 161.65 188.223 161.506 188.381C161.363 188.539 161.165 188.637 160.953 188.657H155.08Z" fill="#858585" stroke="#263238" stroke-width="0.75" stroke-linecap="round" stroke-linejoin="round"/>
<path d="M199.766 186.051H174.611C174.162 186.081 173.742 186.279 173.435 186.607C173.128 186.934 172.958 187.365 172.958 187.813C172.958 188.261 173.128 188.693 173.435 189.02C173.742 189.347 174.162 189.546 174.611 189.575H199.766V186.051Z" fill="white"/>
<path d="M174.611 189.575C174.162 189.546 173.742 189.347 173.435 189.02C173.128 188.693 172.958 188.261 172.958 187.813C172.958 187.365 173.128 186.934 173.435 186.607C173.742 186.279 174.162 186.081 174.611 186.051H234.515C234.757 186.035 234.999 186.069 235.227 186.15C235.456 186.231 235.665 186.358 235.842 186.524C236.019 186.689 236.16 186.889 236.256 187.11C236.353 187.332 236.403 187.571 236.403 187.813C236.403 188.055 236.353 188.294 236.256 188.516C236.16 188.738 236.019 188.938 235.842 189.103C235.665 189.268 235.456 189.395 235.227 189.476C234.999 189.558 234.757 189.591 234.515 189.575H174.611Z" stroke="#263238" stroke-linecap="round" stroke-linejoin="round"/>
<path d="M200.335 181.274H198.439V180.379L200.241 176.124H201.325V180.379H201.793V181.274H201.325V182.418H200.335V181.274ZM200.335 180.379V177.929L199.36 180.387L200.335 180.379Z" fill="#263238"/>
<path d="M202.254 180.932V180.442H203.19V181.002C203.19 181.453 203.385 181.616 203.705 181.616C204.025 181.616 204.22 181.453 204.22 181.002V179.594C204.22 179.142 204.017 178.971 203.705 178.971C203.393 178.971 203.19 179.142 203.19 179.594V179.648H202.254L202.433 176.131H205.046V177.034H203.315L203.237 178.535C203.324 178.388 203.45 178.267 203.601 178.186C203.753 178.105 203.923 178.067 204.095 178.076C204.82 178.076 205.195 178.59 205.195 179.516V180.932C205.195 181.943 204.688 182.488 203.713 182.488C202.738 182.488 202.254 181.943 202.254 180.932Z" fill="#263238"/>
<path d="M205.826 178.621V177.065C205.814 176.933 205.83 176.799 205.873 176.673C205.915 176.547 205.983 176.432 206.073 176.333C206.163 176.235 206.273 176.157 206.395 176.103C206.517 176.05 206.648 176.022 206.782 176.022C206.915 176.022 207.047 176.05 207.169 176.103C207.291 176.157 207.4 176.235 207.49 176.333C207.58 176.432 207.648 176.547 207.691 176.673C207.733 176.799 207.749 176.933 207.737 177.065V178.621C207.749 178.754 207.733 178.887 207.691 179.013C207.648 179.139 207.58 179.255 207.49 179.353C207.4 179.451 207.291 179.529 207.169 179.583C207.047 179.637 206.915 179.664 206.782 179.664C206.648 179.664 206.517 179.637 206.395 179.583C206.273 179.529 206.163 179.451 206.073 179.353C205.983 179.255 205.915 179.139 205.873 179.013C205.83 178.887 205.814 178.754 205.826 178.621V178.621ZM207.105 178.668V177.003C207.105 176.731 206.981 176.614 206.786 176.614C206.591 176.614 206.458 176.731 206.458 177.003V178.668C206.458 178.948 206.575 179.065 206.786 179.065C206.996 179.065 207.105 178.94 207.105 178.668ZM209.071 176.132H209.703L207.261 182.426H206.63L209.071 176.132ZM208.595 181.507V179.951C208.583 179.819 208.599 179.686 208.641 179.56C208.684 179.434 208.752 179.318 208.842 179.22C208.932 179.122 209.042 179.043 209.164 178.99C209.286 178.936 209.417 178.908 209.551 178.908C209.684 178.908 209.816 178.936 209.938 178.99C210.06 179.043 210.169 179.122 210.259 179.22C210.349 179.318 210.417 179.434 210.46 179.56C210.502 179.686 210.518 179.819 210.506 179.951V181.507C210.518 181.64 210.502 181.773 210.46 181.899C210.417 182.025 210.349 182.141 210.259 182.239C210.169 182.337 210.06 182.416 209.938 182.469C209.816 182.523 209.684 182.551 209.551 182.551C209.417 182.551 209.286 182.523 209.164 182.469C209.042 182.416 208.932 182.337 208.842 182.239C208.752 182.141 208.684 182.025 208.641 181.899C208.599 181.773 208.583 181.64 208.595 181.507ZM209.874 181.554V179.889C209.874 179.609 209.75 179.492 209.547 179.492C209.344 179.492 209.227 179.609 209.227 179.889V181.554C209.227 181.834 209.344 181.951 209.547 181.951C209.75 181.951 209.874 181.834 209.874 181.554V181.554Z" fill="#263238"/>
<path d="M241.784 205.797H149.861C146.906 205.797 144.51 208.186 144.51 211.134V230.817C144.51 233.765 146.906 236.154 149.861 236.154H241.784C244.739 236.154 247.135 233.765 247.135 230.817V211.134C247.135 208.186 244.739 205.797 241.784 205.797Z" fill="#263238" stroke="#263238" stroke-linecap="round" stroke-linejoin="round"/>
<path d="M240.146 204.163H148.223C145.268 204.163 142.873 206.552 142.873 209.5V229.183C142.873 232.131 145.268 234.52 148.223 234.52H240.146C243.102 234.52 245.497 232.131 245.497 229.183V209.5C245.497 206.552 243.102 204.163 240.146 204.163Z" fill="white" stroke="#263238" stroke-linecap="round" stroke-linejoin="round"/>
<path d="M219.609 221.061H174.611C174.162 221.091 173.742 221.289 173.435 221.617C173.128 221.944 172.958 222.375 172.958 222.823C172.958 223.271 173.128 223.703 173.435 224.03C173.742 224.357 174.162 224.556 174.611 224.585H219.609V221.061Z" fill="white"/>
<path d="M174.611 224.585C174.162 224.556 173.742 224.357 173.435 224.03C173.128 223.703 172.958 223.271 172.958 222.823C172.958 222.375 173.128 221.944 173.435 221.617C173.742 221.289 174.162 221.091 174.611 221.061H234.515C234.757 221.045 234.999 221.079 235.227 221.16C235.456 221.241 235.665 221.368 235.842 221.534C236.019 221.699 236.16 221.899 236.256 222.12C236.353 222.342 236.403 222.581 236.403 222.823C236.403 223.065 236.353 223.304 236.256 223.526C236.16 223.748 236.019 223.948 235.842 224.113C235.665 224.278 235.456 224.405 235.227 224.486C234.999 224.568 234.757 224.601 234.515 224.585H174.611Z" stroke="#263238" stroke-linecap="round" stroke-linejoin="round"/>
<path d="M198.557 215.973V215.413C198.526 215.159 198.571 214.902 198.686 214.674C198.801 214.445 198.981 214.256 199.204 214.129V214.129C198.992 214.006 198.821 213.822 198.713 213.602C198.604 213.382 198.564 213.135 198.596 212.892V212.635C198.596 212.235 198.755 211.851 199.039 211.568C199.323 211.285 199.707 211.126 200.109 211.126C200.51 211.126 200.895 211.285 201.179 211.568C201.463 211.851 201.622 212.235 201.622 212.635V212.892C201.65 213.136 201.607 213.382 201.498 213.602C201.388 213.821 201.217 214.004 201.006 214.129C201.23 214.255 201.412 214.444 201.528 214.672C201.645 214.9 201.691 215.158 201.661 215.413V215.973C201.661 216.386 201.497 216.781 201.204 217.073C200.912 217.365 200.515 217.529 200.101 217.529C199.687 217.529 199.29 217.365 198.998 217.073C198.705 216.781 198.541 216.386 198.541 215.973H198.557ZM200.67 215.918V215.312C200.67 214.837 200.475 214.604 200.109 214.604C199.742 214.604 199.547 214.837 199.547 215.312V215.918C199.547 216.393 199.742 216.626 200.109 216.626C200.475 216.626 200.67 216.393 200.67 215.918V215.918ZM200.67 213.079V212.581C200.67 212.168 200.491 211.951 200.148 211.951C199.805 211.951 199.625 212.168 199.625 212.581V213.079C199.625 213.491 199.805 213.709 200.148 213.709C200.491 213.709 200.631 213.491 200.631 213.079H200.67Z" fill="#263238"/>
<path d="M202.254 215.942V215.452H203.19V216.012C203.19 216.463 203.385 216.626 203.705 216.626C204.024 216.626 204.219 216.463 204.219 216.012V214.604C204.219 214.152 204.017 213.981 203.705 213.981C203.393 213.981 203.19 214.152 203.19 214.604V214.658H202.254L202.433 211.141H205.046V212.044H203.315L203.237 213.545C203.324 213.398 203.45 213.277 203.601 213.196C203.752 213.115 203.923 213.077 204.095 213.086C204.82 213.086 205.194 213.6 205.194 214.526V215.942C205.209 216.144 205.182 216.348 205.114 216.539C205.047 216.731 204.94 216.907 204.802 217.056C204.663 217.204 204.495 217.323 204.308 217.404C204.122 217.485 203.92 217.527 203.716 217.527C203.513 217.527 203.311 217.485 203.124 217.404C202.938 217.323 202.77 217.204 202.631 217.056C202.492 216.907 202.386 216.731 202.318 216.539C202.251 216.348 202.224 216.144 202.238 215.942H202.254Z" fill="#263238"/>
<path d="M205.826 213.631V212.075C205.814 211.943 205.83 211.809 205.873 211.683C205.915 211.557 205.983 211.442 206.073 211.343C206.163 211.245 206.273 211.167 206.395 211.113C206.517 211.06 206.648 211.032 206.782 211.032C206.915 211.032 207.047 211.06 207.169 211.113C207.291 211.167 207.4 211.245 207.49 211.343C207.58 211.442 207.648 211.557 207.691 211.683C207.733 211.809 207.749 211.943 207.737 212.075V213.631C207.749 213.764 207.733 213.897 207.691 214.023C207.648 214.149 207.58 214.265 207.49 214.363C207.4 214.461 207.291 214.539 207.169 214.593C207.047 214.647 206.915 214.674 206.782 214.674C206.648 214.674 206.517 214.647 206.395 214.593C206.273 214.539 206.163 214.461 206.073 214.363C205.983 214.265 205.915 214.149 205.873 214.023C205.83 213.897 205.814 213.764 205.826 213.631V213.631ZM207.105 213.678V212.013C207.105 211.741 206.981 211.616 206.786 211.616C206.591 211.616 206.458 211.741 206.458 212.013V213.678C206.458 213.958 206.575 214.075 206.786 214.075C206.996 214.075 207.105 213.95 207.105 213.678ZM209.071 211.142H209.703L207.261 217.436H206.63L209.071 211.142ZM208.595 216.517V214.961C208.583 214.829 208.599 214.696 208.641 214.57C208.684 214.444 208.752 214.328 208.842 214.23C208.932 214.132 209.042 214.053 209.164 214C209.286 213.946 209.417 213.918 209.551 213.918C209.684 213.918 209.816 213.946 209.938 214C210.06 214.053 210.169 214.132 210.259 214.23C210.349 214.328 210.417 214.444 210.46 214.57C210.502 214.696 210.518 214.829 210.506 214.961V216.517C210.518 216.65 210.502 216.783 210.46 216.909C210.417 217.035 210.349 217.151 210.259 217.249C210.169 217.347 210.06 217.426 209.938 217.479C209.816 217.533 209.684 217.561 209.551 217.561C209.417 217.561 209.286 217.533 209.164 217.479C209.042 217.426 208.932 217.347 208.842 217.249C208.752 217.151 208.684 217.035 208.641 216.909C208.599 216.783 208.583 216.65 208.595 216.517ZM209.874 216.564V214.899C209.874 214.619 209.75 214.502 209.547 214.502C209.344 214.502 209.227 214.619 209.227 214.899V216.564C209.227 216.844 209.344 216.961 209.547 216.961C209.75 216.961 209.874 216.844 209.874 216.564V216.564Z" fill="#263238"/>
<path d="M165.594 228.086H152.077V211.033H161.086L165.594 215.529V228.086Z" fill="white"/>
<path opacity="0.5" d="M165.594 228.086H152.077V211.033H161.086L165.594 215.529V228.086Z" fill="white" stroke="#263238" stroke-linecap="round" stroke-linejoin="round"/>
<path d="M165.594 228.086H152.077V211.033H161.086L165.594 215.529V228.086Z" stroke="#263238" stroke-linecap="round" stroke-linejoin="round"/>
<path d="M155.08 220.081C154.867 220.06 154.67 219.962 154.526 219.804C154.383 219.647 154.303 219.442 154.303 219.229C154.303 219.016 154.383 218.811 154.526 218.653C154.67 218.496 154.867 218.397 155.08 218.377H162.591C162.803 218.397 163.001 218.496 163.144 218.653C163.288 218.811 163.367 219.016 163.367 219.229C163.367 219.442 163.288 219.647 163.144 219.804C163.001 219.962 162.803 220.06 162.591 220.081H155.08Z" fill="#858585" stroke="#263238" stroke-width="0.75" stroke-linecap="round" stroke-linejoin="round"/>
<path d="M155.08 223.667C154.867 223.647 154.67 223.549 154.526 223.391C154.383 223.234 154.303 223.028 154.303 222.815C154.303 222.603 154.383 222.397 154.526 222.24C154.67 222.082 154.867 221.984 155.08 221.964H160.953C161.165 221.984 161.363 222.082 161.506 222.24C161.65 222.397 161.729 222.603 161.729 222.815C161.729 223.028 161.65 223.234 161.506 223.391C161.363 223.549 161.165 223.647 160.953 223.667H155.08Z" fill="#858585" stroke="#263238" stroke-width="0.75" stroke-linecap="round" stroke-linejoin="round"/>
<path d="M161.085 215.529H165.594L161.085 211.033V215.529Z" fill="white" stroke="#263238" stroke-linecap="round" stroke-linejoin="round"/>
<path d="M254.35 123.531H137.288C134.333 123.531 131.937 125.92 131.937 128.868V155.997C131.937 158.945 134.333 161.334 137.288 161.334H254.35C257.305 161.334 259.701 158.945 259.701 155.997V128.868C259.701 125.92 257.305 123.531 254.35 123.531Z" fill="#263238" stroke="#263238" stroke-linecap="round" stroke-linejoin="round"/>
<path d="M252.712 121.897H135.65C132.694 121.897 130.299 124.287 130.299 127.234V154.363C130.299 157.311 132.694 159.7 135.65 159.7H252.712C255.667 159.7 258.063 157.311 258.063 154.363V127.234C258.063 124.287 255.667 121.897 252.712 121.897Z" fill="white" stroke="#263238" stroke-linecap="round" stroke-linejoin="round"/>
<path d="M174.892 156.588H149.861V125.009H166.546L174.892 133.326V156.588Z" fill="white"/>
<path opacity="0.7" d="M174.892 156.588H149.861V125.009H166.546L174.892 133.326V156.588Z" fill="white"/>
<path d="M174.892 156.588H149.861V125.009H166.546L174.892 133.326V156.588Z" stroke="#263238" stroke-linecap="round" stroke-linejoin="round"/>
<path d="M166.545 133.326H174.891L166.545 125.009V133.326Z" fill="white" stroke="#263238" stroke-linecap="round" stroke-linejoin="round"/>
<path d="M157.248 137.216H152.334V142.117H157.248V137.216Z" stroke="white" stroke-width="0.75" stroke-linecap="round" stroke-linejoin="round"/>
<path d="M162.302 137.216H157.388V142.117H162.302V137.216Z" stroke="white" stroke-width="0.75" stroke-linecap="round" stroke-linejoin="round"/>
<path d="M167.364 137.216H162.45V142.117H167.364V137.216Z" stroke="white" stroke-width="0.75" stroke-linecap="round" stroke-linejoin="round"/>
<path d="M172.419 137.216H167.505V142.117H172.419V137.216Z" stroke="white" stroke-width="0.75" stroke-linecap="round" stroke-linejoin="round"/>
<path d="M157.248 142.117H152.334V147.019H157.248V142.117Z" stroke="white" stroke-width="0.75" stroke-linecap="round" stroke-linejoin="round"/>
<path d="M162.302 142.117H157.388V147.019H162.302V142.117Z" stroke="white" stroke-width="0.75" stroke-linecap="round" stroke-linejoin="round"/>
<path d="M167.364 142.117H162.45V147.019H167.364V142.117Z" stroke="white" stroke-width="0.75" stroke-linecap="round" stroke-linejoin="round"/>
<path d="M172.419 142.117H167.505V147.019H172.419V142.117Z" stroke="white" stroke-width="0.75" stroke-linecap="round" stroke-linejoin="round"/>
<path d="M157.248 147.019H152.334V151.92H157.248V147.019Z" stroke="white" stroke-width="0.75" stroke-linecap="round" stroke-linejoin="round"/>
<path d="M162.302 147.019H157.388V151.92H162.302V147.019Z" stroke="white" stroke-width="0.75" stroke-linecap="round" stroke-linejoin="round"/>
<path d="M167.364 147.019H162.45V151.92H167.364V147.019Z" stroke="white" stroke-width="0.75" stroke-linecap="round" stroke-linejoin="round"/>
<path d="M172.419 147.019H167.505V151.92H172.419V147.019Z" stroke="white" stroke-width="0.75" stroke-linecap="round" stroke-linejoin="round"/>
<path d="M152.427 151.445L157.388 146.902L159.845 147.019L162.528 142.187L164.907 144.568L167.575 141.775L169.962 137.216" stroke="white" stroke-width="2" stroke-linecap="round" stroke-linejoin="round"/>
<path d="M167.146 138.64L169.962 137.216L170.531 140.281" stroke="white" stroke-width="2" stroke-linecap="round" stroke-linejoin="round"/>
<path d="M184.735 139.791H183.3V138.842C184.439 138.842 184.86 138.593 185.156 137.76H186.061V146.318H184.712L184.735 139.791Z" fill="#263238"/>
<path d="M187.66 144.304V139.791C187.66 139.248 187.876 138.728 188.261 138.344C188.646 137.961 189.168 137.745 189.712 137.745C190.256 137.745 190.777 137.961 191.162 138.344C191.547 138.728 191.763 139.248 191.763 139.791V144.304C191.763 144.846 191.547 145.367 191.162 145.75C190.777 146.134 190.256 146.35 189.712 146.35C189.168 146.35 188.646 146.134 188.261 145.75C187.876 145.367 187.66 144.846 187.66 144.304V144.304ZM190.414 144.389V139.721C190.414 139.114 190.141 138.881 189.712 138.881C189.283 138.881 189.01 139.114 189.01 139.721V144.389C189.01 145.004 189.283 145.237 189.712 145.237C190.141 145.237 190.414 145.004 190.414 144.389Z" fill="#263238"/>
<path d="M192.574 144.304V139.791C192.574 139.248 192.79 138.728 193.175 138.344C193.56 137.961 194.082 137.745 194.626 137.745C195.17 137.745 195.691 137.961 196.076 138.344C196.461 138.728 196.677 139.248 196.677 139.791V144.304C196.677 144.846 196.461 145.367 196.076 145.75C195.691 146.134 195.17 146.35 194.626 146.35C194.082 146.35 193.56 146.134 193.175 145.75C192.79 145.367 192.574 144.846 192.574 144.304V144.304ZM195.328 144.389V139.721C195.328 139.114 195.055 138.881 194.626 138.881C194.197 138.881 193.924 139.114 193.924 139.721V144.389C193.924 145.004 194.197 145.237 194.626 145.237C195.055 145.237 195.328 145.004 195.328 144.389Z" fill="#263238"/>
<path d="M197.511 141.153V139.013C197.511 138.669 197.648 138.338 197.893 138.094C198.137 137.851 198.468 137.714 198.814 137.714C199.159 137.714 199.491 137.851 199.735 138.094C199.979 138.338 200.116 138.669 200.116 139.013V141.153C200.116 141.497 199.979 141.828 199.735 142.071C199.491 142.315 199.159 142.452 198.814 142.452C198.468 142.452 198.137 142.315 197.893 142.071C197.648 141.828 197.511 141.497 197.511 141.153V141.153ZM199.258 141.215V138.951C199.258 138.57 199.087 138.406 198.814 138.406C198.541 138.406 198.369 138.57 198.369 138.951V141.215C198.369 141.596 198.533 141.752 198.814 141.752C199.095 141.752 199.258 141.596 199.258 141.215V141.215ZM201.934 137.761H202.8L199.469 146.319H198.611L201.934 137.761ZM201.279 145.089V142.942C201.279 142.771 201.312 142.602 201.378 142.445C201.443 142.287 201.539 142.144 201.66 142.023C201.781 141.903 201.925 141.807 202.083 141.742C202.241 141.676 202.41 141.643 202.581 141.643C202.752 141.643 202.922 141.676 203.08 141.742C203.238 141.807 203.381 141.903 203.502 142.023C203.623 142.144 203.719 142.287 203.785 142.445C203.85 142.602 203.884 142.771 203.884 142.942V145.089C203.884 145.26 203.85 145.429 203.785 145.587C203.719 145.744 203.623 145.887 203.502 146.008C203.381 146.129 203.238 146.224 203.08 146.29C202.922 146.355 202.752 146.389 202.581 146.389C202.41 146.389 202.241 146.355 202.083 146.29C201.925 146.224 201.781 146.129 201.66 146.008C201.539 145.887 201.443 145.744 201.378 145.587C201.312 145.429 201.279 145.26 201.279 145.089ZM203.026 145.152V142.88C203.026 142.499 202.854 142.343 202.581 142.343C202.308 142.343 202.144 142.499 202.144 142.88V145.152C202.144 145.525 202.3 145.688 202.581 145.688C202.862 145.688 203.026 145.525 203.026 145.152V145.152Z" fill="#263238"/>
<path d="M206.068 143.658V140.273C206.068 139.888 206.222 139.518 206.495 139.245C206.769 138.972 207.14 138.819 207.526 138.819C207.913 138.819 208.284 138.972 208.558 139.245C208.831 139.518 208.985 139.888 208.985 140.273V140.943H208.049V140.211C208.049 139.799 207.846 139.628 207.55 139.628C207.253 139.628 207.058 139.799 207.058 140.211V143.728C207.058 144.14 207.253 144.304 207.55 144.304C207.846 144.304 208.049 144.14 208.049 143.728V142.763H208.985V143.658C208.985 144.044 208.831 144.414 208.558 144.687C208.284 144.959 207.913 145.113 207.526 145.113C207.14 145.113 206.769 144.959 206.495 144.687C206.222 144.414 206.068 144.044 206.068 143.658Z" fill="#263238"/>
<path d="M209.523 143.619V140.312C209.523 139.914 209.682 139.532 209.964 139.251C210.247 138.969 210.63 138.811 211.029 138.811C211.428 138.811 211.811 138.969 212.093 139.251C212.376 139.532 212.534 139.914 212.534 140.312V143.619C212.534 144.017 212.376 144.399 212.093 144.681C211.811 144.962 211.428 145.12 211.029 145.12C210.63 145.12 210.247 144.962 209.964 144.681C209.682 144.399 209.523 144.017 209.523 143.619V143.619ZM211.544 143.681V140.25C211.544 139.799 211.349 139.628 211.029 139.628C210.709 139.628 210.514 139.799 210.514 140.25V143.681C210.514 144.132 210.717 144.303 211.029 144.303C211.341 144.303 211.544 144.132 211.544 143.681Z" fill="#263238"/>
<path d="M213.197 138.819H214.617L215.249 143.323L215.88 138.819H217.292V145.113H216.356V140.351L215.631 145.113H214.804L214.086 140.351V145.113H213.221L213.197 138.819Z" fill="#263238"/>
<path d="M218.049 138.819H219.507C220.498 138.819 220.982 139.371 220.982 140.375V140.997C220.982 142.001 220.498 142.553 219.507 142.553H219.039V145.113H218.049V138.819ZM219.507 141.651C219.819 141.651 219.991 141.51 219.991 141.059V140.281C219.991 139.83 219.819 139.69 219.507 139.69H219.039V141.619L219.507 141.651Z" fill="#263238"/>
<path d="M221.52 138.819H222.511V144.21H224.141V145.113H221.52V138.819Z" fill="#263238"/>
<path d="M224.64 138.819H227.338V139.721H225.63V141.378H226.98V142.281H225.622V144.21H227.331V145.113H224.64V138.819Z" fill="#263238"/>
<path d="M228.665 139.721H227.635V138.819H230.693V139.721H229.655V145.113H228.665V139.721Z" fill="#263238"/>
<path d="M231.176 138.819H233.875V139.721H232.167V141.378H233.524V142.281H232.167V144.21H233.875V145.113H231.176V138.819Z" fill="#263238"/>
<path d="M234.444 138.819H235.958C236.948 138.819 237.432 139.371 237.432 140.375V143.557C237.432 144.56 236.948 145.113 235.958 145.113H234.444V138.819ZM235.934 144.21C236.254 144.21 236.441 144.047 236.441 143.603V140.328C236.441 139.884 236.254 139.721 235.934 139.721H235.435V144.21H235.934Z" fill="#263238"/>
<path d="M241.784 241.032H149.861C146.906 241.032 144.51 243.422 144.51 246.369V266.053C144.51 269 146.906 271.39 149.861 271.39H241.784C244.739 271.39 247.135 269 247.135 266.053V246.369C247.135 243.422 244.739 241.032 241.784 241.032Z" fill="#263238" stroke="#263238" stroke-linecap="round" stroke-linejoin="round"/>
<path d="M240.146 239.399H148.223C145.268 239.399 142.873 241.788 142.873 244.736V264.419C142.873 267.367 145.268 269.756 148.223 269.756H240.146C243.102 269.756 245.497 267.367 245.497 264.419V244.736C245.497 241.788 243.102 239.399 240.146 239.399Z" fill="white" stroke="#263238" stroke-linecap="round" stroke-linejoin="round"/>
<path d="M216.434 256.079H174.61C174.143 256.079 173.695 256.264 173.364 256.594C173.033 256.923 172.848 257.371 172.848 257.837C172.848 258.303 173.033 258.751 173.364 259.08C173.695 259.41 174.143 259.595 174.61 259.595H216.434V256.079Z" fill="white"/>
<path d="M174.61 259.595C174.143 259.595 173.695 259.41 173.364 259.08C173.033 258.751 172.848 258.303 172.848 257.837C172.848 257.371 173.033 256.923 173.364 256.594C173.695 256.264 174.143 256.079 174.61 256.079H234.514C234.746 256.079 234.975 256.124 235.189 256.213C235.403 256.301 235.597 256.43 235.761 256.594C235.925 256.757 236.054 256.951 236.143 257.164C236.232 257.377 236.277 257.606 236.277 257.837C236.277 258.068 236.232 258.297 236.143 258.51C236.054 258.723 235.925 258.917 235.761 259.08C235.597 259.244 235.403 259.373 235.189 259.461C234.975 259.55 234.746 259.595 234.514 259.595H174.61Z" stroke="#263238" stroke-linecap="round" stroke-linejoin="round"/>
<path d="M165.594 263.104H152.077V246.05H161.086L165.594 250.539V263.104Z" fill="white"/>
<path opacity="0.5" d="M165.594 263.104H152.077V246.05H161.086L165.594 250.539V263.104Z" fill="white"/>
<path d="M165.594 263.104H152.077V246.05H161.086L165.594 250.539V263.104Z" stroke="#263238" stroke-linecap="round" stroke-linejoin="round"/>
<path d="M155.08 255.098C154.867 255.078 154.67 254.98 154.526 254.822C154.383 254.665 154.303 254.459 154.303 254.247C154.303 254.034 154.383 253.828 154.526 253.671C154.67 253.513 154.867 253.415 155.08 253.395H162.591C162.803 253.415 163.001 253.513 163.144 253.671C163.288 253.828 163.367 254.034 163.367 254.247C163.367 254.459 163.288 254.665 163.144 254.822C163.001 254.98 162.803 255.078 162.591 255.098H155.08Z" fill="#858585" stroke="#263238" stroke-width="0.75" stroke-linecap="round" stroke-linejoin="round"/>
<path d="M155.079 258.677C154.854 258.677 154.637 258.588 154.478 258.429C154.319 258.27 154.229 258.054 154.229 257.829C154.229 257.604 154.319 257.389 154.478 257.23C154.637 257.071 154.854 256.981 155.079 256.981H160.953C161.178 256.981 161.394 257.071 161.554 257.23C161.713 257.389 161.803 257.604 161.803 257.829C161.803 258.054 161.713 258.27 161.554 258.429C161.394 258.588 161.178 258.677 160.953 258.677H155.079Z" fill="#858585" stroke="#263238" stroke-width="0.75" stroke-linecap="round" stroke-linejoin="round"/>
<path d="M161.085 250.539H165.594L161.085 246.05V250.539Z" fill="white" stroke="#263238" stroke-linecap="round" stroke-linejoin="round"/>
<path d="M200.616 247.054H198.611V246.159H201.583V247.023L200.023 252.469H199.009L200.616 247.054Z" fill="#263238"/>
<path d="M202.207 250.96V247.653C202.207 247.255 202.366 246.873 202.648 246.591C202.93 246.31 203.313 246.151 203.712 246.151C204.112 246.151 204.495 246.31 204.777 246.591C205.059 246.873 205.218 247.255 205.218 247.653V250.96C205.218 251.358 205.059 251.74 204.777 252.021C204.495 252.303 204.112 252.461 203.712 252.461C203.313 252.461 202.93 252.303 202.648 252.021C202.366 251.74 202.207 251.358 202.207 250.96ZM204.227 251.022V247.591C204.227 247.14 204.024 246.968 203.712 246.968C203.4 246.968 203.198 247.14 203.198 247.591V251.022C203.198 251.473 203.4 251.636 203.712 251.636C204.024 251.636 204.227 251.473 204.227 251.022Z" fill="#263238"/>
<path d="M205.826 248.649V247.093C205.814 246.96 205.83 246.827 205.873 246.701C205.915 246.575 205.983 246.459 206.073 246.361C206.163 246.263 206.273 246.185 206.395 246.131C206.517 246.077 206.648 246.05 206.782 246.05C206.915 246.05 207.047 246.077 207.169 246.131C207.291 246.185 207.4 246.263 207.49 246.361C207.58 246.459 207.648 246.575 207.691 246.701C207.733 246.827 207.749 246.96 207.737 247.093V248.649C207.749 248.781 207.733 248.915 207.691 249.041C207.648 249.167 207.58 249.282 207.49 249.38C207.4 249.479 207.291 249.557 207.169 249.611C207.047 249.664 206.915 249.692 206.782 249.692C206.648 249.692 206.517 249.664 206.395 249.611C206.273 249.557 206.163 249.479 206.073 249.38C205.983 249.282 205.915 249.167 205.873 249.041C205.83 248.915 205.814 248.781 205.826 248.649V248.649ZM207.105 248.696V247.031C207.105 246.75 206.981 246.634 206.786 246.634C206.591 246.634 206.458 246.75 206.458 247.031V248.696C206.458 248.968 206.575 249.085 206.786 249.085C206.996 249.085 207.105 248.96 207.105 248.696ZM209.04 246.159H209.672L207.23 252.445H206.598L209.04 246.159ZM208.564 251.535V249.979C208.552 249.847 208.568 249.713 208.61 249.587C208.653 249.461 208.721 249.346 208.811 249.248C208.901 249.149 209.01 249.071 209.132 249.017C209.254 248.964 209.386 248.936 209.519 248.936C209.653 248.936 209.785 248.964 209.906 249.017C210.028 249.071 210.138 249.149 210.228 249.248C210.318 249.346 210.386 249.461 210.429 249.587C210.471 249.713 210.487 249.847 210.475 249.979V251.535C210.487 251.668 210.471 251.801 210.429 251.927C210.386 252.053 210.318 252.169 210.228 252.267C210.138 252.365 210.028 252.443 209.906 252.497C209.785 252.551 209.653 252.578 209.519 252.578C209.386 252.578 209.254 252.551 209.132 252.497C209.01 252.443 208.901 252.365 208.811 252.267C208.721 252.169 208.653 252.053 208.61 251.927C208.568 251.801 208.552 251.668 208.564 251.535V251.535ZM209.843 251.574V249.917C209.843 249.637 209.718 249.52 209.516 249.52C209.313 249.52 209.196 249.637 209.196 249.917V251.574C209.196 251.854 209.313 251.971 209.516 251.971C209.718 251.971 209.874 251.854 209.874 251.574H209.843Z" fill="#263238"/>
<path d="M92.3833 85.7357L112.968 69.8645L133.552 85.7357H92.3833Z" fill="#263238" stroke="#263238" stroke-linecap="round" stroke-linejoin="round"/>
<path d="M118.349 68.6196H107.585V77.8H118.349V68.6196Z" fill="#263238" stroke="#263238" stroke-linecap="round" stroke-linejoin="round"/>
<path d="M112.967 45.8087V77.8001" stroke="#263238" stroke-width="0.75" stroke-linecap="round" stroke-linejoin="round"/>
<path d="M256.44 85.7357L277.032 69.8645L297.617 85.7357H256.44Z" fill="#263238" stroke="#263238" stroke-linecap="round" stroke-linejoin="round"/>
<path d="M282.415 68.6196H271.651V77.8H282.415V68.6196Z" fill="#263238" stroke="#263238" stroke-linecap="round" stroke-linejoin="round"/>
<path d="M277.033 44.2527V77.8" stroke="#263238" stroke-width="0.75" stroke-linecap="round" stroke-linejoin="round"/>
<path d="M285.067 333.443L284.63 346.28L291.291 346.599L293.717 333.443H285.067Z" fill="white" stroke="#263238" stroke-linecap="round" stroke-linejoin="round"/>
<path d="M272.033 350.217C274.279 349.439 278.163 348.116 279.622 347.206C280.792 346.474 282.422 344.094 283.631 343.425C283.885 343.315 284.158 343.259 284.435 343.259C284.711 343.259 284.984 343.315 285.238 343.425C285.434 343.642 285.562 343.913 285.605 344.203C285.638 344.328 285.708 344.441 285.805 344.528C285.903 344.614 286.023 344.67 286.152 344.688C286.281 344.706 286.413 344.686 286.53 344.63C286.648 344.574 286.746 344.485 286.814 344.374C287 344.008 287.267 343.689 287.594 343.44C288.623 342.865 291.408 342.701 292.32 343.44C293.834 344.677 294.38 348.941 294.66 350.862C294.731 351.283 294.66 353.617 294.66 353.617H270.356V352.551C270.352 352.035 270.513 351.531 270.814 351.112C271.115 350.693 271.542 350.379 272.033 350.217V350.217Z" fill="white" stroke="#263238" stroke-linecap="round" stroke-linejoin="round"/>
<path d="M294.676 353.601H270.355V352.535C270.355 352.27 270.4 352.007 270.488 351.757H294.707C294.707 352.574 294.676 353.601 294.676 353.601Z" fill="#858585" stroke="#263238" stroke-linecap="round" stroke-linejoin="round"/>
<path d="M289.271 233.921L284.162 338.329L293.522 339.885C293.522 339.885 299.418 309.667 300.136 299.771C300.308 297.437 300.136 290.396 300.136 290.396L306.758 257.884C306.758 257.884 311.118 253.869 311.625 234.754L289.271 233.921Z" fill="#263238" stroke="#263238" stroke-linecap="round" stroke-linejoin="round"/>
<path opacity="0.7" d="M303.124 274.331C303.482 272.821 303.904 271.335 304.411 269.857C304.489 269.647 304.582 269.453 304.676 269.258C304.908 267.048 305.265 264.854 305.744 262.684C305.91 261.873 306.347 261.143 306.985 260.614C307.167 260.204 307.438 259.84 307.78 259.548C308.121 259.255 308.524 259.043 308.958 258.926C308.671 256.917 308.233 254.933 307.648 252.99C307.055 250.952 306.088 248.999 305.799 246.891C305.721 246.346 305.409 245.778 305.51 245.716C304.84 245.455 304.184 245.159 303.545 244.829L303.428 244.735C302.83 254.589 302.728 264.467 303.124 274.331V274.331Z" fill="black"/>
<path d="M288.826 293.641C290.483 293.258 292.004 292.432 293.225 291.252" stroke="#7F7F7F" stroke-width="0.75" stroke-linecap="round" stroke-linejoin="round"/>
<path d="M282.929 340.313L294.247 341.239L295.089 337.582L282.929 336.633V340.313Z" fill="white" stroke="#263238" stroke-linecap="round" stroke-linejoin="round"/>
<path d="M315.611 331.864L318.022 346.871L324.184 346.389L323.981 331.023L315.611 331.864Z" fill="white" stroke="#263238" stroke-linecap="round" stroke-linejoin="round"/>
<path d="M305.292 350.217C307.546 349.439 311.43 348.116 312.881 347.206C314.051 346.475 315.689 344.094 316.89 343.425C317.145 343.315 317.42 343.258 317.698 343.258C317.975 343.258 318.25 343.315 318.505 343.425C318.646 343.57 318.746 343.75 318.794 343.946C318.835 344.095 318.921 344.228 319.039 344.328C319.157 344.429 319.302 344.491 319.456 344.509C319.61 344.526 319.766 344.498 319.903 344.427C320.041 344.356 320.154 344.245 320.229 344.109C320.388 343.841 320.6 343.608 320.853 343.425C321.882 342.849 324.667 342.686 325.58 343.425C327.093 344.662 327.639 348.925 327.92 350.847C327.982 351.267 327.92 353.601 327.92 353.601H303.623V352.535C303.622 352.023 303.783 351.524 304.082 351.108C304.382 350.692 304.805 350.38 305.292 350.217V350.217Z" fill="white" stroke="#263238" stroke-linecap="round" stroke-linejoin="round"/>
<path d="M327.943 353.601H303.623V352.535C303.62 352.271 303.662 352.007 303.748 351.757H327.967C327.967 352.574 327.943 353.601 327.943 353.601Z" fill="#858585" stroke="#263238" stroke-linecap="round" stroke-linejoin="round"/>
<path d="M302.297 237.072C302.297 237.072 304.637 250.586 306.79 261.921C308.256 269.608 308.35 292.318 308.35 292.318L315.822 339.208L325.034 337.971C325.034 337.971 325.143 309.107 324.106 299.849C323.872 297.787 323.489 291.664 323.489 291.664C323.489 291.664 323.84 267.173 325.736 258.988C327.093 253.153 329.792 247.023 326.516 235.065L302.297 237.072Z" fill="#263238" stroke="#263238" stroke-linecap="round" stroke-linejoin="round"/>
<path d="M310.37 293.641C311.307 294.934 312.7 295.826 314.27 296.138" stroke="#7F7F7F" stroke-width="0.75" stroke-linecap="round" stroke-linejoin="round"/>
<path d="M314.277 337.1L314.808 340.538L326.227 339.317L326.149 335.614L314.277 337.1Z" fill="white" stroke="#263238" stroke-linecap="round" stroke-linejoin="round"/>
<path d="M258.827 174.56L256.308 170.335C256.308 170.335 255.7 163.434 254.296 162.089C252.892 160.743 249.772 156.783 249.327 157.561C248.625 158.805 251.222 161.023 251.222 161.023L251.698 163.59C251.698 163.59 247.494 160.571 246.308 160.571C246.308 160.571 242.954 156.611 241.769 156.604C240.583 156.596 242.252 159.342 242.252 159.342C242.252 159.342 241.121 158.479 240.903 159.015C240.685 159.552 242.362 161.388 242.362 161.388C242.362 161.388 241.714 162.089 242.689 163.59C242.554 164.075 242.556 164.588 242.693 165.072C242.831 165.557 243.099 165.994 243.469 166.336C244.764 167.363 251.722 171.292 251.722 171.292L254.062 176.785L258.827 174.56Z" fill="#858585" stroke="#263238" stroke-linecap="round" stroke-linejoin="round"/>
<path d="M243.282 161.497C243.282 161.497 244.202 161.871 243.82 163.217C244.187 163.737 244.393 164.354 244.413 164.99C244.506 166.173 250.512 165.589 252.135 168.102" stroke="#263238" stroke-width="0.75" stroke-linecap="round" stroke-linejoin="round"/>
<path d="M243.282 160.042L245.731 162.625" stroke="#263238" stroke-width="0.75" stroke-linecap="round" stroke-linejoin="round"/>
<path d="M284.832 173.494L268.757 185.989L257.743 171.02L252.135 173.821C252.135 173.821 260.949 198.11 267.618 198.11C274.708 198.11 288.186 186.751 288.186 186.751C288.186 186.751 289.037 184.581 284.832 173.494Z" fill="white" stroke="#263238" stroke-linecap="round" stroke-linejoin="round"/>
<path d="M269.365 187.179C269.741 187.976 270.021 188.814 270.2 189.676" stroke="#263238" stroke-width="0.75" stroke-linecap="round" stroke-linejoin="round"/>
<path d="M284.833 173.494L288.257 218.704V237.484C288.257 237.484 307.983 239.818 327.444 236.987L326.773 217.653L328.746 174.56C328.746 174.56 319.714 168.048 305.846 168.048C291.977 168.048 284.833 173.494 284.833 173.494Z" fill="white" stroke="#263238" stroke-linecap="round" stroke-linejoin="round"/>
<path opacity="0.2" d="M327.444 236.987L326.82 219.661C326.485 228.008 317.249 224.873 315.159 224.484C312.92 224.064 310.346 231.424 310.346 231.424C310.346 231.424 301.766 232.894 295.051 232.373C288.335 231.852 288.233 225.737 288.233 225.737V237.485C288.233 237.485 307.983 239.85 327.444 236.987Z" fill="black"/>
<path d="M297.5 218.268C305.772 217.381 313.71 214.529 320.65 209.951Z" fill="white"/>
<path d="M297.5 218.268C305.772 217.381 313.71 214.529 320.65 209.951" stroke="#263238" stroke-width="0.75" stroke-linecap="round" stroke-linejoin="round"/>
<path d="M294.06 218.502C294.06 218.502 294.723 218.502 295.893 218.416L294.06 218.502Z" fill="white"/>
<path d="M294.06 218.502C294.06 218.502 294.723 218.502 295.893 218.416" stroke="#263238" stroke-width="0.75" stroke-linecap="round" stroke-linejoin="round"/>
<path d="M300.737 175.672L297.32 174.435L294.06 177.578L296.447 167.853L299.325 165.597L300.791 166.523L307.343 166.274L312.437 166.686L314.863 165.94L317.452 168.523L311.688 179.516L309.27 175.353L303.935 176.015L300.737 175.672Z" fill="white"/>
<path opacity="0.5" d="M300.737 175.672L297.32 174.435L294.06 177.578L296.447 167.853L299.325 165.597L300.791 166.523L307.343 166.274L312.437 166.686L314.863 165.94L317.452 168.523L311.688 179.516L309.27 175.353L303.935 176.015L300.737 175.672Z" fill="white"/>
<path d="M300.737 175.672L297.32 174.435L294.06 177.578L296.447 167.853L299.325 165.597L300.791 166.523L307.343 166.274L312.437 166.686L314.863 165.94L317.452 168.523L311.688 179.516L309.27 175.353L303.935 176.015L300.737 175.672Z" stroke="#263238" stroke-linecap="round" stroke-linejoin="round"/>
<path d="M312.086 168.491L311.306 156.604L303.771 157.934L302.211 163.52L300.651 168.359L299.91 168.437L301.962 179.547L312.835 168.655L312.086 168.491Z" fill="#858585"/>
<path d="M293.561 157.428C293.561 160.447 294.029 167.2 298.186 167.986C302.492 168.803 307.429 163.917 309.2 161.964C309.643 161.479 309.99 160.914 310.221 160.299L311.165 157.802C311.782 157.849 312.399 157.719 312.944 157.428H293.561Z" fill="#263238" stroke="#263238" stroke-width="0.5" stroke-linecap="round" stroke-linejoin="round"/>
<path d="M312.086 168.491L311.306 156.604L303.771 157.934L302.211 163.52L300.651 168.359L299.91 168.437L301.962 179.547L312.835 168.655L312.086 168.491Z" stroke="#263238" stroke-linecap="round" stroke-linejoin="round"/>
<path d="M298.584 142.164C298.584 142.164 295.019 139.457 296.767 137.325C297.679 136.22 298.865 137.675 298.865 137.675C298.865 137.675 298.233 134.283 300.768 133.785C303.108 133.349 303.014 136.026 303.014 136.026C303.014 136.026 304.223 133.73 306.337 134.244C308.022 134.648 307.375 137.029 307.375 137.029C307.375 137.029 309.621 134.244 311.945 135.473C313.95 136.523 312.296 139.044 312.296 139.044C312.296 139.044 314.683 138.204 316.017 139.542C317.351 140.88 316.017 142.654 316.017 142.654C316.017 142.654 318.646 142.654 318.763 144.615C318.88 146.575 316.727 146.949 316.727 146.949C316.727 146.949 319.769 147.929 319.792 150.31C319.816 152.69 317.78 151.928 317.78 151.928C317.78 151.928 319.043 154.168 317.99 155.359C317.872 155.518 317.718 155.648 317.541 155.737C317.363 155.826 317.167 155.872 316.969 155.872C316.77 155.872 316.574 155.826 316.397 155.737C316.219 155.648 316.065 155.518 315.947 155.359C315.947 155.359 317.265 158.183 315.596 159.008C314.402 159.591 313.7 158.16 313.7 158.16C313.7 158.16 312.694 160.603 311.477 159.109C310.261 157.615 304.223 146.108 304.223 146.108L298.584 142.164Z" fill="#263238" stroke="#263238" stroke-width="0.75" stroke-linecap="round" stroke-linejoin="round"/>
<path d="M297.554 142.273L295.308 146.941C295.078 147.427 294.958 147.959 294.957 148.497V149.96L293.717 153.072C293.653 153.234 293.601 153.4 293.561 153.569C293.163 155.227 291.268 164.127 295.901 165.94C299.988 167.542 305.744 163.676 307.858 162.089C308.385 161.693 308.83 161.199 309.169 160.634L310.573 158.362C311.169 158.54 311.806 158.525 312.393 158.319C312.98 158.114 313.487 157.728 313.841 157.218C315.097 155.421 316.547 154.449 314.824 152.83C313.1 151.212 311.509 153.803 311.509 153.803L311.743 149.236L309.746 145.735L309.644 143.533C309.644 143.533 303.108 142.81 298.724 140.421L297.554 142.273Z" fill="white" stroke="#263238" stroke-width="0.75" stroke-linecap="round" stroke-linejoin="round"/>
<path d="M297.554 142.273L295.308 146.941C295.078 147.427 294.958 147.959 294.957 148.497V149.96L293.717 153.072C293.653 153.234 293.601 153.4 293.561 153.569C293.163 155.227 291.268 164.127 295.901 165.94C299.988 167.542 305.744 163.676 307.858 162.089C308.385 161.693 308.83 161.199 309.169 160.634L310.573 158.362C311.169 158.54 311.806 158.525 312.393 158.319C312.98 158.114 313.487 157.728 313.841 157.218C315.097 155.421 316.547 154.449 314.824 152.83C313.1 151.212 311.509 153.803 311.509 153.803L311.743 149.236L309.746 145.735L309.644 143.533C309.644 143.533 303.108 142.81 298.724 140.421L297.554 142.273Z" fill="#858585" stroke="#263238" stroke-linecap="round" stroke-linejoin="round"/>
<path d="M301.532 158.214C300.268 160.649 298.552 160.245 297.476 159.638" stroke="#263238" stroke-width="0.75" stroke-linecap="round" stroke-linejoin="round"/>
<path d="M301.555 152.683C301.384 153.235 301.033 153.616 300.776 153.538C300.518 153.461 300.432 152.939 300.604 152.387C300.776 151.835 301.127 151.446 301.384 151.531C301.641 151.617 301.727 152.13 301.555 152.683Z" fill="#263238"/>
<path d="M296.345 151.072C296.173 151.632 295.822 152.013 295.565 151.928C295.308 151.842 295.222 151.329 295.393 150.776C295.565 150.224 295.924 149.843 296.173 149.928C296.423 150.014 296.517 150.52 296.345 151.072Z" fill="#263238"/>
<path d="M295.971 147.478C296.177 147.42 296.394 147.405 296.606 147.435C296.819 147.464 297.023 147.537 297.206 147.649C297.389 147.761 297.547 147.909 297.67 148.084C297.793 148.26 297.878 148.458 297.921 148.668" stroke="#263238" stroke-width="0.75" stroke-linecap="round" stroke-linejoin="round"/>
<path d="M300.456 149.602C300.456 149.602 302.273 147.695 303.498 149.718" stroke="#263238" stroke-width="0.75" stroke-linecap="round" stroke-linejoin="round"/>
<path d="M297.96 151.562C297.796 152.306 297.446 152.995 296.941 153.566C296.436 154.136 295.793 154.568 295.074 154.822L296.493 157.071" stroke="#263238" stroke-width="0.75" stroke-linecap="round" stroke-linejoin="round"/>
<path d="M307.016 240.76L306.618 243.164C306.561 243.561 306.659 243.965 306.893 244.291C307.127 244.617 307.479 244.84 307.874 244.914L332.888 249.007C333.286 249.064 333.691 248.965 334.018 248.732C334.345 248.499 334.569 248.148 334.643 247.754L335.033 245.35L307.016 240.76Z" fill="white" stroke="#263238" stroke-width="0.75" stroke-linecap="round" stroke-linejoin="round"/>
<path d="M336.154 230.202L310.854 226.06C310.101 225.937 309.391 226.445 309.268 227.196L306.76 242.435C306.637 243.186 307.147 243.894 307.899 244.017L333.199 248.159C333.952 248.282 334.662 247.773 334.785 247.023L337.293 231.783C337.416 231.033 336.906 230.325 336.154 230.202Z" fill="white"/>
<path opacity="0.5" d="M336.154 230.202L310.854 226.06C310.101 225.937 309.391 226.445 309.268 227.196L306.76 242.435C306.637 243.186 307.147 243.894 307.899 244.017L333.199 248.159C333.952 248.282 334.662 247.773 334.785 247.023L337.293 231.783C337.416 231.033 336.906 230.325 336.154 230.202Z" fill="white"/>
<path d="M336.154 230.202L310.854 226.06C310.101 225.937 309.391 226.445 309.268 227.196L306.76 242.435C306.637 243.186 307.147 243.894 307.899 244.017L333.199 248.159C333.952 248.282 334.662 247.773 334.785 247.023L337.293 231.783C337.416 231.033 336.906 230.325 336.154 230.202Z" stroke="#263238" stroke-linecap="round" stroke-linejoin="round"/>
<path d="M326.391 233.042L325.01 237.71L320.33 241.048C319.668 243.091 318.887 245.094 317.99 247.046C317.931 247.155 317.9 247.277 317.9 247.401C317.901 247.525 317.933 247.647 317.994 247.755C318.055 247.863 318.142 247.954 318.248 248.019C318.354 248.084 318.475 248.122 318.599 248.128C319.246 248.128 320.003 247.824 320.416 246.572C320.416 246.572 320.596 249.03 322.117 247.528C322.117 247.528 323.045 249.909 324.495 248.034C324.495 248.034 327.857 248.532 328.395 246.113C328.934 243.693 329.729 239.429 329.729 239.429L331.866 234.427L326.391 233.042Z" fill="#858585" stroke="#263238" stroke-linecap="round" stroke-linejoin="round"/>
<path d="M320.385 245.615L320.915 242.012" stroke="#263238" stroke-width="0.75" stroke-linecap="round" stroke-linejoin="round"/>
<path d="M321.22 245.848C321.22 245.848 321.586 247.038 322.413 246.844C323.24 246.649 324.418 247.567 326.992 246.486" stroke="#263238" stroke-width="0.75" stroke-linecap="round" stroke-linejoin="round"/>
<path d="M328.746 174.56C328.746 174.56 340.446 206.987 340.228 211.725C340.01 216.463 331.687 237.072 331.687 237.072L325.26 235.034L329.55 210.861L325.704 194.064C325.704 194.064 324.831 181.749 328.746 174.56Z" fill="white" stroke="#263238" stroke-linecap="round" stroke-linejoin="round"/>
<path d="M330.993 210.325C331.424 209.995 331.924 209.766 332.456 209.654C332.988 209.543 333.538 209.551 334.066 209.679" stroke="#263238" stroke-width="0.75" stroke-linecap="round" stroke-linejoin="round"/>
<path d="M323.388 235.547C323.155 235.239 322.981 234.891 322.873 234.52C322.423 234.512 321.987 234.673 321.652 234.973C321.317 235.272 321.108 235.687 321.068 236.134C321.027 236.581 321.158 237.026 321.434 237.381C321.709 237.735 322.109 237.973 322.553 238.045C323.02 238.121 323.498 238.01 323.882 237.736C324.267 237.462 324.527 237.047 324.605 236.582C324.103 236.369 323.678 236.008 323.388 235.547V235.547Z" fill="white"/>
<path d="M95.1132 167.107L96.5328 174.085L80.7612 174.747L83.499 155.406L94.1226 156.635L95.1132 167.107Z" fill="white"/>
<path d="M102.18 156.518L88.9902 160.408C89.1548 161.916 89.4684 163.404 89.9262 164.85C90.7062 167.091 95.4564 171.074 98.5062 171.028C101.556 170.981 101.899 161.287 101.899 161.287L103.74 160.268C103.845 160.208 103.937 160.127 104.008 160.029C104.08 159.931 104.13 159.82 104.155 159.701C104.18 159.583 104.18 159.461 104.154 159.342C104.128 159.224 104.077 159.113 104.005 159.015L102.18 156.518Z" fill="#263238" stroke="#263238" stroke-width="0.75" stroke-linecap="round" stroke-linejoin="round"/>
<path d="M95.1132 167.107L96.5328 174.085L80.7612 174.747L83.499 155.406L94.1226 156.635L95.1132 167.107Z" stroke="#263238" stroke-linecap="round" stroke-linejoin="round"/>
<path d="M95.8387 142.522C95.8387 142.522 99.6685 143.3 99.2785 139.153C98.8885 135.006 91.7515 137.543 88.0309 138.009C84.3103 138.476 72.2983 142.95 76.5493 150.014C76.5493 150.014 74.0455 153.997 83.0623 160.68C83.0623 160.68 87.3445 158.673 89.6923 161.606L91.5253 158.043L96.2053 149.843L95.8387 142.522Z" fill="#263238" stroke="#263238" stroke-linecap="round" stroke-linejoin="round"/>
<path d="M95.5576 141.899C95.5576 141.899 99.2236 143.938 101.33 141.386C101.33 141.386 101.564 146.832 95.5576 141.899Z" fill="#263238" stroke="#263238" stroke-linecap="round" stroke-linejoin="round"/>
<path d="M95.9397 141.332C95.9397 141.332 101.4 147.065 101.213 150.994V154.581L104.099 157.817C104.179 157.9 104.24 158 104.278 158.109C104.315 158.219 104.327 158.335 104.314 158.45C104.3 158.564 104.261 158.675 104.2 158.773C104.138 158.87 104.056 158.953 103.958 159.015L102.281 160.175C102.281 160.175 102.773 169.355 99.8865 169.682C97.0005 170.009 92.1957 166.57 91.2363 164.547C90.5137 162.691 89.9908 160.764 89.6763 158.798C88.8363 158.571 88.0836 158.098 87.5151 157.441C86.9465 156.784 86.5882 155.972 86.4861 155.11C86.1507 152.091 89.2005 152.177 89.9883 154.153L90.6279 155.763L92.6091 155.693C92.6091 155.693 91.4781 152.846 92.1489 152.006C92.8197 151.165 95.4561 149.119 94.2471 147.167C93.0381 145.214 93.4437 141.892 95.9397 141.332Z" fill="white" stroke="#263238" stroke-linecap="round" stroke-linejoin="round"/>
<path d="M99.0601 161.972C99.2872 162.374 99.6353 162.695 100.055 162.889C100.475 163.083 100.946 163.14 101.4 163.053" stroke="#263238" stroke-width="0.75" stroke-linecap="round" stroke-linejoin="round"/>
<path d="M97.6245 151.018C97.6245 151.018 98.8647 149.298 100.043 150.87" stroke="#263238" stroke-linecap="round" stroke-linejoin="round"/>
<path d="M99.5826 154.604C99.5826 155.141 99.372 155.585 99.0834 155.592C98.7948 155.6 98.5452 155.172 98.5296 154.635C98.514 154.099 98.7402 153.655 99.0288 153.647C99.3174 153.64 99.567 154.044 99.5826 154.604Z" fill="#263238"/>
<path d="M74.5676 326.947L72.29 346.498L79.0682 347.54L82.8044 328.215L74.5676 326.947Z" fill="white" stroke="#263238" stroke-linecap="round" stroke-linejoin="round"/>
<path d="M71.3774 240.558C71.3774 240.558 71.6504 251.885 75.6596 259.852L76.5722 289.914L71.9468 338.352L82.235 339.332L91.595 288.669L94.715 242.767L71.3774 240.558Z" fill="white" stroke="#263238" stroke-linecap="round" stroke-linejoin="round"/>
<path opacity="0.2" d="M93.2643 264.839L92.4063 259.447L88.5063 242.479L87.7887 242.114L71.4087 240.558C71.4087 240.558 71.4087 242.417 71.7753 245.163L79.8639 249.738C80.0547 252.611 80.7051 255.434 81.7905 258.102C81.8877 258.334 81.9232 258.588 81.8936 258.839C81.8639 259.089 81.7702 259.328 81.6214 259.532C81.4725 259.736 81.2736 259.898 81.0436 260.003C80.8137 260.108 80.5606 260.153 80.3085 260.132C79.4739 260.07 78.7485 260.132 78.7485 260.677C78.7485 261.937 84.8481 266.006 84.8481 266.006C84.8481 266.006 91.0023 285.845 90.7839 293.174L91.6185 288.661L93.2643 264.839Z" fill="black"/>
<path d="M95.2534 328.23L95.9944 347.898H102.851L103.584 328.23H95.2534Z" fill="white" stroke="#263238" stroke-linecap="round" stroke-linejoin="round"/>
<path d="M113.771 350.668C111.507 349.98 109.305 349.106 107.187 348.054C106.173 347.424 104.754 345.362 103.709 344.779C103.489 344.684 103.253 344.636 103.014 344.636C102.776 344.636 102.54 344.684 102.32 344.779C101.821 345.183 101.798 347.291 101.798 347.291C101.798 347.291 100.916 345.144 100.277 344.779C99.3875 344.281 96.9695 344.133 96.1817 344.779C94.8713 345.844 94.3955 349.548 94.1381 351.213C94.0757 351.578 94.1381 353.601 94.1381 353.601H115.198V352.675C115.2 352.234 115.063 351.803 114.807 351.443C114.551 351.083 114.189 350.812 113.771 350.668V350.668Z" fill="#263238" stroke="#263238" stroke-linecap="round" stroke-linejoin="round"/>
<path d="M109.598 241.491L107.913 286.934L105.097 338.819H94.38C94.38 338.819 92.1336 298.993 92.6952 287.471L87.0714 260.825C87.0714 260.825 81.1668 252.967 82.5708 243.436L109.598 241.491Z" fill="white" stroke="#263238" stroke-linecap="round" stroke-linejoin="round"/>
<path d="M93.4282 334.96L93.7792 341.2H105.518L106.431 334.96H93.4282Z" fill="white" stroke="#263238" stroke-linecap="round" stroke-linejoin="round"/>
<path d="M71.089 334.423L70.8472 340.663L82.5316 341.775L84.037 335.653L71.089 334.423Z" fill="white" stroke="#263238" stroke-linecap="round" stroke-linejoin="round"/>
<path d="M127.366 211.577L111.15 201.292L128.24 184.246L144.464 194.531L127.366 211.577Z" fill="white" stroke="#263238" stroke-linecap="round" stroke-linejoin="round"/>
<path d="M128.294 208.061L115.252 199.791L128.996 186.082L142.038 194.352L128.294 208.061Z" fill="white" stroke="#263238" stroke-width="0.75" stroke-linecap="round" stroke-linejoin="round"/>
<path d="M129.246 193.862L131.523 191.59L128.598 189.739L126.321 192.003L129.246 193.862Z" stroke="#263238" stroke-width="0.75" stroke-linecap="round" stroke-linejoin="round"/>
<path d="M125.713 197.394L127.99 195.122L125.057 193.263L122.788 195.535L125.713 197.394Z" stroke="#263238" stroke-width="0.75" stroke-linecap="round" stroke-linejoin="round"/>
<path d="M122.054 201.043L124.324 198.771L121.399 196.912L119.122 199.183L122.054 201.043Z" stroke="#263238" stroke-width="0.75" stroke-linecap="round" stroke-linejoin="round"/>
<path d="M134.823 186.899L132.67 189.054C132.568 189.155 132.491 189.278 132.443 189.414C132.395 189.549 132.378 189.694 132.394 189.836C132.41 189.979 132.457 190.116 132.534 190.238C132.61 190.36 132.712 190.463 132.834 190.54L135.954 192.539C136.298 192.758 136.706 192.853 137.112 192.81C137.517 192.766 137.896 192.585 138.185 192.298L140.174 190.307L134.823 186.899Z" fill="#858585" stroke="#263238" stroke-linecap="round" stroke-linejoin="round"/>
<path d="M77.1187 173.619L79.9345 167.449C79.9345 167.449 96.2442 165.628 100.597 179.228L77.1187 173.619Z" fill="#858585" stroke="#263238" stroke-linecap="round" stroke-linejoin="round"/>
<path d="M67.8599 178.878C67.8599 178.878 63.8351 209.632 64.9037 220.532C65.7461 229.152 71.4401 236.45 71.4401 236.45L79.8797 233.151L75.5897 220.532C75.5897 220.532 76.9235 197.814 78.1871 192.524L67.8599 178.878Z" fill="#858585" stroke="#263238" stroke-linecap="round" stroke-linejoin="round"/>
<path d="M68.9985 234.94L71.3775 237.78L81.1275 233.991L79.8639 230.202L68.9985 234.94Z" fill="#858585" stroke="#263238" stroke-linecap="round" stroke-linejoin="round"/>
<path d="M67.8596 178.878C67.8596 178.878 66.5882 196.546 70.1996 208.963C73.811 221.38 70.1996 241.771 70.1996 241.771C70.1996 241.771 86.8214 252.5 112.32 244.292C112.32 244.292 109.161 183.919 104.941 180.558C100.721 177.197 76.9076 164.368 67.8596 178.878Z" fill="#858585" stroke="#263238" stroke-linecap="round" stroke-linejoin="round"/>
<path opacity="0.2" d="M112.32 244.292C112.32 244.292 111.236 223.597 109.496 205.766C105.807 196.834 99.7777 184.939 99.4579 201.642C98.9899 225.799 113.896 224.375 102.086 228.584C99.4459 229.582 96.6173 229.986 93.8021 229.768C90.987 229.55 88.2547 228.716 85.8001 227.324C85.6038 227.224 85.379 227.193 85.163 227.238C84.9471 227.283 84.7529 227.4 84.6127 227.569C84.4725 227.739 84.3947 227.952 84.3922 228.172C84.3897 228.392 84.4626 228.606 84.5989 228.779C87.5629 232.537 92.0635 234.878 95.5189 236.224C95.8309 236.343 96.0947 236.562 96.2692 236.846C96.4436 237.13 96.5189 237.464 96.4833 237.795C96.4476 238.126 96.3031 238.437 96.0722 238.677C95.8414 238.918 95.5371 239.076 95.2069 239.126C84.0841 240.768 75.3637 234.871 71.3623 231.44C70.8943 237.383 70.1221 241.771 70.1221 241.771C70.1221 241.771 86.8219 252.5 112.32 244.292Z" fill="black"/>
<path d="M104.957 180.566C106.477 181.262 107.797 182.33 108.792 183.672C109.788 185.013 110.427 186.583 110.651 188.237C111.493 194.025 116.891 211.803 116.891 211.803L118.685 210.644C120.182 211.315 121.416 212.46 122.195 213.902C122.973 215.344 123.253 217.001 122.99 218.618C122.99 218.618 118.607 227.176 113.817 225.566C108.896 223.901 106.142 219.886 103.677 213.32C102.375 209.819 98.6152 199.269 98.6152 199.269" fill="#858585"/>
<path d="M104.957 180.566C106.477 181.262 107.797 182.33 108.792 183.672C109.788 185.013 110.427 186.583 110.651 188.237C111.493 194.025 116.891 211.803 116.891 211.803L118.685 210.644C120.182 211.315 121.416 212.46 122.195 213.902C122.973 215.344 123.253 217.001 122.99 218.618C122.99 218.618 118.607 227.176 113.817 225.566C108.896 223.901 106.142 219.886 103.677 213.32C102.375 209.819 98.6152 199.269 98.6152 199.269" stroke="#263238" stroke-linecap="round" stroke-linejoin="round"/>
<path d="M119.043 216.953C119.072 217.41 119.051 217.87 118.981 218.322" stroke="#263238" stroke-width="0.75" stroke-linecap="round" stroke-linejoin="round"/>
<path d="M115.822 220.532C115.822 220.532 117.296 218.198 117.086 213.164C117.795 213.7 118.336 214.426 118.646 215.257" stroke="#263238" stroke-width="0.75" stroke-linecap="round" stroke-linejoin="round"/>
<path d="M119.862 210.153L125.486 206.155C125.767 204.911 126.379 203.766 127.258 202.841C128.136 201.915 129.249 201.243 130.478 200.895C130.478 200.895 133.076 196.616 134.55 197.114C136.024 197.612 132.795 199.355 132.514 201.595L133.707 203.19C133.707 203.19 137.607 202.506 138.559 201.245C138.559 201.245 138.348 203.914 136.804 204.357C136.804 204.357 136.804 206.388 135.751 206.318L128.013 208.496L123.513 216.875L119.862 210.153Z" fill="white" stroke="#263238" stroke-linecap="round" stroke-linejoin="round"/>
<path d="M96.8369 229.603C97.7261 229.522 98.6076 229.371 99.4733 229.152" stroke="#263238" stroke-width="0.75" stroke-linecap="round" stroke-linejoin="round"/>
<path d="M74.7314 216.852C74.7314 216.852 83.0228 229.502 95.0114 229.673" stroke="#263238" stroke-width="0.75" stroke-linecap="round" stroke-linejoin="round"/>
<path d="M117.437 210.294C117.437 210.294 123.302 214.713 122.741 220.042L124.854 216.004C124.854 216.004 124.784 212.604 119.933 209.002L117.437 210.294Z" fill="#858585" stroke="#263238" stroke-linecap="round" stroke-linejoin="round"/>
<path d="M94.1381 353.601H115.198V352.675C115.198 352.448 115.161 352.222 115.089 352.006H94.1069C94.1069 352.714 94.1381 353.601 94.1381 353.601Z" fill="white" stroke="#263238" stroke-width="0.75" stroke-linecap="round" stroke-linejoin="round"/>
<path d="M89.6999 350.668C87.4366 349.98 85.2346 349.106 83.1167 348.054C82.1027 347.424 80.6831 345.362 79.6457 344.779C79.4251 344.684 79.1876 344.635 78.9476 344.635C78.7076 344.635 78.4701 344.684 78.2495 344.779C77.7503 345.183 77.7269 347.291 77.7269 347.291C77.7269 347.291 76.8533 345.144 76.2059 344.779C75.3167 344.281 72.8987 344.133 72.1109 344.779C70.8005 345.844 70.3247 349.548 70.0673 351.213C70.0049 351.578 70.0673 353.601 70.0673 353.601H91.1273V352.675C91.1289 352.234 90.9921 351.803 90.7362 351.443C90.4802 351.083 90.1179 350.812 89.6999 350.668V350.668Z" fill="#263238" stroke="#263238" stroke-linecap="round" stroke-linejoin="round"/>
<path d="M70.0517 353.601H91.1117V352.675C91.1116 352.448 91.0747 352.222 91.0025 352.006H70.0205C70.0205 352.714 70.0517 353.601 70.0517 353.601Z" fill="white" stroke="#263238" stroke-width="0.75" stroke-linecap="round" stroke-linejoin="round"/>
<path d="M101.119 287.774C101.119 287.774 98.8804 291.626 95.2534 290.155" stroke="#263238" stroke-width="0.75" stroke-linecap="round" stroke-linejoin="round"/>
<path d="M85.5112 289.128C85.5112 289.128 81.4942 292.551 78.1714 290.155" stroke="#263238" stroke-width="0.75" stroke-linecap="round" stroke-linejoin="round"/>
<path d="M127.428 189.466L127.99 192.252H132.966L128.918 191.31L129.113 189.412L127.428 189.466Z" fill="white"/>
</svg>
